STARTFONT 2.1
COMMENT
COMMENT Converted from OpenType font "RacingSansOne-Regular.ttf" by "otf2bdf 3.0".
COMMENT
FONT -FreeType-Racing Sans One-Medium-R-Normal--53-380-100-100-P-294-ISO10646-1
SIZE 38 100 100
FONTBOUNDINGBOX 77 69 -10 -16
STARTPROPERTIES 19
FOUNDRY "FreeType"
FAMILY_NAME "Racing Sans One"
WEIGHT_NAME "Medium"
SLANT "R"
SETWIDTH_NAME "Normal"
ADD_STYLE_NAME ""
PIXEL_SIZE 53
POINT_SIZE 380
RESOLUTION_X 100
RESOLUTION_Y 100
SPACING "P"
AVERAGE_WIDTH 294
CHARSET_REGISTRY "ISO10646"
CHARSET_ENCODING "1"
FONT_ASCENT 51
FONT_DESCENT 15
COPYRIGHT "Copyright (c) 2012, Pablo Impallari (www.impallari.com|impallari@gmail.com) and Rodrigo Fuenzalida (www.rfuenzalida.com), with Reserved Font Name Racing Sans."
_OTF_FONTFILE "RacingSansOne-Regular.ttf"
_OTF_PSNAME "RacingSansOne-Regular"
ENDPROPERTIES
CHARS 441
STARTCHAR 0020
ENCODING 32
SWIDTH 189 0
DWIDTH 10 0
BBX 0 0 0 0
BITMAP
ENDCHAR
STARTCHAR 0021
ENCODING 33
SWIDTH 303 0
DWIDTH 16 0
BBX 17 37 1 0
BITMAP
03FF80
03FF00
03FF00
03FF00
07FF00
07FE00
07FE00
07FE00
07FE00
07FC00
07FC00
0FFC00
0FFC00
0FF800
0FF800
0FF800
0FF800
0FF000
1FF000
1FF000
1FE000
1FE000
1FE000
1FE000
1FC000
1FC000
200000
000000
1F0000
3F8000
7FC000
FFC000
FFC000
FFC000
FFC000
7F8000
3E0000
ENDCHAR
STARTCHAR 0022
ENCODING 34
SWIDTH 454 0
DWIDTH 24 0
BBX 23 15 4 21
BITMAP
1FE1FE
1FC3FC
3FC3FC
3FC3F8
3F83F8
3F83F8
3F83F0
3F07F0
7F07F0
7F07E0
7E07E0
7E07E0
7E07C0
7C0FC0
FC0FC0
ENDCHAR
STARTCHAR 0023
ENCODING 35
SWIDTH 682 0
DWIDTH 36 0
BBX 35 33 1 1
BITMAP
000F007C00
001F007800
001F007800
001F00F800
001E00F800
001E00F800
003E00F000
0FFFFFFFE0
1FFFFFFFE0
1FFFFFFFE0
1FFFFFFFE0
1FFFFFFFC0
007C03E000
007C03E000
007803E000
00F803E000
00F807C000
00F807C000
00F007C000
01F007C000
7FFFFFFF80
7FFFFFFF00
FFFFFFFF00
FFFFFFFF00
FFFFFFFF00
03E01F0000
03E01F0000
03E01F0000
07C01F0000
07C03F0000
07C03E0000
07C03E0000
0FC03E0000
ENDCHAR
STARTCHAR 0024
ENCODING 36
SWIDTH 606 0
DWIDTH 32 0
BBX 28 45 2 -6
BITMAP
0000FC00
0000FC00
0000FC00
0000F800
0003FE00
003FFFC0
00FFFFF0
03FFFFE0
07FE03E0
0FF80040
1FF80000
3FF00000
3FF00000
3FF00000
3FF00000
7FF80000
7FFE0000
7FFFC000
3FFFFC00
3FFFFF00
3FFFFF80
1FFFFFC0
1FFFFFE0
07FFFFE0
03FFFFE0
007FFFE0
000FFFF0
0003FFF0
0001FFF0
0000FFE0
0000FFE0
0000FFE0
0000FFC0
4000FFC0
7001FF80
7E03FF00
FFFFFE00
FFFFF800
1FFFE000
01FC0000
00FC0000
00FC0000
00F80000
00F80000
01F80000
ENDCHAR
STARTCHAR 0025
ENCODING 37
SWIDTH 720 0
DWIDTH 38 0
BBX 31 36 4 0
BITMAP
00800000
0FF800F8
1FFC01F0
3F7C03F0
7E3E03E0
7E7E07E0
FC7E07C0
FC7E0F80
FC7E1F80
FC7E1F00
FCFC3E00
FCFC7E00
7DF87C00
7FF0FC00
1FC0F800
0001F000
0003F000
0003E000
0007E000
000FC000
000F8000
001F8000
001F07F8
003F1FFC
007E3F3E
007C3F3E
00FC7E3E
01F87E3E
01F87E3E
03F07C7E
03E07C7E
07E07C7E
0FC07CFC
0FC07CFC
1F803FF0
3F001FC0
ENDCHAR
STARTCHAR 0026
ENCODING 38
SWIDTH 701 0
DWIDTH 37 0
BBX 35 36 0 0
BITMAP
0000040000
0000FFE000
0003FFF800
0007FFFC00
000FF07C00
001FF03E00
001FF03E00
003FF03E00
003FF83E00
003FFC3E00
003FFC7E00
003FFEFC00
003FFFF800
001FFFF000
001FFFC000
007FFF8000
01FFFF8780
07FFFFC780
0FF7FFCF00
1FF7FFEF00
3FE3FFFE00
7FE3FFFE00
7FE1FFFC00
FFE1FFFC00
FFE0FFF800
FFE0FFFC00
FFE07FFC00
FFF07FFE00
FFF03FFE00
FFFC3FFF00
7FFFFFFF00
7FFFFFFF80
3FFFFFFF80
1FFFEFFFC0
0FFFC7FFC0
01FE07FFE0
ENDCHAR
STARTCHAR 0027
ENCODING 39
SWIDTH 208 0
DWIDTH 11 0
BBX 11 15 4 21
BITMAP
1FE0
1FC0
3FC0
3F80
3F80
3F80
3F00
3F00
7E00
7E00
7E00
7C00
7C00
7800
F800
ENDCHAR
STARTCHAR 0028
ENCODING 40
SWIDTH 303 0
DWIDTH 16 0
BBX 18 42 2 -4
BITMAP
000180
000380
000FC0
001F80
003F00
007E00
00FE00
01FC00
03F800
03F800
07F000
0FF000
0FE000
1FE000
1FC000
3FC000
3FC000
7F8000
7F8000
7F8000
FF0000
FF0000
FF0000
FF0000
FF0000
FE0000
FE0000
FE0000
FE0000
FE0000
FE0000
FE0000
7F0000
7F0000
3F0000
3F0000
1F8000
1F8000
0FC000
07C000
01E000
008000
ENDCHAR
STARTCHAR 0029
ENCODING 41
SWIDTH 303 0
DWIDTH 16 0
BBX 18 42 -2 -4
BITMAP
00C000
01F000
00F800
00FC00
007E00
007E00
003F00
003F00
003F80
003F80
003F80
003FC0
003FC0
001FC0
003FC0
003FC0
003FC0
003FC0
003FC0
003FC0
003FC0
007F80
007F80
007F80
00FF00
00FF00
00FF00
01FE00
01FE00
03FC00
03F800
07F800
07F000
0FE000
0FC000
1F8000
3F8000
3E0000
7C0000
F80000
700000
400000
ENDCHAR
STARTCHAR 002A
ENCODING 42
SWIDTH 265 0
DWIDTH 14 0
BBX 11 11 5 25
BITMAP
0700
0700
3660
7FE0
7FE0
0F00
7FC0
FDE0
6CC0
4C80
1C00
ENDCHAR
STARTCHAR 002B
ENCODING 43
SWIDTH 454 0
DWIDTH 24 0
BBX 22 23 2 6
BITMAP
003F00
003E00
003E00
003E00
007E00
007E00
007C00
007C00
007C00
7FFFFC
FFFFFC
FFFFF8
FFFFF8
FFFFF8
01F800
01F800
01F000
01F000
03F000
03F000
03F000
03E000
07E000
ENDCHAR
STARTCHAR 002C
ENCODING 44
SWIDTH 284 0
DWIDTH 15 0
BBX 12 17 -1 -8
BITMAP
0F80
1FE0
3FE0
7FF0
7FF0
7FF0
3FE0
1FE0
0FE0
0FC0
0FC0
1F80
3F00
7E00
FC00
F000
6000
ENDCHAR
STARTCHAR 002D
ENCODING 45
SWIDTH 416 0
DWIDTH 22 0
BBX 17 5 2 9
BITMAP
7FFF80
FFFF80
FFFF80
FFFF80
FFFF00
ENDCHAR
STARTCHAR 002E
ENCODING 46
SWIDTH 284 0
DWIDTH 15 0
BBX 11 10 0 0
BITMAP
1F00
3FC0
7FC0
FFE0
FFE0
FFE0
FFC0
FFC0
7F80
3E00
ENDCHAR
STARTCHAR 002F
ENCODING 47
SWIDTH 360 0
DWIDTH 19 0
BBX 24 35 -2 0
BITMAP
00001F
00003E
00003E
00007C
00007C
0000F8
0000F0
0001F0
0003E0
0003E0
0007C0
0007C0
000F80
000F80
001F00
001F00
003E00
003E00
007C00
007C00
00F800
00F800
01F000
01F000
03E000
07E000
07C000
0FC000
0F8000
1F8000
1F0000
3F0000
3E0000
7E0000
FC0000
ENDCHAR
STARTCHAR 0030
ENCODING 48
SWIDTH 663 0
DWIDTH 35 0
BBX 33 36 2 0
BITMAP
0000100000
0007FFC000
003FFFF000
007FFFF800
01FFCFFC00
03FF87FC00
07FF07FE00
07FF07FE00
0FFE07FF00
1FFE07FF00
1FFC07FF00
3FFC07FF00
3FFC07FF80
3FF807FF80
7FF807FF80
7FF807FF80
7FF80FFF00
7FF80FFF00
FFF00FFF00
FFF00FFF00
FFF00FFF00
FFF00FFF00
FFF01FFE00
FFF01FFE00
FFF01FFE00
FFF03FFC00
7FF03FFC00
7FF03FF800
7FF07FF800
7FF07FF000
3FF0FFE000
3FF1FFC000
1FFFFF8000
0FFFFF0000
03FFFC0000
00FFE00000
ENDCHAR
STARTCHAR 0031
ENCODING 49
SWIDTH 397 0
DWIDTH 21 0
BBX 19 35 3 0
BITMAP
001FE0
003FE0
00FFE0
01FFC0
07FFC0
3FFFC0
7FFFC0
FFFFC0
FFFF80
03FF80
03FF80
07FF80
07FF80
07FF00
07FF00
0FFF00
0FFF00
0FFF00
0FFE00
0FFE00
1FFE00
1FFE00
1FFE00
1FFC00
1FFC00
3FFC00
3FFC00
3FFC00
3FF800
3FF800
7FF800
7FF800
7FF000
7FF000
FFF000
ENDCHAR
STARTCHAR 0032
ENCODING 50
SWIDTH 587 0
DWIDTH 31 0
BBX 31 36 0 0
BITMAP
00002000
000FFF80
003FFFE0
00FFFFF0
01FF9FF8
03FF0FFC
07FF0FFC
07FE0FFE
0FFE0FFE
0FFC0FFE
0FFC0FFE
0FFC0FFE
0FF80FFE
1FF80FFE
00001FFC
00001FFC
00001FFC
00003FF8
00003FF0
00007FE0
0000FFE0
0000FF80
0001FF00
0003FE00
0007FC00
001FF000
003FE000
00FF8000
03FFFFF0
0FFFFFF0
7FFFFFF0
7FFFFFF0
7FFFFFF0
FFFFFFE0
FFFFFFE0
FFFFFFE0
ENDCHAR
STARTCHAR 0033
ENCODING 51
SWIDTH 606 0
DWIDTH 32 0
BBX 31 36 0 0
BITMAP
00001000
000FFFC0
007FFFF0
01FFFFF8
03FFDFFC
03FF0FFC
07FE0FFE
07FE07FE
07FC07FE
07FC07FE
0FFC0FFE
0FF80FFC
00000FFC
00001FF8
00003FF0
0003FFE0
0003FF80
0003FC00
0003FFC0
0001FFE0
00007FF0
00007FF8
00003FF8
3FE03FFC
3FE03FFC
7FE03FFC
7FE07FFC
7FC07FF8
7FC07FF8
7FC0FFF0
FFE0FFF0
FFE1FFE0
7FFFFFC0
1FFFFF00
07FFFC00
01FFC000
ENDCHAR
STARTCHAR 0034
ENCODING 52
SWIDTH 606 0
DWIDTH 32 0
BBX 31 35 0 0
BITMAP
00007FFE
0000FFFC
0001FFFC
0003FFFC
0003FFFC
0007FFFC
000FFFF8
001FBFF8
003F7FF8
003F7FF8
007E7FF8
00FC7FF0
01F87FF0
01F8FFF0
03F0FFF0
07E0FFF0
0FC0FFE0
1FC0FFE0
1F81FFE0
3F01FFE0
7E01FFE0
7E01FFC0
7FFFFFFE
7FFFFFFE
FFFFFFFE
FFFFFFFC
FFFFFFFC
0003FF80
0007FF80
0007FF80
0007FF80
0007FF00
0007FF00
000FFF00
000FFF00
ENDCHAR
STARTCHAR 0035
ENCODING 53
SWIDTH 568 0
DWIDTH 30 0
BBX 29 35 0 0
BITMAP
01FFFFF8
01FFFFF8
01FFFFF0
01FFFFF0
03FFFFF0
03FFFFF0
03FFFFF0
03FFFFE0
03F00000
07F00000
07F00000
07E04000
07EFFE00
0FFFFF80
0FFFFFC0
0FFFFFE0
0FF0FFE0
0FE07FF0
1FC07FF0
00007FF0
00007FF0
00007FF0
00007FF0
3FC07FF0
7FC07FF0
7FC07FF0
7FC07FE0
7FC0FFE0
FFC0FFC0
FFC1FFC0
FFE3FF80
7FFFFE00
3FFFFC00
0FFFF000
01FF0000
ENDCHAR
STARTCHAR 0036
ENCODING 54
SWIDTH 625 0
DWIDTH 33 0
BBX 30 36 2 0
BITMAP
00001000
0007FFE0
001FFFFC
007FFFFC
00FFDFFC
03FF8FF8
03FF0FF8
07FE0FF8
0FFE0FF8
1FFC0FF0
1FFC0000
3FFC0000
3FF80000
3FF81F00
7FF8FFC0
7FFBFFE0
7FF7FFF0
7FFFFFF0
FFFE7FF0
FFFC3FF8
FFF83FF8
FFF03FF8
FFF03FF8
FFF03FF8
FFE07FF8
FFE07FF8
FFE07FF0
7FE07FF0
7FE0FFF0
7FE0FFE0
3FE1FFE0
3FE1FFC0
1FFFFF80
0FFFFE00
03FFF800
007FC000
ENDCHAR
STARTCHAR 0037
ENCODING 55
SWIDTH 530 0
DWIDTH 28 0
BBX 29 35 3 0
BITMAP
3FFFFFF8
3FFFFFF0
3FFFFFF0
7FFFFFF0
7FFFFFF0
7FFFFFE0
7FFFFFC0
7FFFFF00
8000FE00
0003FC00
0007F800
000FF000
001FF000
003FE000
003FC000
007FC000
00FF8000
00FF8000
01FF8000
01FF0000
03FF0000
03FF0000
07FE0000
07FE0000
0FFE0000
0FFE0000
0FFC0000
1FFC0000
1FFC0000
1FFC0000
1FFC0000
1FFC0000
3FFC0000
3FFC0000
3FFC0000
ENDCHAR
STARTCHAR 0038
ENCODING 56
SWIDTH 625 0
DWIDTH 33 0
BBX 30 36 1 0
BITMAP
00002000
001FFF80
007FFFE0
01FFFFF0
03FF9FF8
07FE0FF8
0FFE0FFC
0FFC0FFC
0FFC0FFC
0FFC0FFC
1FFC0FFC
0FFC1FFC
0FFC1FFC
0FFC1FF8
07FC3FF0
03FFFFE0
01FFFF80
03FFFF80
0FFFFFE0
1FFC7FF0
3FF83FF0
7FF83FF8
7FF03FF8
7FF03FF8
FFF03FF8
FFF03FF8
FFF03FF8
FFF07FF8
FFF07FF8
7FF07FF0
7FF0FFE0
3FF0FFE0
3FFFFF80
0FFFFF00
07FFFC00
00FFE000
ENDCHAR
STARTCHAR 0039
ENCODING 57
SWIDTH 625 0
DWIDTH 33 0
BBX 30 36 2 0
BITMAP
00008000
003FFE00
00FFFF80
03FFFFC0
07FF3FE0
0FFE1FF0
1FFC1FF0
1FFC1FF8
3FF81FF8
3FF81FF8
7FF81FFC
7FF81FFC
7FF83FFC
7FF03FFC
7FF03FFC
7FF07FFC
7FF07FFC
3FF9FFFC
3FFFFFFC
3FFFBFF8
1FFF3FF8
0FFE7FF8
03F07FF8
00007FF0
00007FF0
0000FFF0
7FC0FFE0
7F80FFE0
7F81FFC0
7F81FF80
FFC3FF00
FFC7FE00
FFFFFC00
FFFFF000
7FFFE000
0FFE0000
ENDCHAR
STARTCHAR 003A
ENCODING 58
SWIDTH 284 0
DWIDTH 15 0
BBX 13 22 0 0
BITMAP
03E0
0FF0
0FF8
1FF8
1FF8
1FF8
1FF0
0FF0
07C0
0000
0000
0000
0000
1F00
3FC0
7FC0
7FC0
FFC0
7FC0
7FC0
7F80
1E00
ENDCHAR
STARTCHAR 003B
ENCODING 59
SWIDTH 284 0
DWIDTH 15 0
BBX 14 29 -1 -8
BITMAP
01F0
07F8
07FC
0FFC
0FFC
0FFC
0FF8
07F8
03E0
0000
0000
0000
0200
1FC0
3FE0
3FE0
7FE0
3FE0
1FE0
0FE0
0FE0
0FC0
0FC0
0F80
1F00
3E00
FC00
7000
4000
ENDCHAR
STARTCHAR 003C
ENCODING 60
SWIDTH 397 0
DWIDTH 21 0
BBX 19 23 2 6
BITMAP
000FE0
001FC0
003F00
007E00
00FC00
01F800
03F000
0FE000
1FC000
3F8000
7F0000
FE0000
7E0000
7F0000
3F8000
1FC000
0FC000
07E000
07F000
03F800
01F800
00FC00
00FE00
ENDCHAR
STARTCHAR 003D
ENCODING 61
SWIDTH 416 0
DWIDTH 22 0
BBX 20 13 1 9
BITMAP
1FFFF0
1FFFF0
1FFFE0
3FFFE0
000000
000000
000000
000000
000000
7FFFC0
7FFFC0
7FFFC0
FFFF80
ENDCHAR
STARTCHAR 003E
ENCODING 62
SWIDTH 397 0
DWIDTH 21 0
BBX 19 23 1 6
BITMAP
0FE000
07F000
03F000
01F800
01FC00
00FE00
007E00
003F00
003F80
001FC0
000FE0
0007E0
000FC0
003F80
007F00
00FE00
01FC00
03F800
07F000
0FC000
1F8000
3F0000
FE0000
ENDCHAR
STARTCHAR 003F
ENCODING 63
SWIDTH 530 0
DWIDTH 28 0
BBX 25 37 4 0
BITMAP
00FFC000
07FFF800
1FFFFC00
3FFFFE00
7FE1FF00
7FC1FF80
7FC1FF80
7F81FF80
7F81FF80
FF01FF80
FF03FF80
FF03FF80
0007FF00
0007FF00
000FFE00
001FFC00
007FF800
01FFF000
01FFC000
03FF0000
03FC0000
03FC0000
03FC0000
03FC0000
03FC0000
04000000
00000000
00000000
03E00000
07F80000
0FF80000
1FF80000
1FF80000
1FF80000
0FF80000
0FF00000
07C00000
ENDCHAR
STARTCHAR 0040
ENCODING 64
SWIDTH 738 0
DWIDTH 39 0
BBX 37 34 1 -6
BITMAP
00003E0000
0007FFE000
003FFFF800
007FFFFE00
01FF00FF00
03F8001F80
07E0000FC0
0FC00007E0
1F800003E0
1F01C001F0
3E07F3F1F0
3E0FFBE1F0
7C1FFFE0F0
7C3F8FE0F8
7C3F8FE0F8
783F0FC0F8
F87F0FC0F0
F87F0FC0F0
F87F1FC0F0
F87F1FC1F0
F87F1FC1E0
F87F3FC3E0
783FF7FFC0
7C3FE7FF80
7C1FC3FF00
7E0701FC00
3E00000000
3F00000000
1F80000000
0FE0180000
07FFF80000
03FFF80000
01FFF80000
003FE00000
ENDCHAR
STARTCHAR 0041
ENCODING 65
SWIDTH 606 0
DWIDTH 32 0
BBX 31 35 -2 0
BITMAP
0001FFF0
0003FFF0
0003FFF0
0003FFF0
0007FFF0
0007FFF0
000FFFF0
000FFFF0
001F7FF8
001F7FF8
003E7FF8
003E7FF8
003C7FF8
007C7FF8
007C7FF8
00F87FF8
00F87FF8
01F07FFC
01F03FFC
03E03FFC
03E03FFC
03E03FFC
07FFFFFC
07FFFFFC
0FFFFFFC
0FFFFFFC
1F003FFC
1F003FFE
3E003FFE
3E003FFE
3E001FFE
7C001FFE
7C001FFE
F8001FFE
F8001FFE
ENDCHAR
STARTCHAR 0042
ENCODING 66
SWIDTH 625 0
DWIDTH 33 0
BBX 32 35 0 0
BITMAP
01FFFFC0
01FFFFF8
01FFFFFC
03FFFFFE
03FFC7FF
03FFC3FF
03FF83FF
03FF83FF
07FF83FF
07FF83FF
07FF83FF
07FF03FF
07FF07FE
0FFF07FE
0FFF0FFC
0FFFFFF0
0FFFFFE0
0FFFFFF0
1FFFFFF8
1FFE1FFC
1FFC0FFE
1FFC0FFE
1FFC0FFE
3FFC0FFE
3FFC0FFE
3FF80FFE
3FF81FFE
3FF81FFE
7FF83FFC
7FF83FFC
7FF07FF8
7FFFFFF0
7FFFFFC0
FFFFFF00
FFFFF800
ENDCHAR
STARTCHAR 0043
ENCODING 67
SWIDTH 644 0
DWIDTH 34 0
BBX 33 36 2 0
BITMAP
0000080000
0007FFE000
001FFFFC00
007FFFFF00
01FFE7FF80
03FF83FF80
07FF03FF80
0FFF03FF00
0FFE03FF00
1FFE03FF00
3FFC03FF00
3FFC03FF00
3FFC03FE00
7FFC03FE00
7FF8000000
7FF8000000
FFF8000000
FFF8000000
FFF0000000
FFF0000000
FFF0000000
FFF0000000
FFF0000000
FFF00FFC00
FFF00FFC00
FFF01FF800
FFF01FF800
FFF01FF800
7FF03FF800
7FF03FF800
3FF07FF000
3FF8FFF000
1FFFFFF000
07FFFFC000
03FFFF0000
003FF00000
ENDCHAR
STARTCHAR 0044
ENCODING 68
SWIDTH 663 0
DWIDTH 35 0
BBX 35 35 0 0
BITMAP
01FFFFC000
01FFFFF800
01FFFFFE00
03FFFFFF00
03FFC1FF00
03FFC1FF80
03FF81FF80
03FF81FFC0
07FF81FFC0
07FF81FFC0
07FF81FFC0
07FF01FFC0
07FF01FFC0
0FFF01FFE0
0FFF01FFC0
0FFF01FFC0
0FFE03FFC0
0FFE03FFC0
1FFE03FFC0
1FFE03FFC0
1FFC03FFC0
1FFC07FF80
1FFC07FF80
3FFC07FF80
3FFC0FFF00
3FF80FFF00
3FF80FFE00
3FF81FFE00
7FF81FFC00
7FF83FF800
7FF07FF000
7FFFFFE000
7FFFFF8000
FFFFFF0000
FFFFF00000
ENDCHAR
STARTCHAR 0045
ENCODING 69
SWIDTH 511 0
DWIDTH 27 0
BBX 29 35 0 0
BITMAP
01FFFFF8
01FFFFF8
01FFFFF8
03FFFFF8
03FFC000
03FF8000
03FF8000
03FF8000
07FF8000
07FF8000
07FF8000
07FF0000
07FF0000
0FFF0000
0FFF0000
0FFFFF80
0FFFFF00
0FFFFF00
1FFFFF00
1FFE0000
1FFC0000
1FFC0000
1FFC0000
3FFC0000
3FFC0000
3FF80000
3FF80000
3FF80000
7FF80000
7FF80000
7FF00000
7FFFFE00
7FFFFE00
FFFFFE00
FFFFFC00
ENDCHAR
STARTCHAR 0046
ENCODING 70
SWIDTH 492 0
DWIDTH 26 0
BBX 29 35 0 0
BITMAP
01FFFFF8
01FFFFF8
01FFFFF8
03FFFFF8
03FFC000
03FF8000
03FF8000
03FF8000
07FF8000
07FF8000
07FF8000
07FF0000
07FF0000
0FFF0000
0FFF0000
0FFFFF80
0FFFFF00
0FFFFF00
1FFFFF00
1FFE0000
1FFC0000
1FFC0000
1FFC0000
3FFC0000
3FFC0000
3FF80000
3FF80000
3FF80000
7FF80000
7FF80000
7FF00000
7FF00000
7FF00000
FFF00000
FFF00000
ENDCHAR
STARTCHAR 0047
ENCODING 71
SWIDTH 644 0
DWIDTH 34 0
BBX 33 36 2 0
BITMAP
0000080000
0007FFE000
001FFFFC00
007FFFFF80
01FFE7FF00
03FF83FF00
07FF03FF00
0FFF03FF00
0FFE03FF00
1FFE03FE00
3FFE03FE00
3FFC03FE00
7FFC03FE00
7FFC03FE00
7FF8000000
7FF8000000
FFF8000000
FFF8000000
FFF8000000
FFF0000000
FFF07FFE00
FFF0FFFC00
FFF0FFFC00
FFF0FFFC00
FFF00FFC00
FFF00FFC00
FFF00FF800
7FF01FF800
7FF01FF800
7FF01FF800
3FF03FF800
1FF87FF000
1FFFFFF000
0FFFE7F000
03FFC7F000
00FE07F000
ENDCHAR
STARTCHAR 0048
ENCODING 72
SWIDTH 663 0
DWIDTH 35 0
BBX 37 35 0 0
BITMAP
01FFE07FF8
01FFC07FF0
01FFC07FF0
03FFC0FFF0
03FFC0FFF0
03FFC0FFF0
03FF80FFE0
03FF80FFE0
07FF81FFE0
07FF81FFE0
07FF81FFE0
07FF01FFC0
07FF01FFC0
0FFF01FFC0
0FFF03FFC0
0FFF03FF80
0FFFFFFF80
0FFFFFFF80
1FFFFFFF80
1FFFFFFF80
1FFE07FF00
1FFC07FF00
1FFC07FF00
3FFC0FFF00
3FFC0FFF00
3FF80FFE00
3FF80FFE00
3FF80FFE00
7FF81FFE00
7FF81FFE00
7FF01FFC00
7FF01FFC00
7FF03FFC00
FFF03FFC00
FFF03FFC00
ENDCHAR
STARTCHAR 0049
ENCODING 73
SWIDTH 322 0
DWIDTH 17 0
BBX 19 35 0 0
BITMAP
01FFE0
01FFC0
01FFC0
03FFC0
03FFC0
03FFC0
03FF80
03FF80
07FF80
07FF80
07FF80
07FF00
07FF00
0FFF00
0FFF00
0FFE00
0FFE00
0FFE00
1FFE00
1FFE00
1FFC00
1FFC00
1FFC00
3FFC00
3FFC00
3FF800
3FF800
3FF800
7FF800
7FF800
7FF000
7FF000
7FF000
FFF000
FFF000
ENDCHAR
STARTCHAR 004A
ENCODING 74
SWIDTH 587 0
DWIDTH 31 0
BBX 34 35 -1 0
BITMAP
000003FFC0
000003FFC0
000003FF80
000003FF80
000007FF80
000007FF80
000007FF80
000007FF00
000007FF00
00000FFF00
00000FFF00
00000FFE00
00000FFE00
00000FFE00
00001FFE00
00001FFE00
00001FFC00
00001FFC00
00001FFC00
00003FFC00
00003FFC00
00003FF800
3FF03FF800
7FE07FF800
7FE07FF800
7FE07FF800
7FE07FF000
7FE07FF000
FFE0FFE000
FFE0FFE000
7FF1FFC000
3FFFFF8000
1FFFFF0000
07FFFC0000
00FFC00000
ENDCHAR
STARTCHAR 004B
ENCODING 75
SWIDTH 606 0
DWIDTH 32 0
BBX 35 35 0 0
BITMAP
01FFE00FE0
01FFC01F80
01FFC03F00
03FFC03F00
03FFC07E00
03FFC0FC00
03FF81F800
03FF83F000
07FF87E000
07FF87C000
07FF8F8000
07FF1F8000
07FF3F0000
0FFF7E0000
0FFFFE0000
0FFFFE0000
0FFFFF0000
0FFFFF0000
1FFFFF8000
1FFFFF8000
1FFDFF8000
1FFDFFC000
1FFDFFC000
3FFCFFC000
3FFCFFE000
3FF8FFE000
3FF87FF000
3FF87FF000
7FF87FF000
7FF83FF800
7FF03FF800
7FF03FF800
7FF03FFC00
FFF01FFC00
FFF01FFE00
ENDCHAR
STARTCHAR 004C
ENCODING 76
SWIDTH 492 0
DWIDTH 26 0
BBX 23 35 0 0
BITMAP
01FFE0
01FFC0
01FFC0
03FFC0
03FFC0
03FFC0
03FF80
03FF80
07FF80
07FF80
07FF00
07FF00
07FF00
0FFF00
0FFF00
0FFE00
0FFE00
0FFE00
1FFE00
1FFE00
1FFC00
1FFC00
1FFC00
3FFC00
3FFC00
3FF800
3FF800
3FF800
7FF800
7FF800
7FFFFE
7FFFFE
7FFFFE
FFFFFE
FFFFFC
ENDCHAR
STARTCHAR 004D
ENCODING 77
SWIDTH 852 0
DWIDTH 45 0
BBX 46 35 0 0
BITMAP
01FFF800FFFC
01FFF800FFFC
01FFF801FFFC
03FFF801FFF8
03FFF803FFF8
03FFF803FFF8
03FFF807FFF8
03FFF807FFF8
07FFF80FFFF0
07FFF80FFFF0
07FFFC1FFFF0
07FFFC1FFFF0
07BFFC3EFFF0
0FBFFC3EFFE0
0FBFFC7DFFE0
0FBFFC7DFFE0
0FBFFCF9FFE0
0F1FFCF9FFE0
1F1FFDF1FFC0
1F1FFDF3FFC0
1F1FFFE3FFC0
1F1FFFE3FFC0
1E1FFFC3FF80
3E1FFFC3FF80
3E1FFF87FF80
3E1FFF87FF80
3E1FFF07FF80
3C0FFE07FF00
7C0FFE0FFF00
7C0FFC0FFF00
7C0FFC0FFF00
7C0FF80FFF00
780FF80FFE00
F80FF01FFE00
F80FF01FFE00
ENDCHAR
STARTCHAR 004E
ENCODING 78
SWIDTH 644 0
DWIDTH 34 0
BBX 36 35 0 0
BITMAP
01FFF001F0
01FFF003E0
01FFF003E0
03FFF803E0
03FFF803E0
03FFF807C0
03FFF807C0
03FFF807C0
07FFFC07C0
07FFFC07C0
07FFFC0F80
07FFFC0F80
079FFE0F80
0F9FFE0F80
0F9FFE0F80
0F9FFE1F00
0F9FFE1F00
0F0FFF1F00
1F0FFF1F00
1F0FFF1E00
1F0FFF3E00
1F07FF3E00
1E07FFBE00
3E07FFBE00
3E07FFBC00
3E03FFFC00
3E03FFFC00
3C03FFFC00
7C03FFFC00
7C01FFF800
7C01FFF800
7C01FFF800
7801FFF800
F801FFF800
F800FFF000
ENDCHAR
STARTCHAR 004F
ENCODING 79
SWIDTH 682 0
DWIDTH 36 0
BBX 34 36 2 0
BITMAP
0000100000
0007FFE000
003FFFF800
00FFFFFC00
01FFE7FE00
03FFC3FF00
07FF83FF00
0FFF03FF80
1FFE03FF80
1FFE03FF80
3FFE03FFC0
3FFC03FFC0
7FFC03FFC0
7FFC03FFC0
7FF803FFC0
7FF803FFC0
FFF803FFC0
FFF807FFC0
FFF007FFC0
FFF007FF80
FFF007FF80
FFF00FFF80
FFF00FFF80
FFF00FFF00
FFE00FFF00
FFE01FFE00
FFE01FFE00
FFE03FFC00
7FE03FFC00
7FF07FF800
7FF07FF000
3FF0FFF000
1FFFFFC000
0FFFFF8000
03FFFE0000
00FFF00000
ENDCHAR
STARTCHAR 0050
ENCODING 80
SWIDTH 606 0
DWIDTH 32 0
BBX 33 35 0 0
BITMAP
01FFFFC000
01FFFFF800
01FFFFFC00
03FFFFFE00
03FFC3FF00
03FFC1FF00
03FF81FF80
03FF81FF80
07FF81FF80
07FF81FF80
07FF81FF80
07FF03FF80
07FF03FF80
0FFF03FF80
0FFF03FF00
0FFF07FF00
0FFE07FF00
0FFE0FFE00
1FFE0FFC00
1FFE1FF800
1FFFFFF000
1FFFFFE000
1FFFFF8000
3FFFF00000
3FFC000000
3FF8000000
3FF8000000
3FF8000000
7FF8000000
7FF8000000
7FF0000000
7FF0000000
7FF0000000
FFF0000000
FFF0000000
ENDCHAR
STARTCHAR 0051
ENCODING 81
SWIDTH 682 0
DWIDTH 36 0
BBX 34 45 2 -9
BITMAP
0000100000
0007FFE000
003FFFF800
00FFFFFC00
01FFE7FE00
03FFC3FF00
07FF83FF00
0FFF03FF80
1FFE03FF80
1FFE03FF80
3FFE03FFC0
3FFC03FFC0
7FFC03FFC0
7FFC03FFC0
7FF803FFC0
7FF803FFC0
FFF803FFC0
FFF807FFC0
FFF007FFC0
FFF007FF80
FFF007FF80
FFF00FFF80
FFF00FFF80
FFF00FFF00
FFE00FFF00
FFE01FFE00
FFE01FFE00
FFE03FFC00
7FE03FFC00
7FF07FF800
7FF07FF000
3FF0FFF000
1FFFFFC000
0FFFFF8000
03FFFE0000
007FF00000
001FF80000
000FFC0000
000FFF8000
0007FFE000
0007FF8000
0003FF0000
0001FC0000
0000F80000
0000700000
ENDCHAR
STARTCHAR 0052
ENCODING 82
SWIDTH 644 0
DWIDTH 34 0
BBX 33 35 0 0
BITMAP
01FFFFE000
01FFFFF800
01FFFFFE00
03FFFFFF00
03FFC3FF00
03FFC1FF80
03FF81FF80
03FF81FF80
07FF81FF80
07FF81FF80
07FF03FF80
07FF03FF80
07FF03FF00
0FFF07FF00
0FFF07FE00
0FFE0FFC00
0FFFFFF800
0FFFFFF000
1FFFFFC000
1FFFFFC000
1FFDFFC000
1FFCFFE000
1FFCFFE000
3FFCFFE000
3FFC7FF000
3FF87FF000
3FF87FF000
3FF83FF800
7FF83FF800
7FF83FFC00
7FF03FFC00
7FF01FFC00
7FF01FFE00
FFF01FFE00
FFF00FFF00
ENDCHAR
STARTCHAR 0053
ENCODING 83
SWIDTH 587 0
DWIDTH 31 0
BBX 32 36 0 0
BITMAP
00000400
0003FFF0
001FFFFC
007FFFFF
00FFFFFE
01FF0FFE
03FE07FE
07FC07FE
0FFC07FC
0FFC07FC
0FFC07FC
1FFC07FC
1FFF0000
1FFFC000
0FFFFC00
0FFFFF80
0FFFFFC0
07FFFFF0
07FFFFF0
03FFFFF8
00FFFFF8
003FFFF8
0007FFFC
0000FFFC
00007FFC
00003FF8
7FE03FF8
7FE03FF8
7FE03FF8
FFE03FF0
FFE07FF0
FFF0FFE0
FFFFFFC0
FFFFFF00
3FFFFC00
03FFC000
ENDCHAR
STARTCHAR 0054
ENCODING 84
SWIDTH 549 0
DWIDTH 29 0
BBX 29 35 4 0
BITMAP
7FFFFFF8
FFFFFFF8
FFFFFFF8
FFFFFFF0
00FFF000
00FFE000
00FFE000
00FFE000
01FFE000
01FFE000
01FFC000
01FFC000
03FFC000
03FFC000
03FFC000
03FF8000
03FF8000
07FF8000
07FF8000
07FF8000
07FF0000
07FF0000
0FFF0000
0FFF0000
0FFF0000
0FFE0000
0FFE0000
1FFE0000
1FFE0000
1FFE0000
1FFC0000
1FFC0000
3FFC0000
3FFC0000
3FFC0000
ENDCHAR
STARTCHAR 0055
ENCODING 85
SWIDTH 625 0
DWIDTH 33 0
BBX 33 35 2 0
BITMAP
07FF800F80
0FFF800F80
0FFF000F80
0FFF001F00
0FFF001F00
0FFF001F00
1FFE001F00
1FFE001E00
1FFE003E00
1FFE003E00
1FFE003E00
3FFC003E00
3FFC003C00
3FFC007C00
3FFC007C00
3FFC007C00
7FF8007C00
7FF8007800
7FF800F800
7FF800F800
7FF800F800
FFF000F800
FFF000F000
FFF001F000
FFF001F000
FFF001F000
FFF003E000
FFF003E000
FFF807C000
FFFC1FC000
7FFFFF8000
7FFFFF0000
3FFFFC0000
0FFFF00000
03FF800000
ENDCHAR
STARTCHAR 0056
ENCODING 86
SWIDTH 587 0
DWIDTH 31 0
BBX 31 35 4 0
BITMAP
FFF0007E
FFF8007C
FFF800F8
7FF800F8
7FF801F8
7FF801F0
7FF803F0
7FF803E0
7FF807E0
7FF807C0
7FF80FC0
7FF80F80
7FF81F80
7FF81F00
7FFC1F00
7FFC3F00
7FFC3E00
7FFC7E00
7FFC7C00
7FFCFC00
7FFCF800
3FFDF800
3FFDF000
3FFFF000
3FFFF000
3FFFE000
3FFFE000
3FFFC000
3FFFC000
3FFF8000
3FFF8000
3FFF0000
3FFF0000
3FFF0000
3FFE0000
ENDCHAR
STARTCHAR 0057
ENCODING 87
SWIDTH 947 0
DWIDTH 50 0
BBX 49 35 4 0
BITMAP
FFF801FF801F80
FFF803FF801F80
FFF803FF801F00
FFF803FFC03F00
FFF807FFC03E00
FFF807FFC03E00
7FF80FFFC07E00
7FF80FFFC07C00
7FF80FFFC0FC00
7FF81FFFC0FC00
7FF81FFFC0F800
7FF81FFFC1F800
7FFC3FFFC1F000
7FFC3FFFC1F000
7FFC7FFFC3F000
7FFC7FFFC3E000
7FFC7FFFC7E000
7FFCFDFFC7E000
7FFCFDFFC7C000
7FFCF9FFCFC000
7FFDF9FFCFC000
3FFDF9FFEF8000
3FFDF1FFFF8000
3FFFF1FFFF0000
3FFFE0FFFF0000
3FFFE0FFFF0000
3FFFE0FFFE0000
3FFFC0FFFE0000
3FFFC0FFFE0000
3FFF80FFFC0000
3FFF80FFFC0000
3FFF80FFF80000
3FFF00FFF80000
3FFF00FFF80000
3FFE00FFF00000
ENDCHAR
STARTCHAR 0058
ENCODING 88
SWIDTH 606 0
DWIDTH 32 0
BBX 37 35 -2 0
BITMAP
07FFC003F8
03FFE003F0
03FFE007E0
03FFE00FC0
01FFF01F80
01FFF01F80
00FFF83F00
00FFF87E00
00FFF87C00
007FFCFC00
007FFDF800
003FFFF000
003FFFE000
003FFFC000
001FFFC000
001FFF8000
000FFF8000
000FFF8000
000FFF8000
0007FFC000
000FFFC000
001FFFE000
003FFFE000
007FFFF000
007DFFF000
00FDFFF000
01F8FFF800
03F0FFF800
07E07FFC00
07E07FFC00
0FC07FFC00
1F803FFE00
3F003FFE00
7F001FFF00
FE001FFF00
ENDCHAR
STARTCHAR 0059
ENCODING 89
SWIDTH 568 0
DWIDTH 30 0
BBX 30 35 4 0
BITMAP
FFF800FC
7FF800F8
7FF801F8
7FFC03F0
7FFC03E0
3FFC07E0
3FFE07C0
3FFE0F80
3FFE0F80
3FFE1F00
1FFF3F00
1FFF3E00
1FFF7C00
1FFF7C00
0FFFF800
0FFFF800
0FFFF000
0FFFE000
07FFE000
07FFC000
07FF8000
07FF8000
07FF0000
07FF0000
07FF0000
0FFF0000
0FFF0000
0FFE0000
0FFE0000
0FFE0000
1FFE0000
1FFE0000
1FFC0000
1FFC0000
3FFC0000
ENDCHAR
STARTCHAR 005A
ENCODING 90
SWIDTH 549 0
DWIDTH 29 0
BBX 32 35 -1 0
BITMAP
03FFFFFF
07FFFFFF
07FFFFFF
07FFFFFF
00003FFE
00007FFE
0000FFFC
0000FFFC
0001FFF8
0003FFF0
0003FFF0
0007FFE0
000FFFC0
000FFFC0
001FFF80
003FFF00
003FFF00
007FFE00
00FFFC00
00FFFC00
01FFF800
03FFF800
03FFF000
07FFE000
0FFFE000
0FFFC000
1FFF8000
3FFF8000
3FFF0000
7FFE0000
7FFE0000
7FFFFFF0
FFFFFFF0
FFFFFFF0
FFFFFFE0
ENDCHAR
STARTCHAR 005B
ENCODING 91
SWIDTH 303 0
DWIDTH 16 0
BBX 21 43 -1 -4
BITMAP
007FF8
007FF0
007FF0
007FF0
00FFF0
00FC00
00FC00
00F800
01F800
01F800
01F800
01F800
01F000
03F000
03F000
03F000
03F000
03E000
07E000
07E000
07E000
07C000
07C000
0FC000
0FC000
0FC000
0F8000
0F8000
1F8000
1F8000
1F8000
1F0000
1F0000
3F0000
3F0000
3E0000
3E0000
7E0000
7FF800
7FF000
7FF000
7FF000
FFF000
ENDCHAR
STARTCHAR 005C
ENCODING 92
SWIDTH 606 0
DWIDTH 32 0
BBX 23 35 5 0
BITMAP
F80000
7C0000
7C0000
3E0000
3E0000
1F0000
1F0000
0F8000
0F8000
07C000
07C000
03E000
03E000
01F000
01F000
00F800
00FC00
007C00
007E00
003E00
003F00
001F00
000F80
000F80
0007C0
0007C0
0003E0
0003E0
0001F0
0001F0
0000F8
0000F8
00007C
00007E
00003E
ENDCHAR
STARTCHAR 005D
ENCODING 93
SWIDTH 303 0
DWIDTH 16 0
BBX 20 43 -2 -4
BITMAP
00FFF0
00FFF0
00FFE0
00FFE0
00FFE0
0007E0
0007C0
0007C0
000FC0
000FC0
000FC0
000F80
000F80
001F80
001F80
001F80
001F00
001F00
003F00
003F00
003F00
003E00
007E00
007E00
007E00
007E00
007C00
00FC00
00FC00
00FC00
00FC00
00F800
01F800
01F800
01F800
01F000
03F000
03F000
FFF000
FFF000
FFE000
FFE000
FFE000
ENDCHAR
STARTCHAR 005E
ENCODING 94
SWIDTH 435 0
DWIDTH 23 0
BBX 20 12 3 23
BITMAP
00FF00
01FF80
01FF80
03FF80
07E7C0
07C7C0
0F83C0
1F83E0
1F01E0
3E01F0
7C00F0
F800F0
ENDCHAR
STARTCHAR 005F
ENCODING 95
SWIDTH 568 0
DWIDTH 30 0
BBX 27 5 -2 -6
BITMAP
7FFFFFE0
7FFFFFC0
7FFFFFC0
7FFFFFC0
FFFFFFC0
ENDCHAR
STARTCHAR 0060
ENCODING 96
SWIDTH 303 0
DWIDTH 16 0
BBX 15 8 1 27
BITMAP
FFC0
3FE0
1FE0
07F0
03F8
01F8
00FC
003E
ENDCHAR
STARTCHAR 0061
ENCODING 97
SWIDTH 549 0
DWIDTH 29 0
BBX 28 24 -1 0
BITMAP
00008000
007FFF00
03FFFFC0
07FFFFE0
0FFC7FE0
0FF03FF0
0FF03FF0
0FF03FF0
00003FF0
00003FF0
03FFFFF0
0FFFFFF0
3FF87FF0
3FF07FF0
7FE0FFE0
7FE0FFE0
FFC0FFE0
FFC0FFE0
FFE1FFE0
7FFFFFC0
7FFFFFC0
7FFCFFC0
3FF8FFC0
0FC07F80
ENDCHAR
STARTCHAR 0062
ENCODING 98
SWIDTH 587 0
DWIDTH 31 0
BBX 31 37 -1 0
BITMAP
00FFE000
00FFE000
01FFC000
01FFC000
01FFC000
01FFC000
01FFC000
03FF8000
03FF8000
03FF8000
03FF8000
03FF8000
07FF0000
07FF0080
07FF1FF0
07FF7FF8
07FEFFFC
0FFFFFFC
0FFF1FFC
0FFE1FFE
0FFE0FFE
0FFC1FFE
1FFC1FFC
1FFC1FFC
1FFC1FFC
1FFC1FFC
1FF81FFC
3FF83FFC
3FF83FF8
3FF83FF8
3FF87FF8
3FFCFFF0
7FFFFFF0
7FEFFFE0
7FE7FFC0
7FC3FF80
FF807E00
ENDCHAR
STARTCHAR 0063
ENCODING 99
SWIDTH 530 0
DWIDTH 28 0
BBX 26 24 1 0
BITMAP
00010000
007FFE00
03FFFF80
07FFFFC0
1FFE7FC0
3FF87FC0
3FF83F80
7FF03F80
7FF07F80
FFE07F80
FFE00000
FFE00000
FFE00000
FFC00000
FFC00000
FFC0FF00
FFC0FF00
FFC1FF00
FFC1FE00
7FE3FE00
3FFFFE00
1FFFFE00
07FFFC00
01FFC000
ENDCHAR
STARTCHAR 0064
ENCODING 100
SWIDTH 587 0
DWIDTH 31 0
BBX 33 37 0 0
BITMAP
000003FF80
000003FF80
000003FF00
000007FF00
000007FF00
000007FF00
000007FF00
000007FE00
00000FFE00
00000FFE00
00000FFE00
00000FFE00
00000FFC00
00081FFC00
01FF1FFC00
03FF9FFC00
07FFDFFC00
0FFFDFF800
1FFFFFF800
1FFC7FF800
3FF83FF800
3FF83FF800
7FF03FF000
7FF07FF000
7FF07FF000
7FF07FF000
7FE07FE000
FFE0FFE000
FFE0FFE000
FFE0FFE000
FFE0FFE000
FFE1FFC000
7FFFFFC000
7FFFFFC000
3FFEFFC000
3FF8FFC000
0FE07F8000
ENDCHAR
STARTCHAR 0065
ENCODING 101
SWIDTH 549 0
DWIDTH 29 0
BBX 27 24 1 0
BITMAP
00008000
007FFE00
03FFFF80
07FFFFC0
1FFE7FE0
3FF87FE0
3FF83FE0
7FF03FE0
7FF07FE0
FFE07FE0
FFFFFFE0
FFFFFFC0
FFFFFFC0
FFC00000
FFC00000
FFC00000
FFC0FF80
FFC0FF80
FFC1FF00
7FE3FF00
3FFFFF00
1FFFFF00
0FFFFC00
01FFC000
ENDCHAR
STARTCHAR 0066
ENCODING 102
SWIDTH 397 0
DWIDTH 21 0
BBX 27 37 2 0
BITMAP
0001FF80
000FFFE0
003FFFC0
007FFFC0
00FFFFC0
00FFE000
01FF8000
03FF8000
03FF8000
03FF0000
07FF0000
07FF0000
07FF0000
07FF0000
FFFFF800
FFFFF800
FFFFF800
FFFFF000
0FFC0000
1FFC0000
1FFC0000
1FFC0000
1FFC0000
1FF80000
3FF80000
3FF80000
3FF80000
3FF80000
3FF00000
7FF00000
7FF00000
7FF00000
7FF00000
FFE00000
FFE00000
FFE00000
FFE00000
ENDCHAR
STARTCHAR 0067
ENCODING 103
SWIDTH 587 0
DWIDTH 31 0
BBX 30 33 0 -9
BITMAP
00080000
00FF87FC
03FFC7FC
07FFCFFC
0FFFFFF8
1FFFFFF8
1FFC7FF8
3FF83FF8
3FF83FF8
3FF03FF0
7FF07FF0
7FF07FF0
7FF07FF0
7FE07FF0
7FE07FE0
FFE0FFE0
FFE0FFE0
7FE1FFE0
7FF3FFE0
7FFFFFC0
7FFFFFC0
3FFDFFC0
1FF9FFC0
0FC1FF80
0001FF80
0003FF80
0003FF00
0007FE00
000FFE00
3FFFFC00
7FFFF000
7FFFC000
7FFE0000
ENDCHAR
STARTCHAR 0068
ENCODING 104
SWIDTH 587 0
DWIDTH 31 0
BBX 31 37 -1 0
BITMAP
00FFE000
00FFE000
01FFC000
01FFC000
01FFC000
01FFC000
01FFC000
03FF8000
03FF8000
03FF8000
03FF8000
03FF8000
07FF0000
07FF0080
07FF0FF0
07FF3FF8
07FFFFFC
0FFFFFFC
0FFF1FFE
0FFE0FFE
0FFE1FFC
0FFC1FFC
1FFC1FFC
1FFC1FFC
1FFC1FFC
1FFC1FF8
1FF83FF8
3FF83FF8
3FF83FF8
3FF83FF8
3FF83FF0
3FF07FF0
7FF07FF0
7FF07FF0
7FF07FF0
7FF0FFE0
FFE0FFE0
ENDCHAR
STARTCHAR 0069
ENCODING 105
SWIDTH 303 0
DWIDTH 16 0
BBX 18 35 -1 0
BITMAP
003E00
00FF80
01FF80
01FF80
01FFC0
01FF80
01FF80
00FF00
007C00
000000
000000
000000
07FF00
07FF00
07FF00
07FE00
0FFE00
0FFE00
0FFE00
0FFE00
0FFC00
1FFC00
1FFC00
1FFC00
1FF800
3FF800
3FF800
3FF800
3FF800
3FF000
7FF000
7FF000
7FF000
7FF000
FFE000
ENDCHAR
STARTCHAR 006A
ENCODING 106
SWIDTH 303 0
DWIDTH 16 0
BBX 22 44 -6 -9
BITMAP
0001F0
0007FC
000FFC
000FFC
000FFC
000FFC
000FFC
000FF8
0003E0
000000
000000
000000
003FF8
003FF8
003FF8
003FF0
007FF0
007FF0
007FF0
007FF0
007FE0
00FFE0
00FFE0
00FFE0
00FFE0
01FFC0
01FFC0
01FFC0
01FFC0
01FF80
03FF80
03FF80
03FF80
03FF80
03FF00
07FF00
07FF00
07FE00
0FFE00
0FFC00
7FF800
7FF000
7FC000
FE0000
ENDCHAR
STARTCHAR 006B
ENCODING 107
SWIDTH 606 0
DWIDTH 32 0
BBX 33 37 -1 0
BITMAP
00FFE00000
00FFE00000
01FFC00000
01FFC00000
01FFC00000
01FFC00000
01FFC00000
03FF800000
03FF800000
03FF800000
03FF800000
03FF800000
07FF000000
07FF000000
07FF003F80
07FF007F00
07FF01FC00
0FFE03F800
0FFE07F000
0FFE0FE000
0FFE3FC000
0FFE7F8000
1FFCFE0000
1FFDFE0000
1FFFFF0000
1FFFFF0000
1FFFFF8000
3FFBFF8000
3FF9FFC000
3FF9FFE000
3FF8FFE000
3FF0FFF000
7FF07FF000
7FF07FF800
7FF03FF800
7FF03FFC00
FFE01FFE00
ENDCHAR
STARTCHAR 006C
ENCODING 108
SWIDTH 303 0
DWIDTH 16 0
BBX 19 37 -1 0
BITMAP
00FFE0
00FFE0
01FFC0
01FFC0
01FFC0
01FFC0
01FFC0
03FF80
03FF80
03FF80
03FF80
03FF80
07FF00
07FF00
07FF00
07FF00
07FE00
0FFE00
0FFE00
0FFE00
0FFE00
0FFC00
1FFC00
1FFC00
1FFC00
1FFC00
1FF800
3FF800
3FF800
3FF800
3FF800
3FF000
7FF000
7FF000
7FF000
7FF000
FFE000
ENDCHAR
STARTCHAR 006D
ENCODING 109
SWIDTH 871 0
DWIDTH 46 0
BBX 45 24 -1 0
BITMAP
000000800200
07FC0FF01FE0
07FC3FF87FF0
07FEFFF9FFF8
07FFFFFFFFF8
0FFFFFFFFFF8
0FFF1FFE3FF8
0FFE0FFC3FF8
0FFE1FF83FF8
0FFC1FF83FF8
1FFC1FF83FF0
1FFC1FF83FF0
1FFC1FF87FF0
1FFC3FF07FF0
3FF83FF07FF0
3FF83FF07FE0
3FF83FF07FE0
3FF83FE0FFE0
3FF07FE0FFE0
7FF07FE0FFE0
7FF07FE0FFC0
7FF07FE0FFC0
7FF07FC1FFC0
FFE0FFC1FFC0
ENDCHAR
STARTCHAR 006E
ENCODING 110
SWIDTH 587 0
DWIDTH 31 0
BBX 31 24 -1 0
BITMAP
00000080
07FC0FF0
07FC3FF8
07FEFFFC
07FFFFFC
0FFFFFFE
0FFF1FFE
0FFE0FFC
0FFE1FFC
0FFC1FFC
1FFC1FFC
1FFC1FFC
1FFC1FF8
1FFC3FF8
3FF83FF8
3FF83FF8
3FF83FF8
3FF83FF0
3FF07FF0
7FF07FF0
7FF07FF0
7FF07FF0
7FF07FE0
FFE0FFE0
ENDCHAR
STARTCHAR 006F
ENCODING 111
SWIDTH 568 0
DWIDTH 30 0
BBX 28 24 1 0
BITMAP
00010000
00FFFE00
03FFFF80
0FFFFFC0
1FFEFFC0
3FF87FE0
3FF87FE0
7FF07FF0
7FF07FF0
FFE07FF0
FFE07FF0
FFE07FF0
FFE07FF0
FFE0FFF0
FFC0FFE0
FFC0FFE0
FFC0FFE0
FFC1FFC0
FFC1FFC0
7FE3FF80
3FFFFF00
1FFFFC00
0FFFF800
01FF8000
ENDCHAR
STARTCHAR 0070
ENCODING 112
SWIDTH 587 0
DWIDTH 31 0
BBX 32 33 -2 -9
BITMAP
00000040
03FE0FF8
03FE3FFC
03FF7FFE
07FFFFFE
07FFFFFE
07FF8FFE
07FF0FFF
07FE0FFE
0FFE0FFE
0FFE0FFE
0FFE0FFE
0FFE0FFE
0FFC0FFE
1FFC1FFE
1FFC1FFC
1FFC1FFC
1FFC3FFC
1FFE7FF8
3FFFFFF8
3FFBFFF0
3FFBFFE0
3FF8FFC0
3FF03F00
7FF00000
7FF00000
7FF00000
7FF00000
FFE00000
FFE00000
FFE00000
FFE00000
FFC00000
ENDCHAR
STARTCHAR 0071
ENCODING 113
SWIDTH 587 0
DWIDTH 31 0
BBX 30 33 0 -9
BITMAP
00080000
01FF87FC
03FFCFFC
07FFCFFC
0FFFFFF8
1FFFFFF8
1FFC7FF8
3FF83FF8
3FF83FF8
7FF03FF0
7FF07FF0
7FF07FF0
7FF07FF0
7FE07FF0
FFE0FFE0
FFE0FFE0
FFE0FFE0
FFE1FFE0
FFF3FFC0
7FFFFFC0
7FFFFFC0
3FFDFFC0
3FF9FFC0
0FC1FF80
0003FF80
0003FF80
0003FF80
0003FF80
0007FF00
0007FF00
0007FF00
0007FF00
0007FF00
ENDCHAR
STARTCHAR 0072
ENCODING 114
SWIDTH 492 0
DWIDTH 26 0
BBX 27 24 -1 0
BITMAP
00000100
07FC1FE0
07FC7FE0
07FCFFE0
07FFFFE0
0FFFFFC0
0FFFFFC0
0FFE3FC0
0FFE1FC0
0FFC1FC0
1FFC1F80
1FFC1F80
1FFC1F80
1FFC0000
3FF80000
3FF80000
3FF80000
3FF80000
3FF00000
7FF00000
7FF00000
7FF00000
7FF00000
FFE00000
ENDCHAR
STARTCHAR 0073
ENCODING 115
SWIDTH 492 0
DWIDTH 26 0
BBX 25 24 -1 0
BITMAP
00010000
007FFE00
03FFFF80
07FFFF80
0FFE7F80
1FF87F80
1FF87F00
1FF87F00
1FFC0000
1FFF0000
1FFFF000
1FFFFC00
0FFFFE00
07FFFF00
00FFFF00
001FFF80
0007FF80
7F03FF00
7F03FF00
7F87FF00
FFFFFE00
FFFFFC00
7FFFF000
07FF8000
ENDCHAR
STARTCHAR 0074
ENCODING 116
SWIDTH 397 0
DWIDTH 21 0
BBX 20 31 2 0
BITMAP
001F80
003F80
003F00
007F00
00FF00
03FF00
0FFF00
3FFF00
FFFFF0
FFFFE0
FFFFE0
FFFFE0
0FFC00
1FFC00
1FFC00
1FFC00
1FFC00
1FF800
3FF800
3FF800
3FF800
3FF800
7FF000
7FF000
7FF000
7FF000
7FF000
7FFF00
3FFE00
1FFE00
0FFE00
ENDCHAR
STARTCHAR 0075
ENCODING 117
SWIDTH 587 0
DWIDTH 31 0
BBX 30 23 1 0
BITMAP
1FFC1FFC
1FFC3FF8
1FF83FF8
3FF83FF8
3FF83FF8
3FF83FF0
3FF07FF0
7FF07FF0
7FF07FF0
7FF07FF0
7FF07FE0
7FE0FFE0
FFE0FFE0
FFE0FFE0
FFE0FFE0
FFE1FFC0
FFE1FFC0
FFE3FFC0
FFFFFFC0
FFFFFF80
7FFDFF80
7FF0FF80
1FC0FF80
ENDCHAR
STARTCHAR 0076
ENCODING 118
SWIDTH 511 0
DWIDTH 27 0
BBX 27 23 2 0
BITMAP
FFE007E0
FFE00FC0
FFF00F80
7FF01F80
7FF01F00
7FF03F00
7FF03E00
7FF07E00
7FF07C00
7FF0FC00
3FF8F800
3FF9F800
3FF9F000
3FF9F000
3FFBE000
3FFBE000
1FFFC000
1FFFC000
1FFF8000
1FFF8000
1FFF0000
1FFE0000
0FFE0000
ENDCHAR
STARTCHAR 0077
ENCODING 119
SWIDTH 833 0
DWIDTH 44 0
BBX 43 23 2 0
BITMAP
FFE01FF807E0
FFE01FFC07E0
FFE03FFC07C0
FFE03FFC0FC0
FFF07FFC0F80
7FF07FFC1F80
7FF07FFC1F00
7FF0FFFC1F00
7FF0FFFC3E00
7FF1FFFE3E00
7FF1FFFE7C00
3FF1FFFE7C00
3FFBEFFE7C00
3FFBEFFEF800
3FFFCFFEF800
3FFFCFFFF000
3FFF87FFF000
3FFF87FFE000
1FFF07FFE000
1FFF07FFC000
1FFF07FFC000
1FFE07FF8000
1FFE03FF8000
ENDCHAR
STARTCHAR 0078
ENCODING 120
SWIDTH 511 0
DWIDTH 27 0
BBX 31 23 -3 0
BITMAP
07FF00FE
03FF81F8
03FF83F0
01FFC3E0
01FFC7E0
00FFEFC0
00FFFF80
007FFF00
007FFE00
003FFC00
003FF800
001FFC00
001FFC00
003FFE00
007FFE00
00FFFF00
01FFFF80
03F3FF80
07E3FFC0
0FC1FFC0
1F81FFE0
3F00FFE0
FE007FF0
ENDCHAR
STARTCHAR 0079
ENCODING 121
SWIDTH 511 0
DWIDTH 27 0
BBX 32 32 -3 -9
BITMAP
07FF003F
07FF007E
07FF807E
03FF80FC
03FF80F8
03FF81F8
03FF81F0
03FF83F0
03FF83E0
03FF87E0
01FF87C0
01FF8FC0
01FFCF80
01FFDF00
01FFDF00
01FFFE00
01FFFE00
00FFFC00
00FFFC00
00FFF800
00FFF800
00FFF000
00FFF000
00FFE000
00FFC000
00FFC000
00FF8000
01FF0000
FFFE0000
FFFC0000
FFF00000
FFC00000
ENDCHAR
STARTCHAR 007A
ENCODING 122
SWIDTH 473 0
DWIDTH 25 0
BBX 27 23 -2 0
BITMAP
07FFFFE0
07FFFFE0
07FFFFE0
0FFFFFE0
0003FFC0
0003FF80
0007FF00
000FFE00
001FFC00
003FFC00
007FF800
00FFF000
01FFE000
03FFC000
07FF8000
0FFF0000
1FFE0000
3FFC0000
7FFC0000
7FFFFF80
7FFFFF00
7FFFFF00
FFFFFF00
ENDCHAR
STARTCHAR 007B
ENCODING 123
SWIDTH 322 0
DWIDTH 17 0
BBX 18 43 2 -4
BITMAP
000FC0
003FC0
007FC0
00FFC0
01FFC0
01F800
01F000
03F000
03F000
03F000
03E000
03E000
07E000
07E000
07E000
07C000
0FC000
0FC000
1FC000
FF8000
FF0000
FE0000
FE0000
FF0000
3F0000
3F0000
3F0000
3F0000
3F0000
3E0000
3E0000
7E0000
7E0000
7E0000
7C0000
7C0000
FC0000
FE0000
FFE000
FFC000
FFC000
7FC000
1FC000
ENDCHAR
STARTCHAR 007C
ENCODING 124
SWIDTH 227 0
DWIDTH 12 0
BBX 15 46 -2 -9
BITMAP
003E
007E
007E
007E
007E
007C
00FC
00FC
00FC
00FC
00F8
01F8
01F8
01F8
01F0
01F0
03F0
03F0
03F0
03E0
07E0
07E0
07E0
07E0
07C0
0FC0
0FC0
0FC0
0FC0
0F80
1F80
1F80
1F80
1F00
1F00
3F00
3F00
3F00
3E00
3E00
7E00
7E00
7E00
7C00
7C00
FC00
ENDCHAR
STARTCHAR 007D
ENCODING 125
SWIDTH 322 0
DWIDTH 17 0
BBX 18 43 -2 -4
BITMAP
00FE00
00FF80
00FFC0
00FFC0
01FFC0
000FC0
000FC0
000FC0
000F80
000F80
001F80
001F80
001F80
001F00
001F00
003F00
003F00
003F00
003F00
003F80
001FC0
001FC0
003FC0
007FC0
007F00
00FE00
00FC00
00F800
00F800
01F800
01F800
01F800
01F000
01F000
03F000
03F000
03F000
07E000
7FE000
FFC000
FFC000
FF0000
FC0000
ENDCHAR
STARTCHAR 007E
ENCODING 126
SWIDTH 454 0
DWIDTH 24 0
BBX 22 8 1 9
BITMAP
07C008
0FFC3C
1FFFF8
3FFFF8
7FFFF0
7FFFE0
F0FFC0
400F80
ENDCHAR
STARTCHAR 00A0
ENCODING 160
SWIDTH 189 0
DWIDTH 10 0
BBX 0 0 0 0
BITMAP
ENDCHAR
STARTCHAR 00A1
ENCODING 161
SWIDTH 303 0
DWIDTH 16 0
BBX 16 37 -2 -9
BITMAP
007C
00FF
01FF
03FF
03FF
03FF
03FF
01FE
00F8
0000
0000
03FC
03FC
03FC
03FC
07F8
07F8
07F8
07F8
0FF8
0FF8
0FF8
1FF8
1FF0
1FF0
1FF0
3FF0
3FF0
3FF0
3FF0
7FE0
7FE0
7FE0
7FE0
FFE0
FFE0
FFE0
ENDCHAR
STARTCHAR 00A2
ENCODING 162
SWIDTH 530 0
DWIDTH 28 0
BBX 27 36 2 0
BITMAP
0001F800
0001F800
0001F800
0001F000
0001F000
0007F000
007FFF00
01FFFFC0
07FFFFE0
0FFE7FC0
1FFC3FC0
3FF83FC0
3FF83FC0
7FF03FC0
7FF03F80
7FF03F80
FFE00000
FFE00000
FFE00000
FFE00000
FFE00000
FFE07F80
FFE07F00
7FE0FF00
7FE0FF00
3FE1FF00
3FE3FE00
1FFFFE00
07FFFE00
01FFF000
007E0000
007C0000
007C0000
00FC0000
00FC0000
00FC0000
ENDCHAR
STARTCHAR 00A3
ENCODING 163
SWIDTH 625 0
DWIDTH 33 0
BBX 30 36 2 0
BITMAP
00001000
0007FFE0
001FFFFC
007FFFF8
00FFFFF8
01FFFFF8
03FF8030
03FF0000
07FF0000
07FE0000
07FE0000
0FFE0000
0FFE0000
0FFE0000
0FFE0000
0FFE0000
7FFFF800
FFFFF000
FFFFF000
FFFFF000
07FE0000
03FC0000
03FC0000
03F80000
07F80000
07F00000
07E000F0
0FC000F0
0FFF83F0
1FFFFFF0
3FFFFFF0
7FFFFFE0
FFFFFFE0
7FFFFFC0
3007FF80
0000FE00
ENDCHAR
STARTCHAR 00A4
ENCODING 164
SWIDTH 606 0
DWIDTH 32 0
BBX 32 29 1 4
BITMAP
00800008
01C0001C
03C1FC3E
0FEFFF7F
0FFFFFFE
07FFFFFC
03FFFFF8
01FE0FF0
03F807F0
03F003F0
07E001F0
07C001F0
0FC001F0
0F8001F0
0F8001F0
0F8001F0
0F8003F0
0F8003E0
0F8007E0
0FC00FC0
0FE01FC0
0FF07F80
1FFFFFC0
3FFFFFE0
7FFFFFE0
FEFFFFF0
7C3F87C0
38000380
10000100
ENDCHAR
STARTCHAR 00A5
ENCODING 165
SWIDTH 625 0
DWIDTH 33 0
BBX 32 35 3 0
BITMAP
3FFE003F
1FFF003F
1FFF007E
1FFF007C
1FFF00FC
0FFF80F8
0FFF81F0
0FFF83F0
0FFF83E0
07FFC7E0
07FFC7C0
07FFCF80
07FFCF80
03FFFF00
03FFFF00
03FFFE00
03FFFC00
01FFFC00
3FFFFFC0
3FFFFFC0
3FFFFF80
7FFFFF80
01FFE000
01FFE000
01FFC000
01FFC000
FFFFFF00
FFFFFF00
FFFFFF00
FFFFFF00
03FF8000
07FF8000
07FF8000
07FF8000
07FF0000
ENDCHAR
STARTCHAR 00A6
ENCODING 166
SWIDTH 227 0
DWIDTH 12 0
BBX 15 45 -2 -9
BITMAP
003E
007E
007E
007E
007E
007C
00FC
00FC
00FC
00F8
00F8
01F8
01F8
01F8
01F0
03F0
03F0
03F0
03E0
0000
0000
0000
0000
0000
0000
0000
0FC0
0FC0
0F80
1F80
1F80
1F80
1F80
1F00
3F00
3F00
3F00
3F00
3E00
7E00
7E00
7E00
7C00
7C00
FC00
ENDCHAR
STARTCHAR 00A7
ENCODING 167
SWIDTH 549 0
DWIDTH 29 0
BBX 30 42 -1 -6
BITMAP
00000800
0003FFE0
000FFFF8
003FFFFC
007FF0F8
007FC030
00FFC000
00FFC000
00FFC000
01FFE000
01FFF800
00FFFE00
00FFFFC0
00FFFFE0
007FFFF0
007FFFF0
01FFFFF0
07FFFFF8
0FE07FF8
0FC01FF8
1FC007F8
1FC007F0
3FE007F0
3FF807F0
3FFE0FE0
3FFFFFC0
1FFFFF00
1FFFFC00
0FFFFC00
07FFFE00
01FFFE00
007FFE00
001FFF00
000FFF00
000FFE00
0007FE00
400FFE00
700FFC00
FFFFF800
FFFFF000
3FFFE000
07FF0000
ENDCHAR
STARTCHAR 00A8
ENCODING 168
SWIDTH 416 0
DWIDTH 22 0
BBX 20 8 1 27
BITMAP
1E03C0
7F07E0
7F0FF0
FF0FF0
FF0FF0
7F0FE0
7E0FE0
3C07C0
ENDCHAR
STARTCHAR 00A9
ENCODING 169
SWIDTH 757 0
DWIDTH 40 0
BBX 37 35 2 0
BITMAP
0000FF0000
000FFFF000
003FFFF800
007FFFFE00
01FE007F00
03F0001F80
07E00007C0
0F800003E0
0F007F01E0
1E03FFE1F0
3C0FFFF0F0
3C1FE7F0F0
783FC3F070
783FC3F078
787FC3E078
707F83E078
F07F800078
F07F800078
F07F800078
F07F000078
F07F07E070
707F0FC0F0
787F0FC0F0
783F9FC1E0
781FFFC1E0
3C0FFF83C0
3E01FC07C0
1F00000F80
1F80001F00
0FC0007E00
07F003FC00
03FFFFF000
00FFFFE000
003FFF8000
0007F80000
ENDCHAR
STARTCHAR 00AA
ENCODING 170
SWIDTH 397 0
DWIDTH 21 0
BBX 18 22 3 14
BITMAP
01FE00
07FF80
0FFFC0
0F8FC0
0F8FC0
000FC0
000FC0
03FFC0
0FFFC0
3F9FC0
3F1F80
3F1F80
3FFF80
3FFF80
3FDF80
1F1F00
000000
000000
000000
7FFF00
7FFE00
FFFE00
ENDCHAR
STARTCHAR 00AB
ENCODING 171
SWIDTH 587 0
DWIDTH 31 0
BBX 30 23 1 0
BITMAP
003F00FC
007E01F8
00FC03F0
01FC07F0
03F80FE0
07F01FC0
0FE03F80
1FC07F00
3FC0FF00
7F80FE00
7F01FC00
FE03F800
FE03FC00
7F01FC00
7F01FC00
3F80FE00
3F80FE00
1FC07F00
1FC07F00
0FE03F80
0FE01F80
07F01FC0
03F00FC0
ENDCHAR
STARTCHAR 00AC
ENCODING 172
SWIDTH 587 0
DWIDTH 31 0
BBX 28 13 1 1
BITMAP
7FFFFFF0
7FFFFFF0
7FFFFFE0
7FFFFFE0
FFFFFFE0
000007E0
000007C0
00000FC0
00000FC0
00000FC0
00000F80
00000F80
00001F80
ENDCHAR
STARTCHAR 00AD
ENCODING 173
SWIDTH 416 0
DWIDTH 22 0
BBX 17 5 2 9
BITMAP
7FFF80
FFFF80
FFFF80
FFFF80
FFFF00
ENDCHAR
STARTCHAR 00AE
ENCODING 174
SWIDTH 757 0
DWIDTH 40 0
BBX 37 35 2 0
BITMAP
0000FF0000
000FFFF000
003FFFF800
007FFFFE00
01FE007F00
03F0001F80
07E00007C0
0F800003E0
0F07FF81E0
1E07FFE1F0
3C0FFFE0F0
3C0FE7F0F0
780FE3F070
780FC3F078
781FC7E078
701FCFE078
F01FFFC078
F01FFF0078
F01FBF0078
F03FBF8078
F03FBF8070
703F9F80F0
783F9FC0F0
783F1FC1E0
787F0FE1E0
3C000003C0
3E000007C0
1F00000F80
1F80001F00
0FC0007E00
07F003FC00
03FFFFF000
00FFFFE000
003FFF8000
0007F80000
ENDCHAR
STARTCHAR 00AF
ENCODING 175
SWIDTH 435 0
DWIDTH 23 0
BBX 20 4 1 29
BITMAP
7FFFF0
7FFFF0
7FFFF0
FFFFE0
ENDCHAR
STARTCHAR 00B0
ENCODING 176
SWIDTH 341 0
DWIDTH 18 0
BBX 16 16 4 20
BITMAP
03E0
0FF8
1FFC
3FFE
7C3E
781E
700F
F00F
F00F
F00E
781E
783E
7FFC
3FF8
1FF0
0FE0
ENDCHAR
STARTCHAR 00B1
ENCODING 177
SWIDTH 492 0
DWIDTH 26 0
BBX 26 32 0 1
BITMAP
0003E000
0003E000
0007E000
0007E000
0007C000
0007C000
000FC000
000FC000
000FC000
0FFFFFC0
0FFFFF80
0FFFFF80
1FFFFF80
1FFFFF80
001F0000
001F0000
003F0000
003F0000
003F0000
003E0000
007E0000
007E0000
007E0000
00000000
00000000
00000000
00000000
7FFFFC00
7FFFFC00
FFFFFC00
FFFFFC00
FFFFF800
ENDCHAR
STARTCHAR 00B2
ENCODING 178
SWIDTH 284 0
DWIDTH 15 0
BBX 14 15 3 21
BITMAP
0100
0FF0
3FF8
3EFC
7CFC
7CFC
00FC
00F8
01F0
03E0
07C0
1FF8
FFF8
FFF8
FFF8
ENDCHAR
STARTCHAR 00B3
ENCODING 179
SWIDTH 284 0
DWIDTH 15 0
BBX 14 15 3 21
BITMAP
0080
1FF8
3FFC
3E7C
3C7C
407C
03F8
03E0
03F8
00F8
F8F8
F9F8
F9F8
FFF0
3F80
ENDCHAR
STARTCHAR 00B4
ENCODING 180
SWIDTH 322 0
DWIDTH 17 0
BBX 14 8 1 27
BITMAP
07FC
0FF8
0FE0
1FC0
1F80
3F00
7E00
FC00
ENDCHAR
STARTCHAR 00B5
ENCODING 181
SWIDTH 587 0
DWIDTH 31 0
BBX 33 32 -2 -9
BITMAP
03FF83FF80
03FF83FF80
03FF83FF80
03FF87FF00
03FF07FF00
07FF07FF00
07FF07FF00
07FF07FE00
07FF0FFE00
07FE0FFE00
0FFE0FFE00
0FFE0FFE00
0FFE0FFC00
0FFC1FFC00
1FFC1FFC00
1FFC1FFC00
1FFC1FFC00
1FFC3FF800
1FFFFFF800
3FFFFFF800
3FFFDFF800
3FFF9FF800
3FDF1FF000
3FC0000000
7FC0000000
7FC0000000
7FC0000000
7FC0000000
7FC0000000
FFC0000000
FFC0000000
FFC0000000
ENDCHAR
STARTCHAR 00B6
ENCODING 182
SWIDTH 625 0
DWIDTH 33 0
BBX 32 45 3 -9
BITMAP
0001FFFF
00FFFFFF
03FFFFFF
07FFFFFF
1FFFC1F0
1FFFC1F0
3FFFC1E0
7FFFC3E0
7FFFC3E0
7FFF83E0
FFFF83E0
FFFF83C0
FFFF87C0
FFFF87C0
FFFF07C0
FFFF07C0
7FFF0780
7FFF0F80
7FFF0F80
3FFE0F80
1FFE0F80
0FFE1F00
007E1F00
003E1F00
007C1F00
007C1E00
007C3E00
007C3E00
007C3E00
00F83E00
00F87C00
00F87C00
00F87C00
01F07C00
01F07C00
01F0F800
01F0F800
01F0F800
03E0F800
03E0F800
03E1F000
03E1F000
03E1F000
07C1F000
07C3F000
ENDCHAR
STARTCHAR 00B7
ENCODING 183
SWIDTH 265 0
DWIDTH 14 0
BBX 11 10 2 12
BITMAP
0F80
3FC0
7FE0
7FE0
FFE0
FFE0
7FE0
7FC0
7FC0
1F00
ENDCHAR
STARTCHAR 00B8
ENCODING 184
SWIDTH 246 0
DWIDTH 13 0
BBX 13 12 1 -12
BITMAP
3E00
3C00
3C00
3C00
7FF0
7FF0
79F8
01F8
01F0
63F0
FFE0
3F00
ENDCHAR
STARTCHAR 00B9
ENCODING 185
SWIDTH 189 0
DWIDTH 10 0
BBX 9 14 4 21
BITMAP
0F80
1F00
FF00
FF00
FF00
3E00
3E00
7E00
7E00
7E00
7C00
7C00
FC00
FC00
ENDCHAR
STARTCHAR 00BA
ENCODING 186
SWIDTH 397 0
DWIDTH 21 0
BBX 18 22 4 14
BITMAP
01FC00
07FF00
1FFF80
1F9F80
3F9F80
3F1FC0
7F1FC0
7F1FC0
7E1FC0
7E1F80
7E3F80
7E3F80
3F7F00
3FFE00
1FFC00
03E000
000000
000000
000000
FFFE00
FFFE00
FFFC00
ENDCHAR
STARTCHAR 00BB
ENCODING 187
SWIDTH 587 0
DWIDTH 31 0
BBX 31 23 -1 0
BITMAP
0FE03F80
07E01F80
07F01FC0
03F00FC0
03F80FE0
03F80FE0
01FC07F0
01FC07F0
00FE03F8
00FE03F8
007F01FC
007F81FE
00FF03FC
00FE03F8
01FC07F0
03F80FE0
07F01FC0
0FE03F80
1FC03F00
1F807E00
3F00FE00
7F01FC00
FE03F800
ENDCHAR
STARTCHAR 00BC
ENCODING 188
SWIDTH 644 0
DWIDTH 34 0
BBX 28 35 3 0
BITMAP
03C007E0
0FC007C0
3FC00FC0
3FC00F80
3F801F00
0F803F00
1F803E00
1F807C00
1F80FC00
1F00F800
1F01F800
3F01F000
3F03E000
3F07E000
0007C000
000FC000
001F8000
001F0000
003F0000
003E0000
007E0000
00FC07F0
00F80FF0
01F81FE0
03F01BE0
03F03FE0
07E077E0
07C0E7E0
0FC1C7C0
1F81FFF0
1F81FFF0
3F01FFC0
7E000FC0
7E000F80
FC000F80
ENDCHAR
STARTCHAR 00BD
ENCODING 189
SWIDTH 682 0
DWIDTH 36 0
BBX 30 35 3 0
BITMAP
03C007E0
0FC007C0
3FC00FC0
3FC00F80
3F801F00
0F803F00
1F803E00
1F807C00
1F80FC00
1F00F800
1F01F800
3F01F000
3F03E000
3F07E000
0007C000
000FC000
001F8000
001F0000
003F0000
003E0000
007E0000
00FC0FE0
00F83FF8
01F87CFC
03F07CFC
03F078FC
07E000FC
07C000F8
0FC001F0
1F8003E0
1F800780
3F003FF8
7E00FFF8
7E00FFF8
FC01FFF0
ENDCHAR
STARTCHAR 00BE
ENCODING 190
SWIDTH 720 0
DWIDTH 38 0
BBX 32 36 3 0
BITMAP
00400000
0FF8007E
1FFC007C
3E7E00F8
3E3E01F8
007C01F0
01F803F0
01F003E0
01F807C0
00FC0FC0
7CFC0F80
78FC1F80
7DF83F00
FFF03E00
3FC07E00
00007C00
0000FC00
0001F800
0001F000
0003F000
0007E000
0007C000
000FC07F
000F80FF
001F81FE
003F01BE
003E03BE
007E077E
007C0E7E
00FC1C7C
01F81FFF
01F01FFF
03F01FFC
07E000FC
07E000F8
0FC000F8
ENDCHAR
STARTCHAR 00BF
ENCODING 191
SWIDTH 530 0
DWIDTH 28 0
BBX 25 38 -1 -9
BITMAP
0003E000
0007F800
000FF800
001FF800
001FF800
001FF800
001FF800
000FF000
0007C000
00000000
00000000
00000000
001FE000
001FE000
001FE000
001FE000
003FE000
003FC000
01FFC000
07FFC000
0FFF0000
1FFE0000
3FF80000
7FF00000
7FF00000
FFE00000
FFC07F80
FFC07F80
FFC0FF00
FFC0FF00
FFC1FF00
FF81FF00
FFC3FF00
7FC7FE00
7FFFFE00
3FFFF800
0FFFF000
01FF8000
ENDCHAR
STARTCHAR 00C0
ENCODING 192
SWIDTH 606 0
DWIDTH 32 0
BBX 31 46 -2 0
BITMAP
003FE000
001FE000
000FF000
0007F800
0001FC00
0000FC00
00007E00
00003F00
00001F00
00000000
00000000
0001FFF0
0003FFF0
0003FFF0
0003FFF0
0007FFF0
0007FFF0
000FFFF0
000FFFF0
001F7FF8
001F7FF8
003E7FF8
003E7FF8
003C7FF8
007C7FF8
007C7FF8
00F87FF8
00F87FF8
01F07FFC
01F03FFC
03E03FFC
03E03FFC
03E03FFC
07FFFFFC
07FFFFFC
0FFFFFFC
0FFFFFFC
1F003FFC
1F003FFE
3E003FFE
3E003FFE
3E001FFE
7C001FFE
7C001FFE
F8001FFE
F8001FFE
ENDCHAR
STARTCHAR 00C1
ENCODING 193
SWIDTH 606 0
DWIDTH 32 0
BBX 33 46 -2 0
BITMAP
000000FF80
000001FF00
000003FC00
000003F800
000007F000
000007E000
00000FC000
00001F0000
00001E0000
0000000000
0000000000
0001FFF000
0003FFF000
0003FFF000
0003FFF000
0007FFF000
0007FFF000
000FFFF000
000FFFF000
001F7FF800
001F7FF800
003E7FF800
003E7FF800
003C7FF800
007C7FF800
007C7FF800
00F87FF800
00F87FF800
01F07FFC00
01F03FFC00
03E03FFC00
03E03FFC00
03E03FFC00
07FFFFFC00
07FFFFFC00
0FFFFFFC00
0FFFFFFC00
1F003FFC00
1F003FFE00
3E003FFE00
3E003FFE00
3E001FFE00
7C001FFE00
7C001FFE00
F8001FFE00
F8001FFE00
ENDCHAR
STARTCHAR 00C2
ENCODING 194
SWIDTH 606 0
DWIDTH 32 0
BBX 31 46 -2 0
BITMAP
00001FE0
00003FE0
00007FF0
0000FFF8
0001F8F8
0003F07C
0007E03C
000F803E
001F001E
00000000
00000000
0001FFF0
0003FFF0
0003FFF0
0003FFF0
0007FFF0
0007FFF0
000FFFF0
000FFFF0
001F7FF8
001F7FF8
003E7FF8
003E7FF8
003C7FF8
007C7FF8
007C7FF8
00F87FF8
00F87FF8
01F07FFC
01F03FFC
03E03FFC
03E03FFC
03E03FFC
07FFFFFC
07FFFFFC
0FFFFFFC
0FFFFFFC
1F003FFC
1F003FFE
3E003FFE
3E003FFE
3E001FFE
7C001FFE
7C001FFE
F8001FFE
F8001FFE
ENDCHAR
STARTCHAR 00C3
ENCODING 195
SWIDTH 606 0
DWIDTH 32 0
BBX 35 46 -2 0
BITMAP
00003E0080
0000FFC1E0
0001FFFFC0
0003FFFF80
0007FFFF80
00078FFF00
000303FE00
0002007C00
0000000000
0000000000
0000000000
0001FFF000
0003FFF000
0003FFF000
0003FFF000
0007FFF000
0007FFF000
000FFFF000
000FFFF000
001F7FF800
001F7FF800
003E7FF800
003E7FF800
003C7FF800
007C7FF800
007C7FF800
00F87FF800
00F87FF800
01F07FFC00
01F03FFC00
03E03FFC00
03E03FFC00
03E03FFC00
07FFFFFC00
07FFFFFC00
0FFFFFFC00
0FFFFFFC00
1F003FFC00
1F003FFE00
3E003FFE00
3E003FFE00
3E001FFE00
7C001FFE00
7C001FFE00
F8001FFE00
F8001FFE00
ENDCHAR
STARTCHAR 00C4
ENCODING 196
SWIDTH 606 0
DWIDTH 32 0
BBX 31 45 -2 0
BITMAP
0003C07C
0007E0FE
000FF0FE
000FF1FE
000FF1FE
000FF1FE
000FE0FC
0003C078
00000000
00000000
0001FFF0
0003FFF0
0003FFF0
0003FFF0
0007FFF0
0007FFF0
000FFFF0
000FFFF0
001F7FF8
001F7FF8
003E7FF8
003E7FF8
003C7FF8
007C7FF8
007C7FF8
00F87FF8
00F87FF8
01F07FFC
01F03FFC
03E03FFC
03E03FFC
03E03FFC
07FFFFFC
07FFFFFC
0FFFFFFC
0FFFFFFC
1F003FFC
1F003FFE
3E003FFE
3E003FFE
3E001FFE
7C001FFE
7C001FFE
F8001FFE
F8001FFE
ENDCHAR
STARTCHAR 00C5
ENCODING 197
SWIDTH 606 0
DWIDTH 32 0
BBX 31 46 -2 0
BITMAP
00000F00
00003FC0
00003FC0
000079E0
000070E0
000071C0
00007FC0
00003F80
00001F00
00000000
00000000
0001FFF0
0003FFF0
0003FFF0
0003FFF0
0007FFF0
0007FFF0
000FFFF0
000FFFF0
001F7FF8
001F7FF8
003E7FF8
003E7FF8
003C7FF8
007C7FF8
007C7FF8
00F87FF8
00F87FF8
01F07FFC
01F03FFC
03E03FFC
03E03FFC
03E03FFC
07FFFFFC
07FFFFFC
0FFFFFFC
0FFFFFFC
1F003FFC
1F003FFE
3E003FFE
3E003FFE
3E001FFE
7C001FFE
7C001FFE
F8001FFE
F8001FFE
ENDCHAR
STARTCHAR 00C6
ENCODING 198
SWIDTH 814 0
DWIDTH 43 0
BBX 49 35 -3 0
BITMAP
0000007FFFFF80
000000FFFFFF80
000001FFFFFF00
000003FFFFFF00
000003FFF80000
000007FFF80000
00000FFFF80000
00000F7FF80000
00001E7FF00000
00003E7FF00000
00007CFFF00000
000078FFF00000
0000F8FFF00000
0001F0FFE00000
0001E0FFE00000
0003E1FFFFF000
0007C1FFFFF000
000F81FFFFF000
000F81FFFFE000
001F01FFC00000
003FFFFFC00000
007FFFFFC00000
007FFFFF800000
00FFFFFF800000
01F003FF800000
01E007FF800000
03E007FF800000
07C007FF800000
0F8007FF000000
0F8007FF000000
1F000FFF000000
3E000FFFFFE000
3E000FFFFFC000
7C000FFFFFC000
F8001FFFFFC000
ENDCHAR
STARTCHAR 00C7
ENCODING 199
SWIDTH 644 0
DWIDTH 34 0
BBX 33 47 2 -11
BITMAP
0000080000
0007FFE000
001FFFFC00
007FFFFF00
00FFE7FF80
03FF83FF80
07FF03FF80
0FFF03FF00
0FFE03FF00
1FFE03FF00
3FFC03FF00
3FFC03FF00
3FFC03FE00
7FFC03FE00
7FF8000000
7FF8000000
FFF8000000
FFF8000000
FFF0000000
FFF0000000
FFF0000000
FFF0000000
FFF00FFC00
FFF00FFC00
FFF00FFC00
FFF01FF800
FFF01FF800
FFF01FF800
7FF03FF800
7FF03FF800
3FF07FF000
3FF8FFF000
1FFFFFF000
0FFFFFC000
03FFFF0000
007FF80000
000F000000
001E000000
001E000000
001FF80000
001FFC0000
003CFC0000
00007C0000
0000FC0000
0010F80000
003FF00000
001FE00000
ENDCHAR
STARTCHAR 00C8
ENCODING 200
SWIDTH 511 0
DWIDTH 27 0
BBX 29 46 0 0
BITMAP
01FF0000
00FF8000
007FC000
001FC000
000FE000
0007F000
0003F000
0000F800
00007C00
00000000
00000000
01FFFFF8
01FFFFF8
01FFFFF8
03FFFFF8
03FFC000
03FF8000
03FF8000
03FF8000
07FF8000
07FF8000
07FF8000
07FF0000
07FF0000
0FFF0000
0FFF0000
0FFFFF80
0FFFFF00
0FFFFF00
1FFFFF00
1FFE0000
1FFC0000
1FFC0000
1FFC0000
3FFC0000
3FFC0000
3FF80000
3FF80000
3FF80000
7FF80000
7FF80000
7FF00000
7FFFFE00
7FFFFE00
FFFFFE00
FFFFFC00
ENDCHAR
STARTCHAR 00C9
ENCODING 201
SWIDTH 511 0
DWIDTH 27 0
BBX 30 46 0 0
BITMAP
000007FC
00000FF8
00000FF0
00001FE0
00001F80
00003F00
00007E00
00007C00
0000F800
00000000
00000000
01FFFFF8
01FFFFF8
01FFFFF8
03FFFFF8
03FFC000
03FF8000
03FF8000
03FF8000
07FF8000
07FF8000
07FF8000
07FF0000
07FF0000
0FFF0000
0FFF0000
0FFFFF80
0FFFFF00
0FFFFF00
1FFFFF00
1FFE0000
1FFC0000
1FFC0000
1FFC0000
3FFC0000
3FFC0000
3FF80000
3FF80000
3FF80000
7FF80000
7FF80000
7FF00000
7FFFFE00
7FFFFE00
FFFFFE00
FFFFFC00
ENDCHAR
STARTCHAR 00CA
ENCODING 202
SWIDTH 511 0
DWIDTH 27 0
BBX 29 46 0 0
BITMAP
00007F80
0000FF80
0001FFC0
0003FFE0
0007E3E0
000FC1F0
001F80F0
003E00F8
007C0078
00000000
00000000
01FFFFF8
01FFFFF8
01FFFFF8
03FFFFF8
03FFC000
03FF8000
03FF8000
03FF8000
07FF8000
07FF8000
07FF8000
07FF0000
07FF0000
0FFF0000
0FFF0000
0FFFFF80
0FFFFF00
0FFFFF00
1FFFFF00
1FFE0000
1FFC0000
1FFC0000
1FFC0000
3FFC0000
3FFC0000
3FF80000
3FF80000
3FF80000
7FF80000
7FF80000
7FF00000
7FFFFE00
7FFFFE00
FFFFFE00
FFFFFC00
ENDCHAR
STARTCHAR 00CB
ENCODING 203
SWIDTH 511 0
DWIDTH 27 0
BBX 29 45 0 0
BITMAP
001F01E0
003F87F0
007F87F0
007F8FF0
007F8FF0
007F8FF0
003F07E0
001E03C0
00000000
00000000
01FFFFF8
01FFFFF8
01FFFFF8
03FFFFF8
03FFC000
03FF8000
03FF8000
03FF8000
07FF8000
07FF8000
07FF8000
07FF0000
07FF0000
0FFF0000
0FFF0000
0FFFFF80
0FFFFF00
0FFFFF00
1FFFFF00
1FFE0000
1FFC0000
1FFC0000
1FFC0000
3FFC0000
3FFC0000
3FF80000
3FF80000
3FF80000
7FF80000
7FF80000
7FF00000
7FFFFE00
7FFFFE00
FFFFFE00
FFFFFC00
ENDCHAR
STARTCHAR 00CC
ENCODING 204
SWIDTH 322 0
DWIDTH 17 0
BBX 19 46 0 0
BITMAP
7FC000
3FE000
1FF000
07F000
03F800
01FC00
00FC00
003E00
001F00
000000
000000
01FFE0
01FFC0
01FFC0
03FFC0
03FFC0
03FFC0
03FF80
03FF80
07FF80
07FF80
07FF80
07FF00
07FF00
0FFF00
0FFF00
0FFE00
0FFE00
0FFE00
1FFE00
1FFE00
1FFC00
1FFC00
1FFC00
3FFC00
3FFC00
3FF800
3FF800
3FF800
7FF800
7FF800
7FF000
7FF000
7FF000
FFF000
FFF000
ENDCHAR
STARTCHAR 00CD
ENCODING 205
SWIDTH 322 0
DWIDTH 17 0
BBX 24 46 0 0
BITMAP
0001FF
0003FE
0003FC
0007F8
0007E0
000FC0
001F80
001F00
003E00
000000
000000
01FFE0
01FFC0
01FFC0
03FFC0
03FFC0
03FFC0
03FF80
03FF80
07FF80
07FF80
07FF80
07FF00
07FF00
0FFF00
0FFF00
0FFE00
0FFE00
0FFE00
1FFE00
1FFE00
1FFC00
1FFC00
1FFC00
3FFC00
3FFC00
3FF800
3FF800
3FF800
7FF800
7FF800
7FF000
7FF000
7FF000
FFF000
FFF000
ENDCHAR
STARTCHAR 00CE
ENCODING 206
SWIDTH 322 0
DWIDTH 17 0
BBX 23 46 0 0
BITMAP
001FE0
003FE0
007FF0
00FFF8
01F8F8
03F07C
07E03C
0F803E
1F001E
000000
000000
01FFE0
01FFC0
01FFC0
03FFC0
03FFC0
03FFC0
03FF80
03FF80
07FF80
07FF80
07FF80
07FF00
07FF00
0FFF00
0FFF00
0FFE00
0FFE00
0FFE00
1FFE00
1FFE00
1FFC00
1FFC00
1FFC00
3FFC00
3FFC00
3FF800
3FF800
3FF800
7FF800
7FF800
7FF000
7FF000
7FF000
FFF000
FFF000
ENDCHAR
STARTCHAR 00CF
ENCODING 207
SWIDTH 322 0
DWIDTH 17 0
BBX 24 45 0 0
BITMAP
03E03C
07F0FE
07F0FE
0FF0FF
0FF1FF
0FF0FE
07E0FE
03C078
000000
000000
01FFE0
01FFC0
01FFC0
03FFC0
03FFC0
03FFC0
03FF80
03FF80
07FF80
07FF80
07FF80
07FF00
07FF00
0FFF00
0FFF00
0FFE00
0FFE00
0FFE00
1FFE00
1FFE00
1FFC00
1FFC00
1FFC00
3FFC00
3FFC00
3FF800
3FF800
3FF800
7FF800
7FF800
7FF000
7FF000
7FF000
FFF000
FFF000
ENDCHAR
STARTCHAR 00D0
ENCODING 208
SWIDTH 682 0
DWIDTH 36 0
BBX 35 35 0 0
BITMAP
00FFFFE000
01FFFFFC00
01FFFFFE00
01FFFFFF00
01FFC1FF80
01FFC0FFC0
03FFC0FFC0
03FFC0FFC0
03FFC0FFE0
03FF80FFE0
03FF80FFE0
07FF80FFE0
07FF80FFE0
07FF81FFE0
07FF01FFE0
7FFFF1FFE0
7FFFF1FFE0
7FFFF1FFE0
FFFFE1FFE0
0FFE03FFE0
1FFE03FFC0
1FFE03FFC0
1FFE03FFC0
1FFC07FF80
1FFC07FF80
3FFC07FF80
3FFC0FFF00
3FFC0FFE00
3FF81FFE00
3FF83FFC00
7FF87FF800
7FFFFFF000
7FFFFFC000
7FFFFF0000
7FFFF80000
ENDCHAR
STARTCHAR 00D1
ENCODING 209
SWIDTH 644 0
DWIDTH 34 0
BBX 36 46 0 0
BITMAP
00007E0080
0000FFC3C0
0001FFFFC0
0003FFFF80
0007FFFF00
000F0FFF00
000603FE00
0002007800
0000000000
0000000000
0000000000
01FFF001F0
01FFF003E0
01FFF003E0
03FFF803E0
03FFF803E0
03FFF807C0
03FFF807C0
03FFF807C0
07FFFC07C0
07FFFC07C0
07FFFC0F80
07FFFC0F80
079FFE0F80
0F9FFE0F80
0F9FFE0F80
0F9FFE1F00
0F9FFE1F00
0F0FFF1F00
1F0FFF1F00
1F0FFF1E00
1F0FFF3E00
1F07FF3E00
1E07FFBE00
3E07FFBE00
3E07FFBC00
3E03FFFC00
3E03FFFC00
3C03FFFC00
7C03FFFC00
7C01FFF800
7C01FFF800
7C01FFF800
7801FFF800
F801FFF800
F800FFF000
ENDCHAR
STARTCHAR 00D2
ENCODING 210
SWIDTH 682 0
DWIDTH 36 0
BBX 34 46 2 0
BITMAP
007FE00000
001FF00000
000FF00000
0003F80000
0001FC0000
0000FC0000
00007E0000
00001F0000
0000000000
0000000000
0000100000
0007FFE000
003FFFF800
00FFFFFC00
01FFE7FE00
03FFC3FF00
07FF83FF00
0FFF03FF80
1FFE03FF80
1FFE03FF80
3FFE03FFC0
3FFC03FFC0
7FFC03FFC0
7FFC03FFC0
7FF803FFC0
7FF803FFC0
FFF803FFC0
FFF807FFC0
FFF007FFC0
FFF007FF80
FFF007FF80
FFF00FFF80
FFF00FFF80
FFF00FFF00
FFE00FFF00
FFE01FFE00
FFE01FFE00
FFE03FFC00
7FE03FFC00
7FF07FF800
7FF07FF000
3FF0FFF000
1FFFFFC000
0FFFFF8000
03FFFE0000
00FFF00000
ENDCHAR
STARTCHAR 00D3
ENCODING 211
SWIDTH 682 0
DWIDTH 36 0
BBX 34 46 2 0
BITMAP
000001FF80
000003FE00
000003FC00
000007F000
000007E000
00000FC000
00001F8000
00003F0000
0000000000
0000000000
0000100000
0007FFE000
003FFFF800
00FFFFFC00
01FFE7FE00
03FFC3FF00
07FF83FF00
0FFF03FF80
1FFE03FF80
1FFE03FF80
3FFE03FFC0
3FFC03FFC0
7FFC03FFC0
7FFC03FFC0
7FF803FFC0
7FF803FFC0
FFF803FFC0
FFF807FFC0
FFF007FFC0
FFF007FF80
FFF007FF80
FFF00FFF80
FFF00FFF80
FFF00FFF00
FFE00FFF00
FFE01FFE00
FFE01FFE00
FFE03FFC00
7FE03FFC00
7FF07FF800
7FF07FF000
3FF0FFF000
1FFFFFC000
0FFFFF8000
03FFFE0000
00FFF00000
ENDCHAR
STARTCHAR 00D4
ENCODING 212
SWIDTH 682 0
DWIDTH 36 0
BBX 34 46 2 0
BITMAP
00001FF000
00003FF000
00007FF800
0000FEF800
0001F87C00
0003F03C00
0007C03E00
000F801F00
0000000000
0000000000
0000100000
0007FFE000
003FFFF800
00FFFFFC00
01FFE7FE00
03FFC3FF00
07FF83FF00
0FFF03FF80
1FFE03FF80
1FFE03FF80
3FFE03FFC0
3FFC03FFC0
7FFC03FFC0
7FFC03FFC0
7FF803FFC0
7FF803FFC0
FFF803FFC0
FFF807FFC0
FFF007FFC0
FFF007FF80
FFF007FF80
FFF00FFF80
FFF00FFF80
FFF00FFF00
FFE00FFF00
FFE01FFE00
FFE01FFE00
FFE03FFC00
7FE03FFC00
7FF07FF800
7FF07FF000
3FF0FFF000
1FFFFFC000
0FFFFF8000
03FFFE0000
00FFF00000
ENDCHAR
STARTCHAR 00D5
ENCODING 213
SWIDTH 682 0
DWIDTH 36 0
BBX 34 46 2 0
BITMAP
0000FE0300
0003FFFF80
0007FFFF00
000FFFFE00
000FFFFC00
001E1FFC00
000801F000
0000000000
0000000000
0000000000
0000100000
0007FFE000
003FFFF800
00FFFFFC00
01FFE7FE00
03FFC3FF00
07FF83FF00
0FFF03FF80
1FFE03FF80
1FFE03FF80
3FFE03FFC0
3FFC03FFC0
7FFC03FFC0
7FFC03FFC0
7FF803FFC0
7FF803FFC0
FFF803FFC0
FFF807FFC0
FFF007FFC0
FFF007FF80
FFF007FF80
FFF00FFF80
FFF00FFF80
FFF00FFF00
FFE00FFF00
FFE01FFE00
FFE01FFE00
FFE03FFC00
7FE03FFC00
7FF07FF800
7FF07FF000
3FF0FFF000
1FFFFFC000
0FFFFF8000
03FFFE0000
00FFF00000
ENDCHAR
STARTCHAR 00D6
ENCODING 214
SWIDTH 682 0
DWIDTH 36 0
BBX 34 46 2 0
BITMAP
0003C07C00
0007E0FE00
000FF1FE00
000FF1FE00
000FF1FE00
000FF1FE00
000FE0FC00
0007C07800
0000000000
0000000000
0000100000
0007FFE000
003FFFF800
00FFFFFC00
01FFE7FE00
03FFC3FF00
07FF83FF00
0FFF03FF80
1FFE03FF80
1FFE03FF80
3FFE03FFC0
3FFC03FFC0
7FFC03FFC0
7FFC03FFC0
7FF803FFC0
7FF803FFC0
FFF803FFC0
FFF807FFC0
FFF007FFC0
FFF007FF80
FFF007FF80
FFF00FFF80
FFF00FFF80
FFF00FFF00
FFE00FFF00
FFE01FFE00
FFE01FFE00
FFE03FFC00
7FE03FFC00
7FF07FF800
7FF07FF000
3FF0FFF000
1FFFFFC000
0FFFFF8000
03FFFE0000
00FFF00000
ENDCHAR
STARTCHAR 00D7
ENCODING 215
SWIDTH 511 0
DWIDTH 27 0
BBX 27 22 1 6
BITMAP
0FC00FE0
07E01F80
07E03F00
03F07E00
03F0FC00
01F9F800
01FFF800
00FFF000
007FE000
007FC000
003F8000
007F8000
00FF8000
00FFC000
01FFC000
03F7E000
07E7F000
0FC3F000
1F83F800
3F81F800
7F00FC00
FE00FE00
ENDCHAR
STARTCHAR 00D8
ENCODING 216
SWIDTH 682 0
DWIDTH 36 0
BBX 34 37 2 -1
BITMAP
0000100200
0007FFE700
003FFFFF80
00FFFFFF00
01FFE7FE00
03FFC3FF00
07FF83FF00
0FFF03FF80
1FFE03FF80
1FFE03FF80
3FFE07FFC0
3FFC0FFFC0
7FFC1FFFC0
7FFC1FFFC0
7FF83FFFC0
7FF87BFFC0
FFF8FBFFC0
FFF1F7FFC0
FFF3E7FFC0
FFF7C7FF80
FFF787FF80
FFFF0FFF80
FFFF0FFF80
FFFE0FFF00
FFFC0FFF00
FFF81FFE00
FFF01FFE00
FFE03FFC00
7FE03FFC00
7FF07FF800
7FF07FF000
3FF0FFF000
3FFFFFC000
7FFFFF8000
FFFFFE0000
787FF00000
1000000000
ENDCHAR
STARTCHAR 00D9
ENCODING 217
SWIDTH 625 0
DWIDTH 33 0
BBX 33 46 2 0
BITMAP
003FE00000
001FF00000
0007F00000
0003F80000
0001FC0000
0000FE0000
00003E0000
00001F0000
0000000000
0000000000
0000000000
07FF800F80
0FFF800F80
0FFF000F80
0FFF001F00
0FFF001F00
0FFF001F00
1FFE001F00
1FFE001E00
1FFE003E00
1FFE003E00
1FFE003E00
3FFC003E00
3FFC003C00
3FFC007C00
3FFC007C00
3FFC007C00
7FF8007C00
7FF8007800
7FF800F800
7FF800F800
7FF800F800
FFF000F800
FFF000F000
FFF001F000
FFF001F000
FFF001F000
FFF003E000
FFF003E000
FFF807C000
FFFC1FC000
7FFFFF8000
7FFFFF0000
3FFFFC0000
0FFFF00000
03FF800000
ENDCHAR
STARTCHAR 00DA
ENCODING 218
SWIDTH 625 0
DWIDTH 33 0
BBX 33 46 2 0
BITMAP
000001FF80
000001FE00
000003FC00
000007F800
000007E000
00000FC000
00000F8000
00001F0000
0000000000
0000000000
0000000000
07FF800F80
0FFF800F80
0FFF000F80
0FFF001F00
0FFF001F00
0FFF001F00
1FFE001F00
1FFE001E00
1FFE003E00
1FFE003E00
1FFE003E00
3FFC003E00
3FFC003C00
3FFC007C00
3FFC007C00
3FFC007C00
7FF8007C00
7FF8007800
7FF800F800
7FF800F800
7FF800F800
FFF000F800
FFF000F000
FFF001F000
FFF001F000
FFF001F000
FFF003E000
FFF003E000
FFF807C000
FFFC1FC000
7FFFFF8000
7FFFFF0000
3FFFFC0000
0FFFF00000
03FF800000
ENDCHAR
STARTCHAR 00DB
ENCODING 219
SWIDTH 625 0
DWIDTH 33 0
BBX 33 46 2 0
BITMAP
00003FE000
00007FE000
0000FFF000
0001FDF000
0003F0F800
0007E07800
000F807C00
001F003E00
0000000000
0000000000
0000000000
07FF800F80
0FFF800F80
0FFF000F80
0FFF001F00
0FFF001F00
0FFF001F00
1FFE001F00
1FFE001E00
1FFE003E00
1FFE003E00
1FFE003E00
3FFC003E00
3FFC003C00
3FFC007C00
3FFC007C00
3FFC007C00
7FF8007C00
7FF8007800
7FF800F800
7FF800F800
7FF800F800
FFF000F800
FFF000F000
FFF001F000
FFF001F000
FFF001F000
FFF003E000
FFF003E000
FFF807C000
FFFC1FC000
7FFFFF8000
7FFFFF0000
3FFFFC0000
0FFFF00000
03FF800000
ENDCHAR
STARTCHAR 00DC
ENCODING 220
SWIDTH 625 0
DWIDTH 33 0
BBX 33 46 2 0
BITMAP
0001E03C00
0007F07E00
0007F0FF00
000FF0FF00
000FF0FF00
000FF0FE00
0007E0FE00
0003C07C00
0000000000
0000000000
0000000000
07FF800F80
0FFF800F80
0FFF000F80
0FFF001F00
0FFF001F00
0FFF001F00
1FFE001F00
1FFE001E00
1FFE003E00
1FFE003E00
1FFE003E00
3FFC003E00
3FFC003C00
3FFC007C00
3FFC007C00
3FFC007C00
7FF8007C00
7FF8007800
7FF800F800
7FF800F800
7FF800F800
FFF000F800
FFF000F000
FFF001F000
FFF001F000
FFF001F000
FFF003E000
FFF003E000
FFF807C000
FFFC1FC000
7FFFFF8000
7FFFFF0000
3FFFFC0000
0FFFF00000
03FF800000
ENDCHAR
STARTCHAR 00DD
ENCODING 221
SWIDTH 568 0
DWIDTH 30 0
BBX 30 46 4 0
BITMAP
00000FF8
00001FF0
00001FE0
00003F80
00007F00
00007E00
0000FC00
0000F800
0001E000
00000000
00000000
FFF800FC
7FF800F8
7FF801F8
7FFC03F0
7FFC03E0
3FFC07E0
3FFE07C0
3FFE0F80
3FFE0F80
3FFE1F00
1FFF3F00
1FFF3E00
1FFF7C00
1FFF7C00
0FFFF800
0FFFF800
0FFFF000
0FFFE000
07FFE000
07FFC000
07FF8000
07FF8000
07FF0000
07FF0000
07FF0000
0FFF0000
0FFF0000
0FFE0000
0FFE0000
0FFE0000
1FFE0000
1FFE0000
1FFC0000
1FFC0000
3FFC0000
ENDCHAR
STARTCHAR 00DE
ENCODING 222
SWIDTH 587 0
DWIDTH 31 0
BBX 32 35 0 0
BITMAP
01FFE000
01FFC000
01FFC000
03FFC000
03FFC000
03FFC000
03FFF800
03FFFFE0
07FFFFF8
07FFFFFC
07FF87FE
07FF07FE
07FF03FE
0FFF03FF
0FFF03FF
0FFF07FF
0FFE07FF
0FFE07FF
1FFE07FF
1FFE07FE
1FFE0FFE
1FFC0FFE
1FFC0FFC
3FFC1FFC
3FFC3FF8
3FF87FF0
3FFFFFE0
3FFFFF80
7FFFFE00
7FFFE000
7FF00000
7FF00000
7FF00000
FFF00000
FFF00000
ENDCHAR
STARTCHAR 00DF
ENCODING 223
SWIDTH 663 0
DWIDTH 35 0
BBX 35 38 -1 0
BITMAP
0000FFE000
0007FFFC00
001FFFFF00
003FFFFFC0
007FFFFFC0
00FFE1FFE0
00FFC0FFE0
01FFC07FE0
01FF807FE0
03FF807FC0
03FF80FF80
03FF80FF00
03FF01FE00
07FF07FC00
07FF0FF000
07FF1FE000
07FF3FC000
07FE3FC000
0FFE7FE000
0FFE7FF000
0FFE7FF800
0FFE7FFC00
0FFC7FFE00
1FFC3FFF00
1FFC3FFF80
1FFC1FFF80
1FFC0FFFC0
1FF807FFC0
3FF803FFC0
3FF801FFC0
3FF800FFC0
3FF800FFC0
3FF080FFC0
7FF0C1FF80
7FF1FFFF00
7FF3FFFE00
7FF0FFF800
FFE03FE000
ENDCHAR
STARTCHAR 00E0
ENCODING 224
SWIDTH 549 0
DWIDTH 29 0
BBX 28 35 -1 0
BITMAP
03FF0000
00FF0000
007F8000
003FC000
001FC000
0007E000
0003F000
0001F000
0000F800
00000000
00000000
00008000
007FFF00
03FFFFC0
07FFFFE0
0FFC7FE0
0FF03FF0
0FF03FF0
0FF03FF0
00003FF0
00003FF0
03FFFFF0
0FFFFFF0
3FF87FF0
3FF07FF0
7FE0FFE0
7FE0FFE0
FFC0FFE0
FFC0FFE0
FFE1FFE0
7FFFFFC0
7FFFFFC0
7FFCFFC0
3FF8FFC0
0FC07F80
ENDCHAR
STARTCHAR 00E1
ENCODING 225
SWIDTH 549 0
DWIDTH 29 0
BBX 29 35 -1 0
BITMAP
00000FF8
00001FF0
00001FE0
00003F80
00003F00
00007E00
0000FC00
0000F800
0001F000
00000000
00000000
00008000
007FFF00
03FFFFC0
07FFFFE0
0FFC7FE0
0FF03FF0
0FF03FF0
0FF03FF0
00003FF0
00003FF0
03FFFFF0
0FFFFFF0
3FF87FF0
3FF07FF0
7FE0FFE0
7FE0FFE0
FFC0FFE0
FFC0FFE0
FFE1FFE0
7FFFFFC0
7FFFFFC0
7FFCFFC0
3FF8FFC0
0FC07F80
ENDCHAR
STARTCHAR 00E2
ENCODING 226
SWIDTH 549 0
DWIDTH 29 0
BBX 28 35 -1 0
BITMAP
0001FF00
0003FF00
0007FF80
000FEF80
000FCFC0
001F87C0
003E03E0
007C01E0
00F800F0
00000000
00000000
00008000
007FFF00
03FFFFC0
07FFFFE0
0FFC7FE0
0FF03FF0
0FF03FF0
0FF03FF0
00003FF0
00003FF0
03FFFFF0
0FFFFFF0
3FF87FF0
3FF07FF0
7FE0FFE0
7FE0FFE0
FFC0FFE0
FFC0FFE0
FFE1FFE0
7FFFFFC0
7FFFFFC0
7FFCFFC0
3FF8FFC0
0FC07F80
ENDCHAR
STARTCHAR 00E3
ENCODING 227
SWIDTH 549 0
DWIDTH 29 0
BBX 30 35 -1 0
BITMAP
0007F01C
001FFFF8
003FFFF8
007FFFF0
00FFFFE0
00E0FFC0
00400F80
00000000
00000000
00000000
00000000
00008000
007FFF00
03FFFFC0
07FFFFE0
0FFC7FE0
0FF03FF0
0FF03FF0
0FF03FF0
00003FF0
00003FF0
03FFFFF0
0FFFFFF0
3FF87FF0
3FF07FF0
7FE0FFE0
7FE0FFE0
FFC0FFE0
FFC0FFE0
FFE1FFE0
7FFFFFC0
7FFFFFC0
7FFCFFC0
3FF8FFC0
0FC07F80
ENDCHAR
STARTCHAR 00E4
ENCODING 228
SWIDTH 549 0
DWIDTH 29 0
BBX 28 35 -1 0
BITMAP
003E03C0
007F0FE0
007F0FE0
00FF0FF0
00FF1FF0
00FF0FE0
007E0FE0
003C0780
00000000
00000000
00000000
00008000
007FFF00
03FFFFC0
07FFFFE0
0FFC7FE0
0FF03FF0
0FF03FF0
0FF03FF0
00003FF0
00003FF0
03FFFFF0
0FFFFFF0
3FF87FF0
3FF07FF0
7FE0FFE0
7FE0FFE0
FFC0FFE0
FFC0FFE0
FFE1FFE0
7FFFFFC0
7FFFFFC0
7FFCFFC0
3FF8FFC0
0FC07F80
ENDCHAR
STARTCHAR 00E5
ENCODING 229
SWIDTH 549 0
DWIDTH 29 0
BBX 28 36 -1 0
BITMAP
0000F000
0003F800
0007FC00
00071C00
00071C00
00071C00
00071C00
0007FC00
0003F800
0001E000
00000000
00000000
00008000
007FFF00
03FFFFC0
07FFFFE0
0FFC7FE0
0FF03FF0
0FF03FF0
0FF03FF0
00003FF0
00003FF0
03FFFFF0
0FFFFFF0
3FF87FF0
3FF07FF0
7FE0FFE0
7FE0FFE0
FFC0FFE0
FFC0FFE0
FFE1FFE0
7FFFFFC0
7FFFFFC0
7FFCFFC0
3FF8FFC0
0FC07F80
ENDCHAR
STARTCHAR 00E6
ENCODING 230
SWIDTH 833 0
DWIDTH 44 0
BBX 44 24 -1 0
BITMAP
000100004000
00FFFE3FFF00
07FFFFFFFFC0
07FFFFFFFFE0
07FC7FFF3FF0
0FF87FFC3FF0
0FF03FFC1FF0
0FF07FF81FF0
00007FF83FF0
00007FF03FF0
03FFFFFFFFF0
0FFFFFFFFFE0
3FF0FFFFFFE0
3FE0FFE00000
7FE0FFE00000
7FC0FFE00000
FFC0FFE07FC0
FFE1FFE07FC0
FFE3FFE0FF80
7FFFFFF1FF80
7FFFDFFFFF80
3FFF0FFFFF80
3FFC07FFFE00
0FE000FFE000
ENDCHAR
STARTCHAR 00E7
ENCODING 231
SWIDTH 530 0
DWIDTH 28 0
BBX 26 35 1 -11
BITMAP
00010000
007FFE00
03FFFF80
07FFFFC0
1FFE7FC0
1FF87FC0
3FF83F80
7FF03F80
7FF07F80
FFE07F80
FFE00000
FFE00000
FFE00000
FFC00000
FFC00000
FFC0FF00
FFC0FF00
FFC0FF00
FFC1FE00
7FC3FE00
3FFFFE00
1FFFFE00
0FFFFC00
01FFE000
00780000
00780000
00F80000
00FFC000
00FFE000
01F3E000
0003E000
0003E000
0087E000
01FFC000
00FF0000
ENDCHAR
STARTCHAR 00E8
ENCODING 232
SWIDTH 549 0
DWIDTH 29 0
BBX 27 35 1 0
BITMAP
03FE0000
00FF0000
007F8000
003F8000
001FC000
000FE000
0007E000
0003F000
0000F800
00000000
00000000
00008000
007FFE00
03FFFF80
07FFFFC0
1FFE7FE0
3FF87FE0
3FF83FE0
7FF03FE0
7FF07FE0
FFE07FE0
FFFFFFE0
FFFFFFC0
FFE00000
FFC00000
FFC00000
FFC00000
FFC0FF80
FFC1FF80
FFC1FF00
7FE3FF00
3FFFFF00
1FFFFF00
0FFFFC00
01FFC000
ENDCHAR
STARTCHAR 00E9
ENCODING 233
SWIDTH 549 0
DWIDTH 29 0
BBX 28 35 1 0
BITMAP
00001FF0
00003FC0
00003F80
00007F00
0000FE00
0000FC00
0001F800
0001F000
0003E000
00000000
00000000
00008000
007FFE00
03FFFF80
07FFFFC0
1FFE7FE0
3FF87FE0
3FF83FE0
7FF03FE0
7FF07FE0
FFE07FE0
FFFFFFE0
FFFFFFC0
FFE00000
FFC00000
FFC00000
FFC00000
FFC0FF80
FFC1FF80
FFC1FF00
7FE3FF00
3FFFFF00
1FFFFF00
0FFFFC00
01FFC000
ENDCHAR
STARTCHAR 00EA
ENCODING 234
SWIDTH 549 0
DWIDTH 29 0
BBX 27 35 1 0
BITMAP
0001FE00
0003FF00
0007FF00
000FFF80
001F8F80
003F07C0
007E03C0
00F803E0
01F001E0
00000000
00000000
00008000
007FFE00
03FFFF80
07FFFFC0
1FFE7FE0
3FF87FE0
3FF83FE0
7FF03FE0
7FF07FE0
FFE07FE0
FFFFFFE0
FFFFFFC0
FFFFFFC0
FFC00000
FFC00000
FFC00000
FFC0FF80
FFC0FF80
FFC1FF00
7FE3FF00
3FFFFF00
1FFFFF00
0FFFFC00
01FFC000
ENDCHAR
STARTCHAR 00EB
ENCODING 235
SWIDTH 549 0
DWIDTH 29 0
BBX 28 35 1 0
BITMAP
003E03C0
007F0FE0
007F0FE0
00FF0FF0
00FF1FE0
00FF0FE0
007E0FE0
003C0780
00000000
00000000
00000000
00008000
007FFE00
03FFFF80
07FFFFC0
1FFE7FE0
3FF87FE0
3FF83FE0
7FF03FE0
7FF07FE0
FFE07FE0
FFFFFFE0
FFFFFFC0
FFFFFFC0
FFC00000
FFC00000
FFC00000
FFC0FF80
FFC0FF80
FFC1FF00
7FE3FF00
3FFFFF00
1FFFFF00
0FFFFC00
01FFC000
ENDCHAR
STARTCHAR 00EC
ENCODING 236
SWIDTH 303 0
DWIDTH 16 0
BBX 17 35 -2 0
BITMAP
FF8000
7FC000
1FE000
0FE000
07F000
03F800
01F800
00FC00
007E00
000000
000000
000000
03FF80
03FF80
03FF80
03FF00
07FF00
07FF00
07FF00
07FF00
07FE00
0FFE00
0FFE00
0FFE00
0FFC00
1FFC00
1FFC00
1FFC00
1FFC00
1FF800
3FF800
3FF800
3FF800
3FF800
7FF000
ENDCHAR
STARTCHAR 00ED
ENCODING 237
SWIDTH 303 0
DWIDTH 16 0
BBX 22 35 -1 0
BITMAP
000FFC
000FF0
001FE0
001FC0
003F80
003F00
007E00
00FC00
00F000
000000
000000
000000
07FF00
07FF00
07FF00
07FE00
0FFE00
0FFE00
0FFE00
0FFE00
0FFC00
1FFC00
1FFC00
1FFC00
1FF800
3FF800
3FF800
3FF800
3FF800
3FF000
7FF000
7FF000
7FF000
7FF000
FFE000
ENDCHAR
STARTCHAR 00EE
ENCODING 238
SWIDTH 303 0
DWIDTH 16 0
BBX 22 35 -1 0
BITMAP
007FC0
00FFC0
01FFE0
03FBE0
07F3F0
0FC1F0
0F80F8
1F0078
3C003C
000000
000000
000000
07FF00
07FF00
07FF00
07FE00
0FFE00
0FFE00
0FFE00
0FFE00
0FFC00
1FFC00
1FFC00
1FFC00
1FF800
3FF800
3FF800
3FF800
3FF800
3FF000
7FF000
7FF000
7FF000
7FF000
FFE000
ENDCHAR
STARTCHAR 00EF
ENCODING 239
SWIDTH 303 0
DWIDTH 16 0
BBX 22 35 -1 0
BITMAP
0780F0
1FC1F8
1FC3FC
3FC3FC
3FC3FC
1FC3F8
1FC3F8
0F01F0
000000
000000
000000
000000
07FF00
07FF00
07FF00
07FE00
0FFE00
0FFE00
0FFE00
0FFE00
0FFC00
1FFC00
1FFC00
1FFC00
1FF800
3FF800
3FF800
3FF800
3FF800
3FF000
7FF000
7FF000
7FF000
7FF000
FFE000
ENDCHAR
STARTCHAR 00F0
ENCODING 240
SWIDTH 625 0
DWIDTH 33 0
BBX 35 37 1 0
BITMAP
00000C0000
00007E0000
00003F8000
00001FC000
00001FE000
00000FFFC0
00001FFFC0
0003FFFFC0
0003FFFFE0
0003FFFC00
0003F7FC00
000007FC00
000007FE00
000007FE00
01FE07FE00
07FF87FE00
0FFFCFFE00
1FFFEFFE00
3FFFFFFE00
7FFFFFFE00
7FFFFFFE00
7FF87FFE00
FFF07FFC00
FFE07FFC00
FFE07FFC00
FFE07FFC00
FFC07FF800
FFC0FFF800
FFC0FFF000
FFC0FFE000
FFC1FFC000
FFC1FFC000
7FE3FF0000
3FFFFE0000
1FFFFC0000
0FFFF00000
01FF000000
ENDCHAR
STARTCHAR 00F1
ENCODING 241
SWIDTH 587 0
DWIDTH 31 0
BBX 31 35 -1 0
BITMAP
0007E008
000FFC3C
001FFFFC
003FFFF8
007FFFF0
00F0FFF0
00603FE0
00200780
00000000
00000000
00000000
00000080
07FC0FF0
07FC3FF8
07FEFFFC
07FFFFFC
0FFFFFFE
0FFF1FFE
0FFE0FFC
0FFE1FFC
0FFC1FFC
1FFC1FFC
1FFC1FFC
1FFC1FF8
1FFC3FF8
3FF83FF8
3FF83FF8
3FF83FF8
3FF83FF0
3FF07FF0
7FF07FF0
7FF07FF0
7FF07FF0
7FF07FE0
FFE0FFE0
ENDCHAR
STARTCHAR 00F2
ENCODING 242
SWIDTH 568 0
DWIDTH 30 0
BBX 28 35 1 0
BITMAP
0FFC0000
03FC0000
01FE0000
00FF0000
007F0000
001F8000
000FC000
0007C000
0003E000
00000000
00000000
00010000
00FFFE00
03FFFF80
0FFFFFC0
1FFEFFC0
3FF87FE0
3FF87FE0
7FF07FF0
7FF07FF0
FFE07FF0
FFE07FF0
FFE07FF0
FFE07FF0
FFE0FFF0
FFC0FFE0
FFC0FFE0
FFC0FFE0
FFC1FFC0
FFC1FFC0
7FE3FF80
3FFFFF00
1FFFFC00
0FFFF800
01FF8000
ENDCHAR
STARTCHAR 00F3
ENCODING 243
SWIDTH 568 0
DWIDTH 30 0
BBX 28 35 1 0
BITMAP
00003FE0
00007FC0
00007F80
0000FF00
0000FC00
0001F800
0001F000
0003E000
0007C000
00000000
00000000
00010000
00FFFE00
03FFFF80
0FFFFFC0
1FFEFFC0
3FF87FE0
3FF87FE0
7FF07FF0
7FF07FF0
FFE07FF0
FFE07FF0
FFE07FF0
FFE07FF0
FFE0FFF0
FFC0FFE0
FFC0FFE0
FFC0FFE0
FFC1FFC0
FFC1FFC0
7FE3FF80
3FFFFF00
1FFFFC00
0FFFF800
01FF8000
ENDCHAR
STARTCHAR 00F4
ENCODING 244
SWIDTH 568 0
DWIDTH 30 0
BBX 28 35 1 0
BITMAP
0003FC00
0007FE00
000FFE00
001FFF00
003F9F00
007E0F80
00FC07C0
00F803C0
01E003E0
00000000
00000000
00010000
00FFFE00
03FFFF80
0FFFFFC0
1FFEFFC0
3FF87FE0
3FF87FE0
7FF07FF0
7FF07FF0
FFE07FF0
FFE07FF0
FFE07FF0
FFE07FF0
FFE0FFF0
FFC0FFE0
FFC0FFE0
FFC0FFE0
FFC1FFC0
FFC1FFC0
7FE3FF80
3FFFFF00
1FFFFC00
0FFFF800
01FF8000
ENDCHAR
STARTCHAR 00F5
ENCODING 245
SWIDTH 568 0
DWIDTH 30 0
BBX 29 35 1 0
BITMAP
000FE038
003FFFF0
007FFFF0
00FFFFE0
01FFFFC0
01C1FF80
00801F00
00000000
00000000
00000000
00000000
00010000
00FFFE00
03FFFF80
0FFFFFC0
1FFEFFC0
3FF87FE0
3FF87FE0
7FF07FF0
7FF07FF0
FFE07FF0
FFE07FF0
FFE07FF0
FFE07FF0
FFE0FFF0
FFC0FFE0
FFC0FFE0
FFC0FFE0
FFC1FFC0
FFC1FFC0
7FE3FF80
3FFFFF00
1FFFFC00
0FFFF800
01FF8000
ENDCHAR
STARTCHAR 00F6
ENCODING 246
SWIDTH 568 0
DWIDTH 30 0
BBX 28 35 1 0
BITMAP
003C0780
007E0FC0
00FE1FE0
00FF1FE0
00FF1FE0
00FE1FC0
00FE1FC0
00780F80
00000000
00000000
00000000
00010000
00FFFE00
03FFFF80
0FFFFFC0
1FFEFFC0
3FF87FE0
3FF87FE0
7FF07FF0
7FF07FF0
FFE07FF0
FFE07FF0
FFE07FF0
FFE07FF0
FFE0FFF0
FFC0FFE0
FFC0FFE0
FFC0FFE0
FFC1FFC0
FFC1FFC0
7FE3FF80
3FFFFF00
1FFFFC00
0FFFF800
01FF8000
ENDCHAR
STARTCHAR 00F7
ENCODING 247
SWIDTH 454 0
DWIDTH 24 0
BBX 22 31 2 1
BITMAP
000F00
003FC0
007FC0
007FE0
007FE0
007FC0
007FC0
007F80
001F00
000000
000000
000000
000000
7FFFFC
FFFFFC
FFFFFC
FFFFF8
FFFFF8
000000
000000
000000
000000
03E000
0FF000
0FF800
1FF800
1FF800
1FF800
1FF000
0FF000
07C000
ENDCHAR
STARTCHAR 00F8
ENCODING 248
SWIDTH 568 0
DWIDTH 30 0
BBX 28 27 1 -2
BITMAP
00000100
000103C0
007FFF80
03FFFF00
07FFFFC0
1FFCFFC0
3FF87FE0
3FF87FE0
7FF0FFF0
7FF1FFF0
FFE1FFF0
FFE3FFF0
FFE77FF0
FFEF7FF0
FFFEFFF0
FFFCFFE0
FFF8FFE0
FFF0FFE0
FFE1FFC0
FFC1FFC0
7FE3FF80
3FFFFF00
1FFFFC00
0FFFF800
1DFF8000
38000000
08000000
ENDCHAR
STARTCHAR 00F9
ENCODING 249
SWIDTH 587 0
DWIDTH 31 0
BBX 30 35 1 0
BITMAP
07FC0000
03FE0000
01FE0000
007F0000
003F8000
001F8000
000FC000
0007E000
0003E000
00000000
00000000
00000000
1FFC1FFC
1FFC3FF8
1FF83FF8
3FF83FF8
3FF83FF8
3FF83FF0
3FF07FF0
7FF07FF0
7FF07FF0
7FF07FF0
7FF07FE0
7FE0FFE0
FFE0FFE0
FFE0FFE0
FFE0FFE0
FFE1FFC0
FFE1FFC0
FFE3FFC0
FFFFFFC0
FFFFFF80
7FFDFF80
7FF0FF80
1FC0FF80
ENDCHAR
STARTCHAR 00FA
ENCODING 250
SWIDTH 587 0
DWIDTH 31 0
BBX 30 35 1 0
BITMAP
00003FF0
00003FC0
00007F80
00007F00
0000FE00
0001FC00
0001F800
0003E000
0003C000
00000000
00000000
00000000
1FFC1FFC
1FFC3FF8
1FF83FF8
3FF83FF8
3FF83FF8
3FF83FF0
3FF07FF0
7FF07FF0
7FF07FF0
7FF07FF0
7FF07FE0
7FE0FFE0
FFE0FFE0
FFE0FFE0
FFE0FFE0
FFE1FFC0
FFE1FFC0
FFE3FFC0
FFFFFFC0
FFFFFF80
7FFDFF80
7FF0FF80
1FC0FF80
ENDCHAR
STARTCHAR 00FB
ENCODING 251
SWIDTH 587 0
DWIDTH 31 0
BBX 30 35 1 0
BITMAP
0001FE00
0003FF00
0007FF00
000FFF80
001F8F80
003F07C0
007E03C0
00F801E0
01F001E0
00000000
00000000
00000000
1FFC1FFC
1FFC3FF8
1FF83FF8
3FF83FF8
3FF83FF8
3FF83FF0
3FF07FF0
7FF07FF0
7FF07FF0
7FF07FF0
7FF07FE0
7FE0FFE0
FFE0FFE0
FFE0FFE0
FFE0FFE0
FFE1FFC0
FFE1FFC0
FFE3FFC0
FFFFFFC0
FFFFFF80
7FFDFF80
7FF0FF80
1FC0FF80
ENDCHAR
STARTCHAR 00FC
ENCODING 252
SWIDTH 587 0
DWIDTH 31 0
BBX 30 35 1 0
BITMAP
003C07C0
007E0FE0
00FF0FE0
00FF1FE0
00FF1FE0
00FF1FE0
007E0FC0
003C0780
00000000
00000000
00000000
00000000
1FFC1FFC
1FFC3FF8
1FF83FF8
3FF83FF8
3FF83FF8
3FF83FF0
3FF07FF0
7FF07FF0
7FF07FF0
7FF07FF0
7FF07FE0
7FE0FFE0
FFE0FFE0
FFE0FFE0
FFE0FFE0
FFE1FFC0
FFE1FFC0
FFE3FFC0
FFFFFFC0
FFFFFF80
7FFDFF80
7FF0FF80
1FC0FF80
ENDCHAR
STARTCHAR 00FD
ENCODING 253
SWIDTH 511 0
DWIDTH 27 0
BBX 33 44 -3 -9
BITMAP
000001FF80
000001FE00
000003FC00
000003F800
000007F000
00000FE000
00000F8000
00001F0000
00001E0000
0000000000
0000000000
0000000000
07FF003F00
07FF007E00
07FF807E00
03FF80FC00
03FF80F800
03FF81F800
03FF81F000
03FF83F000
03FF83E000
03FF87E000
01FF87C000
01FF8FC000
01FFCF8000
01FFDF0000
01FFDF0000
01FFFE0000
01FFFE0000
00FFFC0000
00FFFC0000
00FFF80000
00FFF80000
00FFF00000
00FFF00000
00FFE00000
00FFC00000
00FFC00000
00FF800000
01FF000000
FFFE000000
FFFC000000
FFF0000000
FFC0000000
ENDCHAR
STARTCHAR 00FE
ENCODING 254
SWIDTH 587 0
DWIDTH 31 0
BBX 32 46 -2 -9
BITMAP
007FF000
007FF000
00FFE000
00FFE000
00FFE000
00FFE000
00FFC000
01FFC000
01FFC000
01FFC000
01FFC000
01FF8000
03FF8000
03FF8040
03FF8FF8
03FFBFFC
03FF7FFE
07FFFFFE
07FF8FFE
07FF0FFE
07FF0FFF
07FE0FFE
0FFE0FFE
0FFE0FFE
0FFE0FFE
0FFC0FFE
0FFC0FFE
1FFC1FFE
1FFC1FFC
1FFC1FFC
1FFC3FFC
1FFE7FF8
3FFFFFF8
3FFBFFF0
3FFBFFE0
3FF8FFC0
7FF03F00
7FF00000
7FF00000
7FF00000
7FF00000
FFE00000
FFE00000
FFE00000
FFE00000
FFC00000
ENDCHAR
STARTCHAR 00FF
ENCODING 255
SWIDTH 511 0
DWIDTH 27 0
BBX 32 44 -3 -9
BITMAP
0001E03E
0003F07F
0007F8FF
0007F8FF
0007F8FF
0007F0FF
0007F07E
0003E03C
00000000
00000000
00000000
00000000
07FF003F
07FF007E
07FF807E
03FF80FC
03FF80F8
03FF81F8
03FF81F0
03FF83F0
03FF83E0
03FF87E0
01FF87C0
01FF8FC0
01FFCF80
01FFDF00
01FFDF00
01FFFE00
01FFFE00
00FFFC00
00FFFC00
00FFF800
00FFF800
00FFF000
00FFF000
00FFE000
00FFC000
00FFC000
00FF8000
01FF0000
FFFE0000
FFFC0000
FFF00000
FFC00000
ENDCHAR
STARTCHAR 0100
ENCODING 256
SWIDTH 606 0
DWIDTH 32 0
BBX 33 44 -2 0
BITMAP
0003FFFF80
0003FFFF80
0007FFFF00
0007FFFF00
0000000000
0000000000
0000000000
0000000000
0000000000
0001FFF000
0003FFF000
0003FFF000
0003FFF000
0007FFF000
0007FFF000
000FFFF000
000FFFF000
001F7FF800
001F7FF800
003E7FF800
003E7FF800
003C7FF800
007C7FF800
007C7FF800
00F87FF800
00F87FF800
01F07FFC00
01F03FFC00
03E03FFC00
03E03FFC00
03E03FFC00
07FFFFFC00
07FFFFFC00
0FFFFFFC00
0FFFFFFC00
1F003FFC00
1F003FFE00
3E003FFE00
3E003FFE00
3E001FFE00
7C001FFE00
7C001FFE00
F8001FFE00
F8001FFE00
ENDCHAR
STARTCHAR 0101
ENCODING 257
SWIDTH 549 0
DWIDTH 29 0
BBX 29 33 -1 0
BITMAP
003FFFF8
007FFFF0
007FFFF0
007FFFF0
00000000
00000000
00000000
00000000
00000000
00008000
007FFF00
03FFFFC0
07FFFFE0
0FFC7FE0
0FF03FF0
0FF03FF0
0FF03FF0
00003FF0
00003FF0
03FFFFF0
0FFFFFF0
3FF87FF0
3FF07FF0
7FE0FFE0
7FE0FFE0
FFC0FFE0
FFC0FFE0
FFE1FFE0
7FFFFFC0
7FFFFFC0
7FFCFFC0
3FF8FFC0
0FC07F80
ENDCHAR
STARTCHAR 0102
ENCODING 258
SWIDTH 606 0
DWIDTH 32 0
BBX 32 46 -2 0
BITMAP
00000002
0001C007
0001E01F
0001F07E
0000FFFC
0000FFF8
00007FF0
00001FC0
00000000
00000000
00000000
0001FFF0
0003FFF0
0003FFF0
0003FFF0
0007FFF0
0007FFF0
000FFFF0
000FFFF0
001F7FF8
001F7FF8
003E7FF8
003E7FF8
003C7FF8
007C7FF8
007C7FF8
00F87FF8
00F87FF8
01F07FFC
01F03FFC
03E03FFC
03E03FFC
03E03FFC
07FFFFFC
07FFFFFC
0FFFFFFC
0FFFFFFC
1F003FFC
1F003FFE
3E003FFE
3E003FFE
3E001FFE
7C001FFE
7C001FFE
F8001FFE
F8001FFE
ENDCHAR
STARTCHAR 0103
ENCODING 259
SWIDTH 549 0
DWIDTH 29 0
BBX 28 35 -1 0
BITMAP
00000060
001800F0
003C01E0
001F07E0
001FFFC0
000FFF80
0007FE00
0001F800
00000000
00000000
00000000
00008000
007FFF00
03FFFFC0
07FFFFE0
0FFC7FE0
0FF03FF0
0FF03FF0
0FF03FF0
00003FF0
00003FF0
03FFFFF0
0FFFFFF0
3FF87FF0
3FF07FF0
7FE0FFE0
7FE0FFE0
FFC0FFE0
FFC0FFE0
FFE1FFE0
7FFFFFC0
7FFFFFC0
7FFCFFC0
3FF8FFC0
0FC07F80
ENDCHAR
STARTCHAR 0104
ENCODING 260
SWIDTH 606 0
DWIDTH 32 0
BBX 31 46 -2 -11
BITMAP
0001FFF0
0003FFF0
0003FFF0
0003FFF0
0007FFF0
0007FFF0
000FFFF0
000FFFF0
001F7FF8
001F7FF8
003E7FF8
003E7FF8
003C7FF8
007C7FF8
007C7FF8
00F87FF8
00F87FF8
01F07FFC
01F03FFC
03E03FFC
03E03FFC
03E03FFC
07FFFFFC
07FFFFFC
0FFFFFFC
0FFFFFFC
1F003FFC
1F003FFE
3E003FFE
3E003FFE
3E001FFE
7C001FFE
7C001FFE
F8001FFE
F8001FFE
000001F0
000007E0
00000FC0
00001F80
00001F80
00003F80
00003F84
00003FFC
00003FFE
00001FF8
00000FC0
ENDCHAR
STARTCHAR 0105
ENCODING 261
SWIDTH 549 0
DWIDTH 29 0
BBX 28 35 -1 -11
BITMAP
00008000
007FFF00
03FFFFC0
07FFFFE0
0FFC7FE0
0FF03FF0
0FF03FF0
0FF03FF0
00003FF0
00003FF0
03FFFFF0
0FFFFFF0
3FF87FF0
3FF07FF0
7FE0FFE0
7FE0FFE0
FFC0FFE0
FFC0FFE0
FFE1FFE0
7FFFFFC0
7FFFFFC0
7FFCFFC0
3FF8FFC0
0FC07F80
00003E00
0000FC00
0001F800
0003F000
0003F000
0007F000
0007F180
0007FFC0
0003FF80
0003FE00
00004000
ENDCHAR
STARTCHAR 0106
ENCODING 262
SWIDTH 644 0
DWIDTH 34 0
BBX 33 46 2 0
BITMAP
000001FF00
000003FE00
000003F800
000007F000
00000FE000
00000FC000
00001F8000
00003E0000
0000000000
0000000000
0000080000
0007FFE000
001FFFFC00
007FFFFF00
01FFE7FF80
03FF83FF80
07FF03FF80
0FFF03FF00
0FFE03FF00
1FFE03FF00
3FFC03FF00
3FFC03FF00
3FFC03FE00
7FFC03FE00
7FF8000000
7FF8000000
FFF8000000
FFF8000000
FFF0000000
FFF0000000
FFF0000000
FFF0000000
FFF0000000
FFF00FFC00
FFF00FFC00
FFF01FF800
FFF01FF800
FFF01FF800
7FF03FF800
7FF03FF800
3FF07FF000
3FF8FFF000
1FFFFFF000
07FFFFC000
03FFFF0000
003FF00000
ENDCHAR
STARTCHAR 0107
ENCODING 263
SWIDTH 530 0
DWIDTH 28 0
BBX 28 35 1 0
BITMAP
00001FF0
00003FC0
00007F80
00007F00
0000FE00
0000FC00
0001F800
0001F000
0003E000
00000000
00000000
00010000
007FFE00
03FFFF80
07FFFFC0
1FFE7FC0
3FF87FC0
3FF83F80
7FF03F80
7FF07F80
FFE07F80
FFE00000
FFE00000
FFE00000
FFC00000
FFC00000
FFC0FF00
FFC0FF00
FFC1FF00
FFC1FE00
7FE3FE00
3FFFFE00
1FFFFE00
07FFFC00
01FFC000
ENDCHAR
STARTCHAR 0108
ENCODING 264
SWIDTH 644 0
DWIDTH 34 0
BBX 33 46 2 0
BITMAP
00003FC000
00007FE000
0000FFE000
0001FBF000
0003F1F000
0007C0F800
000F807C00
003F003C00
0000000000
0000000000
0000080000
0007FFE000
001FFFFC00
007FFFFF00
01FFE7FF80
03FF83FF80
07FF03FF80
0FFF03FF00
0FFE03FF00
1FFE03FF00
3FFC03FF00
3FFC03FF00
3FFC03FE00
7FFC03FE00
7FF8000000
7FF8000000
FFF8000000
FFF8000000
FFF0000000
FFF0000000
FFF0000000
FFF0000000
FFF0000000
FFF00FFC00
FFF00FFC00
FFF01FF800
FFF01FF800
FFF01FF800
7FF03FF800
7FF03FF800
3FF07FF000
3FF8FFF000
1FFFFFF000
07FFFFC000
03FFFF0000
003FF00000
ENDCHAR
STARTCHAR 0109
ENCODING 265
SWIDTH 530 0
DWIDTH 28 0
BBX 27 35 1 0
BITMAP
0003FC00
0007FE00
000FFE00
001FFF00
003F9F00
007E0F80
00FC07C0
00F803C0
01E003E0
00000000
00000000
00010000
007FFE00
03FFFF80
07FFFFC0
1FFE7FC0
3FF87FC0
3FF83F80
7FF03F80
7FF07F80
FFE07F80
FFE00000
FFE00000
FFE00000
FFC00000
FFC00000
FFC0FF00
FFC0FF00
FFC1FF00
FFC1FE00
7FE3FE00
3FFFFE00
1FFFFE00
07FFFC00
01FFC000
ENDCHAR
STARTCHAR 010A
ENCODING 266
SWIDTH 644 0
DWIDTH 34 0
BBX 33 46 2 0
BITMAP
00001F0000
00007FC000
00007FE000
0000FFE000
0000FFE000
0000FFE000
0000FFC000
00007F8000
00003F0000
0000000000
0000080000
0007FFE000
001FFFFC00
007FFFFF00
01FFE7FF80
03FF83FF80
07FF03FF80
0FFF03FF00
0FFE03FF00
1FFE03FF00
3FFC03FF00
3FFC03FF00
3FFC03FE00
7FFC03FE00
7FF8000000
7FF8000000
FFF8000000
FFF8000000
FFF0000000
FFF0000000
FFF0000000
FFF0000000
FFF0000000
FFF00FFC00
FFF00FFC00
FFF01FF800
FFF01FF800
FFF01FF800
7FF03FF800
7FF03FF800
3FF07FF000
3FF8FFF000
1FFFFFF000
07FFFFC000
03FFFF0000
003FF00000
ENDCHAR
STARTCHAR 010B
ENCODING 267
SWIDTH 530 0
DWIDTH 28 0
BBX 26 35 1 0
BITMAP
0000F800
0003FE00
0007FE00
0007FE00
0007FE00
0007FE00
0007FE00
0007FC00
0001F000
00000000
00000000
00010000
007FFE00
03FFFF80
07FFFFC0
1FFE7FC0
3FF87FC0
3FF83F80
7FF03F80
7FF07F80
FFE07F80
FFE00000
FFE00000
FFE00000
FFC00000
FFC00000
FFC0FF00
FFC0FF00
FFC1FF00
FFC1FE00
7FE3FE00
3FFFFE00
1FFFFE00
07FFFC00
01FFC000
ENDCHAR
STARTCHAR 010C
ENCODING 268
SWIDTH 644 0
DWIDTH 34 0
BBX 33 46 2 0
BITMAP
0007801F80
0007C03E00
0003E07C00
0003F1F800
0001FBF000
0000FFE000
0000FFC000
00007F8000
0000000000
0000000000
0000080000
0007FFE000
001FFFFC00
007FFFFF00
01FFE7FF80
03FF83FF80
07FF03FF80
0FFF03FF00
0FFE03FF00
1FFE03FF00
3FFC03FF00
3FFC03FF00
3FFC03FE00
7FFC03FE00
7FF8000000
7FF8000000
FFF8000000
FFF8000000
FFF0000000
FFF0000000
FFF0000000
FFF0000000
FFF0000000
FFF00FFC00
FFF00FFC00
FFF01FF800
FFF01FF800
FFF01FF800
7FF03FF800
7FF03FF800
3FF07FF000
3FF8FFF000
1FFFFFF000
07FFFFC000
03FFFF0000
003FF00000
ENDCHAR
STARTCHAR 010D
ENCODING 269
SWIDTH 530 0
DWIDTH 28 0
BBX 29 35 1 0
BITMAP
007800F8
003C03E0
003E07E0
001F0FC0
001F3F80
000FFF00
000FFE00
0007FC00
0007F800
00000000
00000000
00010000
007FFE00
03FFFF80
07FFFFC0
1FFE7FC0
3FF87FC0
3FF83F80
7FF03F80
7FF07F80
FFE07F80
FFE00000
FFE00000
FFE00000
FFC00000
FFC00000
FFC0FF00
FFC0FF00
FFC1FF00
FFC1FE00
7FE3FE00
3FFFFE00
1FFFFE00
07FFFC00
01FFC000
ENDCHAR
STARTCHAR 010E
ENCODING 270
SWIDTH 663 0
DWIDTH 35 0
BBX 35 46 0 0
BITMAP
000F000F00
0007803E00
0007C07C00
0003E0F800
0003F3F000
0001FFE000
0000FFC000
0000FFC000
00007F8000
0000000000
0000000000
01FFFFC000
01FFFFF800
01FFFFFE00
03FFFFFF00
03FFC1FF00
03FFC1FF80
03FF81FF80
03FF81FFC0
07FF81FFC0
07FF81FFC0
07FF81FFC0
07FF01FFC0
07FF01FFC0
0FFF01FFE0
0FFF01FFC0
0FFF01FFC0
0FFE03FFC0
0FFE03FFC0
1FFE03FFC0
1FFE03FFC0
1FFC03FFC0
1FFC07FF80
1FFC07FF80
3FFC07FF80
3FFC0FFF00
3FF80FFF00
3FF80FFE00
3FF81FFE00
7FF81FFC00
7FF83FF800
7FF07FF000
7FFFFFE000
7FFFFF8000
FFFFFF0000
FFFFF00000
ENDCHAR
STARTCHAR 010F
ENCODING 271
SWIDTH 682 0
DWIDTH 36 0
BBX 43 37 0 0
BITMAP
000003FF8000
000003FF8F80
000003FF1FC0
000007FF3FC0
000007FF3FE0
000007FF3FE0
000007FF3FC0
000007FE3FC0
00000FFE3FC0
00000FFE1F80
00000FFE0F80
00000FFE1F00
00000FFC1E00
00081FFC7C00
01FF1FFC7800
03FF9FFC2000
07FFDFFC0000
0FFFFFF80000
1FFEFFF80000
1FFC7FF80000
3FF83FF80000
3FF83FF80000
7FF07FF00000
7FF07FF00000
7FF07FF00000
7FF07FF00000
7FE07FE00000
FFE0FFE00000
FFE0FFE00000
FFE0FFE00000
FFE0FFE00000
FFE1FFC00000
7FFFFFC00000
7FFFFFC00000
3FFEFFC00000
3FF8FFC00000
0FE07F800000
ENDCHAR
STARTCHAR 0110
ENCODING 272
SWIDTH 682 0
DWIDTH 36 0
BBX 35 35 0 0
BITMAP
00FFFFE000
01FFFFFC00
01FFFFFE00
01FFFFFF00
01FFC1FF80
01FFC0FFC0
03FFC0FFC0
03FFC0FFC0
03FFC0FFE0
03FF80FFE0
03FF80FFE0
07FF80FFE0
07FF80FFE0
07FF81FFE0
07FF01FFE0
7FFFF1FFE0
7FFFF1FFE0
7FFFF1FFE0
FFFFE1FFE0
0FFE03FFE0
1FFE03FFC0
1FFE03FFC0
1FFE03FFC0
1FFC07FF80
1FFC07FF80
3FFC07FF80
3FFC0FFF00
3FFC0FFE00
3FF81FFE00
3FF83FFC00
7FF87FF800
7FFFFFF000
7FFFFFC000
7FFFFF0000
7FFFF80000
ENDCHAR
STARTCHAR 0111
ENCODING 273
SWIDTH 587 0
DWIDTH 31 0
BBX 36 37 0 0
BITMAP
000003FF80
000003FF80
000003FF00
000007FF00
000007FF00
0000FFFFF0
0000FFFFF0
0000FFFFF0
0000FFFFE0
00000FFE00
00000FFE00
00000FFC00
00001FFC00
00081FFC00
01FF1FFC00
03FF9FFC00
07FFDFF800
0FFFDFF800
1FFFFFF800
1FFC7FF800
3FF83FF800
3FF83FF000
7FF03FF000
7FF07FF000
7FF07FF000
7FF07FF000
7FE07FE000
FFE0FFE000
FFE0FFE000
FFE0FFE000
FFE0FFE000
FFE1FFC000
7FFFFFC000
7FFFFFC000
3FFEFFC000
3FF8FFC000
0FE07F8000
ENDCHAR
STARTCHAR 0112
ENCODING 274
SWIDTH 511 0
DWIDTH 27 0
BBX 29 44 0 0
BITMAP
003FFFF8
003FFFF8
003FFFF8
007FFFF0
00000000
00000000
00000000
00000000
00000000
01FFFFF8
01FFFFF8
01FFFFF8
03FFFFF8
03FFC000
03FF8000
03FF8000
03FF8000
07FF8000
07FF8000
07FF8000
07FF0000
07FF0000
0FFF0000
0FFF0000
0FFFFF80
0FFFFF00
0FFFFF00
1FFFFF00
1FFE0000
1FFC0000
1FFC0000
1FFC0000
3FFC0000
3FFC0000
3FF80000
3FF80000
3FF80000
7FF80000
7FF80000
7FF00000
7FFFFE00
7FFFFE00
FFFFFE00
FFFFFC00
ENDCHAR
STARTCHAR 0113
ENCODING 275
SWIDTH 549 0
DWIDTH 29 0
BBX 28 33 1 0
BITMAP
007FFFF0
007FFFF0
007FFFF0
00FFFFE0
00000000
00000000
00000000
00000000
00000000
00008000
007FFE00
03FFFF80
07FFFFC0
1FFE7FE0
3FF87FE0
3FF83FE0
7FF03FE0
7FF07FE0
FFE07FE0
FFFFFFE0
FFFFFFC0
FFFFFFC0
FFC00000
FFC00000
FFC00000
FFC0FF80
FFC0FF80
FFC1FF00
7FE3FF00
3FFFFF00
1FFFFF00
0FFFFC00
01FFC000
ENDCHAR
STARTCHAR 0114
ENCODING 276
SWIDTH 511 0
DWIDTH 27 0
BBX 29 46 0 0
BITMAP
00000020
001C0070
001E00F0
001F03E0
000FFFC0
000FFF80
0007FF00
0001FC00
00000000
00000000
00000000
01FFFFF8
01FFFFF8
01FFFFF8
03FFFFF8
03FFC000
03FF8000
03FF8000
03FF8000
07FF8000
07FF8000
07FF8000
07FF0000
07FF0000
0FFF0000
0FFF0000
0FFFFF80
0FFFFF00
0FFFFF00
1FFFFF00
1FFE0000
1FFC0000
1FFC0000
1FFC0000
3FFC0000
3FFC0000
3FF80000
3FF80000
3FF80000
7FF80000
7FF80000
7FF00000
7FFFFE00
7FFFFE00
FFFFFE00
FFFFFC00
ENDCHAR
STARTCHAR 0115
ENCODING 277
SWIDTH 549 0
DWIDTH 29 0
BBX 27 35 1 0
BITMAP
000000C0
003001E0
007803C0
003C0F80
003FFF80
001FFF00
000FFC00
0007F000
00000000
00000000
00000000
00008000
007FFE00
03FFFF80
07FFFFC0
1FFE7FE0
3FF87FE0
3FF83FE0
7FF03FE0
7FF07FE0
FFE07FE0
FFFFFFE0
FFFFFFC0
FFFFFFC0
FFC00000
FFC00000
FFC00000
FFC0FF80
FFC0FF80
FFC1FF00
7FE3FF00
3FFFFF00
1FFFFF00
0FFFFC00
01FFC000
ENDCHAR
STARTCHAR 0116
ENCODING 278
SWIDTH 511 0
DWIDTH 27 0
BBX 29 46 0 0
BITMAP
00007C00
0001FF00
0003FF00
0003FF80
0003FF80
0003FF00
0003FF00
0001FE00
0000F800
00000000
00000000
01FFFFF8
01FFFFF8
01FFFFF8
03FFFFF8
03FFC000
03FF8000
03FF8000
03FF8000
07FF8000
07FF8000
07FF8000
07FF0000
07FF0000
0FFF0000
0FFF0000
0FFFFF80
0FFFFF00
0FFFFF00
1FFFFF00
1FFE0000
1FFC0000
1FFC0000
1FFC0000
3FFC0000
3FFC0000
3FF80000
3FF80000
3FF80000
7FF80000
7FF80000
7FF00000
7FFFFE00
7FFFFE00
FFFFFE00
FFFFFC00
ENDCHAR
STARTCHAR 0117
ENCODING 279
SWIDTH 549 0
DWIDTH 29 0
BBX 27 35 1 0
BITMAP
0001F000
0007FC00
000FFC00
000FFE00
000FFE00
000FFC00
000FFC00
0007F800
0003E000
00000000
00000000
00008000
007FFE00
03FFFF80
07FFFFC0
1FFE7FE0
3FF87FE0
3FF83FE0
7FF03FE0
7FF07FE0
FFE07FE0
FFFFFFE0
FFFFFFC0
FFFFFFC0
FFC00000
FFC00000
FFC00000
FFC0FF80
FFC0FF80
FFC1FF00
7FE3FF00
3FFFFF00
1FFFFF00
0FFFFC00
01FFC000
ENDCHAR
STARTCHAR 0118
ENCODING 280
SWIDTH 511 0
DWIDTH 27 0
BBX 29 46 0 -11
BITMAP
01FFFFF8
01FFFFF8
01FFFFF8
03FFFFF8
03FFC000
03FF8000
03FF8000
03FF8000
07FF8000
07FF8000
07FF8000
07FF0000
07FF0000
0FFF0000
0FFF0000
0FFFFF80
0FFFFF00
0FFFFF00
1FFFFF00
1FFE0000
1FFC0000
1FFC0000
1FFC0000
3FFC0000
3FFC0000
3FF80000
3FF80000
3FF80000
7FF80000
7FF80000
7FF00000
7FFFFE00
7FFFFE00
FFFFFE00
FFFFFC00
003E0000
00FC0000
01F80000
03F00000
03F00000
07F00000
07F10000
07FF8000
07FF8000
03FF0000
01F80000
ENDCHAR
STARTCHAR 0119
ENCODING 281
SWIDTH 549 0
DWIDTH 29 0
BBX 27 35 1 -11
BITMAP
00008000
007FFE00
03FFFF80
07FFFFC0
1FFE7FE0
3FF87FE0
3FF83FE0
7FF03FE0
7FF07FE0
FFE07FE0
FFFFFFE0
FFFFFFC0
FFFFFFC0
FFC00000
FFC00000
FFC00000
FFC0FF80
FFC0FF80
FFC1FF00
7FE3FF00
3FFFFF00
1FFFFF00
0FFFFC00
01FFE000
0007C000
001F8000
003F0000
007F0000
007E0000
007E0000
00FF3000
007FF800
007FF000
003FC000
00040000
ENDCHAR
STARTCHAR 011A
ENCODING 282
SWIDTH 511 0
DWIDTH 27 0
BBX 30 46 0 0
BITMAP
003C007C
001E00F8
001F01F0
000F87E0
000FCFC0
0007DF80
0007FF00
0003FE00
0003FC00
00000000
00000000
01FFFFF8
01FFFFF8
01FFFFF8
03FFFFF8
03FFC000
03FF8000
03FF8000
03FF8000
07FF8000
07FF8000
07FF8000
07FF0000
07FF0000
0FFF0000
0FFF0000
0FFFFF80
0FFFFF00
0FFFFF00
1FFFFF00
1FFE0000
1FFC0000
1FFC0000
1FFC0000
3FFC0000
3FFC0000
3FF80000
3FF80000
3FF80000
7FF80000
7FF80000
7FF00000
7FFFFE00
7FFFFE00
FFFFFE00
FFFFFC00
ENDCHAR
STARTCHAR 011B
ENCODING 283
SWIDTH 549 0
DWIDTH 29 0
BBX 29 35 1 0
BITMAP
007800F8
003C01F0
003E07E0
001F0FC0
001F9F80
000FFF00
000FFE00
0007FC00
0007F800
00000000
00000000
00008000
007FFE00
03FFFF80
07FFFFC0
1FFE7FE0
3FF87FE0
3FF83FE0
7FF03FE0
7FF07FE0
FFE07FE0
FFFFFFE0
FFFFFFC0
FFE00000
FFC00000
FFC00000
FFC00000
FFC0FF80
FFC1FF80
FFC1FF00
7FE3FF00
3FFFFF00
1FFFFF00
0FFFFC00
01FFC000
ENDCHAR
STARTCHAR 011C
ENCODING 284
SWIDTH 644 0
DWIDTH 34 0
BBX 33 46 2 0
BITMAP
00003FE000
00007FE000
0000FFF000
0001FDF000
0003F0F800
0007E07C00
000FC03C00
001F003E00
0000000000
0000000000
0000080000
0007FFE000
001FFFFC00
007FFFFF80
01FFE7FF00
03FF83FF00
07FF03FF00
0FFF03FF00
0FFE03FF00
1FFE03FE00
3FFE03FE00
3FFC03FE00
7FFC03FE00
7FFC03FE00
7FF8000000
7FF8000000
FFF8000000
FFF8000000
FFF8000000
FFF0000000
FFF07FFE00
FFF0FFFC00
FFF0FFFC00
FFF0FFFC00
FFF00FFC00
FFF00FFC00
FFF00FF800
7FF01FF800
7FF01FF800
7FF01FF800
3FF03FF800
1FF87FF000
1FFFFFF000
0FFFE7F000
03FFC7F000
00FE07F000
ENDCHAR
STARTCHAR 011D
ENCODING 285
SWIDTH 587 0
DWIDTH 31 0
BBX 30 44 0 -9
BITMAP
00007FC0
0000FFC0
0001FFE0
0003FBE0
0003F3F0
0007C1F0
000F80F8
001F0078
003E003C
00000000
00000000
00080000
00FF87FC
03FFC7FC
07FFCFFC
0FFFFFF8
1FFFFFF8
1FFC7FF8
3FF83FF8
3FF83FF8
3FF03FF0
7FF07FF0
7FF07FF0
7FF07FF0
7FE07FF0
7FE07FE0
FFE0FFE0
FFE0FFE0
7FE1FFE0
7FF3FFE0
7FFFFFC0
7FFFFFC0
3FFDFFC0
1FF9FFC0
0FC1FF80
0001FF80
0003FF80
0003FF00
0007FE00
000FFE00
3FFFFC00
7FFFF000
7FFFC000
7FFE0000
ENDCHAR
STARTCHAR 011E
ENCODING 286
SWIDTH 644 0
DWIDTH 34 0
BBX 33 46 2 0
BITMAP
0000000400
0003800E00
0003C03E00
0003E0FC00
0001FFF800
0001FFF000
0000FFE000
00003F0000
0000000000
0000000000
0000080000
0007FFE000
001FFFFC00
007FFFFF80
01FFE7FF00
03FF83FF00
07FF03FF00
0FFF03FF00
0FFE03FF00
1FFE03FE00
3FFE03FE00
3FFC03FE00
7FFC03FE00
7FFC03FE00
7FF8000000
7FF8000000
FFF8000000
FFF8000000
FFF8000000
FFF0000000
FFF07FFE00
FFF0FFFC00
FFF0FFFC00
FFF0FFFC00
FFF00FFC00
FFF00FFC00
FFF00FF800
7FF01FF800
7FF01FF800
7FF01FF800
3FF03FF800
1FF87FF000
1FFFFFF000
0FFFE7F000
03FFC7F000
00FE07F000
ENDCHAR
STARTCHAR 011F
ENCODING 287
SWIDTH 587 0
DWIDTH 31 0
BBX 30 44 0 -9
BITMAP
00000010
000E003C
000F0078
000F81F0
0007FFE0
0007FFC0
0003FF80
0000FE00
00000000
00000000
00000000
00080000
00FF87FC
03FFC7FC
07FFCFFC
0FFFFFF8
1FFFFFF8
1FFC7FF8
3FF83FF8
3FF83FF8
3FF03FF0
7FF07FF0
7FF07FF0
7FF07FF0
7FE07FF0
7FE07FE0
FFE0FFE0
FFE0FFE0
7FE1FFE0
7FF3FFE0
7FFFFFC0
7FFFFFC0
3FFDFFC0
1FF9FFC0
0FC1FF80
0001FF80
0003FF80
0003FF00
0007FE00
000FFE00
3FFFFC00
7FFFF000
7FFFC000
7FFE0000
ENDCHAR
STARTCHAR 0120
ENCODING 288
SWIDTH 644 0
DWIDTH 34 0
BBX 33 46 2 0
BITMAP
00001F0000
00007F8000
0000FFC000
0000FFC000
0001FFC000
0001FFC000
0000FFC000
0000FF8000
00003E0000
0000000000
0000080000
0007FFE000
001FFFFC00
007FFFFF80
01FFE7FF00
03FF83FF00
07FF03FF00
0FFF03FF00
0FFE03FF00
1FFE03FE00
3FFE03FE00
3FFC03FE00
7FFC03FE00
7FFC03FE00
7FF8000000
7FF8000000
FFF8000000
FFF8000000
FFF8000000
FFF0000000
FFF07FFE00
FFF0FFFC00
FFF0FFFC00
FFF0FFFC00
FFF00FFC00
FFF00FFC00
FFF00FF800
7FF01FF800
7FF01FF800
7FF01FF800
3FF03FF800
1FF87FF000
1FFFFFF000
0FFFE7F000
03FFC7F000
00FE07F000
ENDCHAR
STARTCHAR 0121
ENCODING 289
SWIDTH 587 0
DWIDTH 31 0
BBX 30 44 0 -9
BITMAP
00003F00
00007F80
0000FFC0
0001FFC0
0001FFC0
0001FFC0
0001FF80
0000FF80
00003E00
00000000
00000000
00080000
00FF87FC
03FFC7FC
07FFCFFC
0FFFFFF8
1FFFFFF8
1FFC7FF8
3FF83FF8
3FF83FF8
3FF03FF0
7FF07FF0
7FF07FF0
7FF07FF0
7FE07FF0
7FE07FE0
FFE0FFE0
FFE0FFE0
7FE1FFE0
7FF3FFE0
7FFFFFC0
7FFFFFC0
3FFDFFC0
1FF9FFC0
0FC1FF80
0001FF80
0003FF80
0003FF00
0007FE00
000FFE00
3FFFFC00
7FFFF000
7FFFC000
7FFE0000
ENDCHAR
STARTCHAR 0122
ENCODING 290
SWIDTH 644 0
DWIDTH 34 0
BBX 33 51 2 -15
BITMAP
0000080000
0007FFE000
001FFFFC00
007FFFFF80
01FFE7FF00
03FF83FF00
07FF03FF00
0FFF03FF00
0FFE03FF00
1FFE03FE00
3FFE03FE00
3FFC03FE00
7FFC03FE00
7FFC03FE00
7FF8000000
7FF8000000
FFF8000000
FFF8000000
FFF8000000
FFF0000000
FFF07FFE00
FFF0FFFC00
FFF0FFFC00
FFF0FFFC00
FFF00FFC00
FFF00FFC00
FFF00FF800
7FF01FF800
7FF01FF800
7FF01FF800
3FF03FF800
1FF87FF000
1FFFFFF000
0FFFE7F000
03FFC7F000
00FE07F000
0000000000
0000000000
0000000000
000F000000
001F800000
003FC00000
003FC00000
001FC00000
000FC00000
000F800000
000F000000
000F000000
001E000000
0078000000
0030000000
ENDCHAR
STARTCHAR 0123
ENCODING 291
SWIDTH 587 0
DWIDTH 31 0
BBX 30 47 0 -9
BITMAP
00000600
00000E00
00003C00
00007800
00007800
0000F800
0001F800
0001FC00
0001FE00
0001FE00
0000FC00
00007800
00000000
00000000
00080000
00FF87FC
03FFC7FC
07FFCFFC
0FFFFFF8
1FFFFFF8
1FFC7FF8
3FF83FF8
3FF83FF8
3FF03FF0
7FF07FF0
7FF07FF0
7FF07FF0
7FE07FF0
7FE07FE0
FFE0FFE0
FFE0FFE0
7FE1FFE0
7FF3FFE0
7FFFFFC0
7FFFFFC0
3FFDFFC0
1FF9FFC0
0FC1FF80
0001FF80
0003FF80
0003FF00
0007FE00
000FFE00
3FFFFC00
7FFFF000
7FFFC000
7FFE0000
ENDCHAR
STARTCHAR 0124
ENCODING 292
SWIDTH 663 0
DWIDTH 35 0
BBX 37 46 0 0
BITMAP
00000FF000
00001FF800
00003FF800
00007FFC00
0000FC7C00
0001F83E00
0003F01E00
0007C01F00
000F800F00
0000000000
0000000000
01FFE07FF8
01FFC07FF0
01FFC07FF0
03FFC0FFF0
03FFC0FFF0
03FFC0FFF0
03FF80FFE0
03FF80FFE0
07FF81FFE0
07FF81FFE0
07FF81FFE0
07FF01FFC0
07FF01FFC0
0FFF01FFC0
0FFF03FFC0
0FFF03FF80
0FFFFFFF80
0FFFFFFF80
1FFFFFFF80
1FFFFFFF80
1FFE07FF00
1FFC07FF00
1FFC07FF00
3FFC0FFF00
3FFC0FFF00
3FF80FFE00
3FF80FFE00
3FF80FFE00
7FF81FFE00
7FF81FFE00
7FF01FFC00
7FF01FFC00
7FF03FFC00
FFF03FFC00
FFF03FFC00
ENDCHAR
STARTCHAR 0125
ENCODING 293
SWIDTH 587 0
DWIDTH 31 0
BBX 38 37 -1 0
BITMAP
00FFE00000
00FFE00000
01FFC07FC0
01FFC0FFC0
01FFC1FFE0
01FFC3F3E0
01FFC7E1F0
03FF8FC1F0
03FF9F00F8
03FFBE007C
03FF800000
03FF800000
07FF000000
07FF008000
07FF0FF000
07FF3FF800
07FF7FFC00
0FFFFFFC00
0FFF9FFE00
0FFF1FFE00
0FFE0FFC00
0FFE1FFC00
1FFC1FFC00
1FFC1FFC00
1FFC1FFC00
1FFC1FF800
1FF83FF800
3FF83FF800
3FF83FF800
3FF83FF800
3FF83FF000
3FF07FF000
7FF07FF000
7FF07FF000
7FF07FF000
7FF07FE000
FFE0FFE000
ENDCHAR
STARTCHAR 0126
ENCODING 294
SWIDTH 701 0
DWIDTH 37 0
BBX 40 35 1 0
BITMAP
01FFE07FF8
01FFC07FF0
01FFC07FF0
01FFC0FFF0
03FFC0FFF0
03FFC0FFF0
03FF80FFE0
7FFFFFFFFF
7FFFFFFFFE
7FFFFFFFFE
7FFFFFFFFE
07FF01FFC0
07FF01FFC0
0FFF03FFC0
0FFF03FFC0
0FFF03FFC0
0FFFFFFF80
0FFFFFFF80
1FFFFFFF80
1FFFFFFF80
1FFE07FF00
1FFC07FF00
1FFC07FF00
3FFC0FFF00
3FFC0FFF00
3FF80FFE00
3FF80FFE00
3FF80FFE00
7FF81FFE00
7FF81FFE00
7FF01FFC00
7FF01FFC00
7FF03FFC00
FFF03FFC00
FFF03FFC00
ENDCHAR
STARTCHAR 0127
ENCODING 295
SWIDTH 587 0
DWIDTH 31 0
BBX 31 37 -1 0
BITMAP
00FFE000
00FFE000
00FFC000
01FFC000
01FFC000
01FFC000
3FFFFC00
3FFFF800
7FFFF800
7FFFF800
03FF8000
03FF8000
07FF0000
07FF0080
07FF0FF0
07FF3FF8
07FF7FFC
0FFFFFFC
0FFF9FFE
0FFF1FFE
0FFE0FFC
0FFE1FFC
1FFC1FFC
1FFC1FFC
1FFC1FFC
1FFC1FF8
1FF83FF8
3FF83FF8
3FF83FF8
3FF83FF8
3FF83FF0
3FF07FF0
7FF07FF0
7FF07FF0
7FF07FF0
7FF07FE0
FFE0FFE0
ENDCHAR
STARTCHAR 0128
ENCODING 296
SWIDTH 322 0
DWIDTH 17 0
BBX 26 46 0 0
BITMAP
007C0080
01FFC3C0
03FFFF80
03FFFF80
07FFFF00
0F1FFF00
0603FE00
0400F800
00000000
00000000
00000000
01FFE000
01FFC000
01FFC000
03FFC000
03FFC000
03FFC000
03FF8000
03FF8000
07FF8000
07FF8000
07FF8000
07FF0000
07FF0000
0FFF0000
0FFF0000
0FFE0000
0FFE0000
0FFE0000
1FFE0000
1FFE0000
1FFC0000
1FFC0000
1FFC0000
3FFC0000
3FFC0000
3FF80000
3FF80000
3FF80000
7FF80000
7FF80000
7FF00000
7FF00000
7FF00000
FFF00000
FFF00000
ENDCHAR
STARTCHAR 0129
ENCODING 297
SWIDTH 303 0
DWIDTH 16 0
BBX 24 35 -1 0
BITMAP
01F004
07FF0F
0FFFFE
1FFFFE
1FFFFC
3C7FF8
180FF0
1003E0
000000
000000
000000
000000
07FF00
07FF00
07FF00
07FE00
0FFE00
0FFE00
0FFE00
0FFE00
0FFC00
1FFC00
1FFC00
1FFC00
1FF800
3FF800
3FF800
3FF800
3FF800
3FF000
7FF000
7FF000
7FF000
7FF000
FFE000
ENDCHAR
STARTCHAR 012A
ENCODING 298
SWIDTH 322 0
DWIDTH 17 0
BBX 24 44 0 0
BITMAP
07FFFF
07FFFF
07FFFF
0FFFFE
000000
000000
000000
000000
000000
01FFE0
01FFC0
01FFC0
03FFC0
03FFC0
03FFC0
03FF80
03FF80
07FF80
07FF80
07FF80
07FF00
07FF00
0FFF00
0FFF00
0FFE00
0FFE00
0FFE00
1FFE00
1FFE00
1FFC00
1FFC00
1FFC00
3FFC00
3FFC00
3FF800
3FF800
3FF800
7FF800
7FF800
7FF000
7FF000
7FF000
FFF000
FFF000
ENDCHAR
STARTCHAR 012B
ENCODING 299
SWIDTH 303 0
DWIDTH 16 0
BBX 22 33 -1 0
BITMAP
1FFFFC
1FFFFC
1FFFFC
3FFFF8
000000
000000
000000
000000
000000
000000
07FF00
07FF00
07FF00
07FE00
0FFE00
0FFE00
0FFE00
0FFE00
0FFC00
1FFC00
1FFC00
1FFC00
1FF800
3FF800
3FF800
3FF800
3FF800
3FF000
7FF000
7FF000
7FF000
7FF000
FFE000
ENDCHAR
STARTCHAR 012C
ENCODING 300
SWIDTH 322 0
DWIDTH 17 0
BBX 24 46 0 0
BITMAP
000006
01800F
03C01E
01F07E
01FFFC
00FFF8
007FE0
001F80
000000
000000
000000
01FFE0
01FFC0
01FFC0
03FFC0
03FFC0
03FFC0
03FF80
03FF80
07FF80
07FF80
07FF80
07FF00
07FF00
0FFF00
0FFF00
0FFE00
0FFE00
0FFE00
1FFE00
1FFE00
1FFC00
1FFC00
1FFC00
3FFC00
3FFC00
3FF800
3FF800
3FF800
7FF800
7FF800
7FF000
7FF000
7FF000
FFF000
FFF000
ENDCHAR
STARTCHAR 012D
ENCODING 301
SWIDTH 303 0
DWIDTH 16 0
BBX 22 35 -1 0
BITMAP
000010
0E003C
0F0078
0781F0
07FFE0
07FFC0
03FF80
00FE00
000000
000000
000000
000000
07FF00
07FF00
07FF00
07FE00
0FFE00
0FFE00
0FFE00
0FFE00
0FFC00
1FFC00
1FFC00
1FFC00
1FF800
3FF800
3FF800
3FF800
3FF800
3FF000
7FF000
7FF000
7FF000
7FF000
FFE000
ENDCHAR
STARTCHAR 012E
ENCODING 302
SWIDTH 322 0
DWIDTH 17 0
BBX 22 46 -3 -11
BITMAP
003FFC
003FF8
003FF8
007FF8
007FF8
007FF8
007FF0
007FF0
00FFF0
00FFF0
00FFF0
00FFE0
00FFE0
01FFE0
01FFE0
01FFC0
01FFC0
01FFC0
03FFC0
03FFC0
03FF80
03FF80
03FF80
07FF80
07FF80
07FF00
07FF00
07FF00
0FFF00
0FFF00
0FFE00
0FFE00
0FFE00
1FFE00
1FFE00
07E000
0F8000
3F0000
3F0000
7E0000
7E0000
FE1000
FFF000
7FF800
7FE000
3F8000
ENDCHAR
STARTCHAR 012F
ENCODING 303
SWIDTH 303 0
DWIDTH 16 0
BBX 20 46 -3 -11
BITMAP
000F80
003FE0
007FE0
007FE0
007FF0
007FE0
007FE0
003FC0
001F00
000000
000000
000000
01FFC0
01FFC0
01FFC0
01FF80
03FF80
03FF80
03FF80
03FF80
03FF00
07FF00
07FF00
07FF00
07FE00
0FFE00
0FFE00
0FFE00
0FFE00
0FFC00
1FFC00
1FFC00
1FFC00
1FFC00
3FF800
0FC000
1F8000
3F0000
7E0000
FE0000
FC0000
FE2000
FFF000
FFF000
FFC000
3F0000
ENDCHAR
STARTCHAR 0130
ENCODING 304
SWIDTH 322 0
DWIDTH 17 0
BBX 19 46 0 0
BITMAP
001F00
007FC0
00FFC0
00FFE0
00FFE0
00FFC0
00FFC0
007F80
003E00
000000
000000
01FFE0
01FFC0
01FFC0
03FFC0
03FFC0
03FFC0
03FF80
03FF80
07FF80
07FF80
07FF80
07FF00
07FF00
0FFF00
0FFF00
0FFE00
0FFE00
0FFE00
1FFE00
1FFE00
1FFC00
1FFC00
1FFC00
3FFC00
3FFC00
3FF800
3FF800
3FF800
7FF800
7FF800
7FF000
7FF000
7FF000
FFF000
FFF000
ENDCHAR
STARTCHAR 0131
ENCODING 305
SWIDTH 303 0
DWIDTH 16 0
BBX 16 23 -1 0
BITMAP
07FF
07FF
07FF
07FE
0FFE
0FFE
0FFE
0FFE
0FFC
1FFC
1FFC
1FFC
1FF8
3FF8
3FF8
3FF8
3FF8
3FF0
7FF0
7FF0
7FF0
7FF0
FFE0
ENDCHAR
STARTCHAR 0132
ENCODING 306
SWIDTH 909 0
DWIDTH 48 0
BBX 50 35 0 0
BITMAP
01FFE00003FFC0
01FFC00003FFC0
01FFC00003FF80
03FFC00003FF80
03FFC00007FF80
03FFC00007FF80
03FF800007FF80
03FF800007FF00
07FF800007FF00
07FF80000FFF00
07FF80000FFF00
07FF00000FFF00
07FF00000FFE00
0FFF00000FFE00
0FFF00001FFE00
0FFE00001FFE00
0FFE00001FFE00
0FFE00001FFC00
1FFE00001FFC00
1FFE00003FFC00
1FFC00003FFC00
1FFC00003FF800
1FFC3FF03FF800
3FFC7FE03FF800
3FFC7FE07FF800
3FF87FE07FF800
3FF87FE07FF000
3FF87FE07FF000
7FF8FFE0FFE000
7FF8FFE0FFE000
7FF07FF1FFC000
7FF03FFFFF8000
7FF01FFFFF0000
FFF007FFFC0000
FFF000FFE00000
ENDCHAR
STARTCHAR 0133
ENCODING 307
SWIDTH 587 0
DWIDTH 31 0
BBX 33 44 -1 -9
BITMAP
003E007C00
00FF81FF00
01FF83FF00
01FF83FF80
01FFC3FF80
01FF83FF00
01FF83FF00
00FF01FE00
007C00F800
0000000000
0000000000
0000000000
07FF0FFE00
07FF0FFE00
07FF0FFE00
07FE0FFE00
0FFE1FFC00
0FFE1FFC00
0FFE1FFC00
0FFE1FFC00
0FFC1FFC00
1FFC3FF800
1FFC3FF800
1FFC3FF800
1FF83FF800
3FF83FF000
3FF87FF000
3FF87FF000
3FF87FF000
3FF07FF000
7FF07FE000
7FF0FFE000
7FF0FFE000
7FF0FFE000
FFE0FFC000
0001FFC000
0001FFC000
0001FF8000
0003FF8000
0003FF0000
001FFE0000
001FFC0000
001FF00000
001F800000
ENDCHAR
STARTCHAR 0134
ENCODING 308
SWIDTH 587 0
DWIDTH 31 0
BBX 38 46 -1 0
BITMAP
0000003FC0
0000007FE0
000000FFE0
000001FBF0
000003F1F8
000007C0F8
00000F807C
00003F003C
0000000000
0000000000
0000000000
000003FFC0
000003FFC0
000003FF80
000003FF80
000007FF80
000007FF80
000007FF80
000007FF00
000007FF00
00000FFF00
00000FFF00
00000FFE00
00000FFE00
00000FFE00
00001FFE00
00001FFE00
00001FFC00
00001FFC00
00001FFC00
00003FFC00
00003FFC00
00003FF800
3FF03FF800
7FE07FF800
7FE07FF800
7FE07FF800
7FE07FF000
7FE07FF000
FFE0FFE000
FFE0FFE000
7FF1FFC000
3FFFFF8000
1FFFFF0000
07FFFC0000
00FFC00000
ENDCHAR
STARTCHAR 0135
ENCODING 309
SWIDTH 303 0
DWIDTH 16 0
BBX 27 44 -6 -9
BITMAP
0003FC00
0007FE00
000FFE00
001FFF00
003F1F00
007E0F80
00FC0780
01F003C0
01E003E0
00000000
00000000
00000000
003FF800
003FF800
003FF800
003FF000
007FF000
007FF000
007FF000
007FF000
007FE000
00FFE000
00FFE000
00FFE000
00FFE000
01FFC000
01FFC000
01FFC000
01FFC000
01FF8000
03FF8000
03FF8000
03FF8000
03FF8000
03FF0000
07FF0000
07FF0000
07FE0000
0FFE0000
0FFC0000
7FF80000
7FF00000
7FC00000
FE000000
ENDCHAR
STARTCHAR 0136
ENCODING 310
SWIDTH 606 0
DWIDTH 32 0
BBX 35 51 0 -16
BITMAP
01FFE00FE0
01FFC01F80
01FFC03F00
03FFC03F00
03FFC07E00
03FFC0FC00
03FF81F800
03FF83F000
07FF87E000
07FF87C000
07FF8F8000
07FF1F8000
07FF3F0000
0FFF7E0000
0FFFFE0000
0FFFFE0000
0FFFFF0000
0FFFFF0000
1FFFFF8000
1FFFFF8000
1FFDFF8000
1FFDFFC000
1FFDFFC000
3FFCFFC000
3FFCFFE000
3FF8FFE000
3FF87FF000
3FF87FF000
7FF87FF000
7FF83FF800
7FF03FF800
7FF03FF800
7FF03FFC00
FFF01FFC00
FFF01FFE00
0000000000
0000000000
0000000000
0002000000
001F800000
003F800000
003FC00000
003FC00000
001F800000
000F800000
000F800000
000F000000
001E000000
003C000000
0070000000
0020000000
ENDCHAR
STARTCHAR 0137
ENCODING 311
SWIDTH 606 0
DWIDTH 32 0
BBX 33 53 -1 -16
BITMAP
00FFE00000
00FFE00000
01FFC00000
01FFC00000
01FFC00000
01FFC00000
01FFC00000
03FF800000
03FF800000
03FF800000
03FF800000
03FF800000
07FF000000
07FF000000
07FF003F80
07FF007F00
07FF01FC00
0FFE03F800
0FFE07F000
0FFE0FE000
0FFE3FC000
0FFE7F8000
1FFCFE0000
1FFDFE0000
1FFFFF0000
1FFFFF0000
1FFFFF8000
3FFBFF8000
3FF9FFC000
3FF9FFE000
3FF8FFE000
3FF0FFF000
7FF07FF000
7FF07FF800
7FF03FF800
7FF03FFC00
FFE01FFE00
0000000000
0000000000
0000000000
0002000000
001F800000
003F800000
003FC00000
003FC00000
001F800000
000F800000
000F000000
000F000000
001E000000
003C000000
0070000000
0020000000
ENDCHAR
STARTCHAR 0138
ENCODING 312
SWIDTH 587 0
DWIDTH 31 0
BBX 33 23 -1 0
BITMAP
07FF003F80
07FF007F00
07FF01FC00
07FE03F800
0FFE07F000
0FFE0FE000
0FFE3FC000
0FFE7F8000
0FFCFE0000
1FFDFE0000
1FFFFF0000
1FFFFF0000
1FFFFF8000
3FFBFF8000
3FF9FFC000
3FF9FFE000
3FF8FFE000
3FF0FFF000
7FF07FF000
7FF07FF800
7FF03FF800
7FF03FFC00
FFE01FFE00
ENDCHAR
STARTCHAR 0139
ENCODING 313
SWIDTH 492 0
DWIDTH 26 0
BBX 25 46 0 0
BITMAP
0000FF80
0001FF00
0001FE00
0003FC00
0003F000
0007E000
000FC000
000F8000
001F0000
00000000
00000000
01FFE000
01FFC000
01FFC000
03FFC000
03FFC000
03FFC000
03FF8000
03FF8000
07FF8000
07FF8000
07FF0000
07FF0000
07FF0000
0FFF0000
0FFF0000
0FFE0000
0FFE0000
0FFE0000
1FFE0000
1FFE0000
1FFC0000
1FFC0000
1FFC0000
3FFC0000
3FFC0000
3FF80000
3FF80000
3FF80000
7FF80000
7FF80000
7FFFFE00
7FFFFE00
7FFFFE00
FFFFFE00
FFFFFC00
ENDCHAR
STARTCHAR 013A
ENCODING 314
SWIDTH 303 0
DWIDTH 16 0
BBX 24 47 -1 0
BITMAP
0001FF
0003FC
0003F8
0007F0
000FE0
000FC0
001F80
003E00
000000
000000
00FFE0
00FFE0
01FFC0
01FFC0
01FFC0
01FFC0
01FFC0
03FF80
03FF80
03FF80
03FF80
03FF80
07FF00
07FF00
07FF00
07FF00
07FE00
0FFE00
0FFE00
0FFE00
0FFE00
0FFC00
1FFC00
1FFC00
1FFC00
1FFC00
1FF800
3FF800
3FF800
3FF800
3FF800
3FF000
7FF000
7FF000
7FF000
7FF000
FFE000
ENDCHAR
STARTCHAR 013B
ENCODING 315
SWIDTH 492 0
DWIDTH 26 0
BBX 23 51 0 -16
BITMAP
01FFE0
01FFC0
01FFC0
03FFC0
03FFC0
03FFC0
03FF80
03FF80
07FF80
07FF80
07FF00
07FF00
07FF00
0FFF00
0FFF00
0FFE00
0FFE00
0FFE00
1FFE00
1FFE00
1FFC00
1FFC00
1FFC00
3FFC00
3FFC00
3FF800
3FF800
3FF800
7FF800
7FF800
7FFFFE
7FFFFE
7FFFFE
FFFFFE
FFFFFC
000000
000000
000000
002000
00F800
01FC00
03FC00
03FC00
01FC00
00F800
00F800
00F000
01E000
03C000
038000
020000
ENDCHAR
STARTCHAR 013C
ENCODING 316
SWIDTH 303 0
DWIDTH 16 0
BBX 19 53 -1 -16
BITMAP
00FFE0
00FFE0
01FFC0
01FFC0
01FFC0
01FFC0
01FFC0
03FF80
03FF80
03FF80
03FF80
03FF80
07FF00
07FF00
07FF00
07FF00
07FE00
0FFE00
0FFE00
0FFE00
0FFE00
0FFC00
1FFC00
1FFC00
1FFC00
1FFC00
1FF800
3FF800
3FF800
3FF800
3FF800
3FF000
7FF000
7FF000
7FF000
7FF000
FFE000
000000
000000
000000
040000
3F0000
7F0000
7F8000
7F8000
3F0000
1F0000
1E0000
1E0000
3C0000
780000
E00000
400000
ENDCHAR
STARTCHAR 013D
ENCODING 317
SWIDTH 492 0
DWIDTH 26 0
BBX 26 46 0 0
BITMAP
03C007C0
03E00F80
01E03F00
01F07E00
00F8FC00
00FFF800
007FF000
003FE000
003FC000
00000000
00000000
01FFE000
01FFC000
01FFC000
03FFC000
03FFC000
03FFC000
03FF8000
03FF8000
07FF8000
07FF8000
07FF0000
07FF0000
07FF0000
0FFF0000
0FFF0000
0FFE0000
0FFE0000
0FFE0000
1FFE0000
1FFE0000
1FFC0000
1FFC0000
1FFC0000
3FFC0000
3FFC0000
3FF80000
3FF80000
3FF80000
7FF80000
7FF80000
7FFFFE00
7FFFFE00
7FFFFE00
FFFFFE00
FFFFFC00
ENDCHAR
STARTCHAR 013E
ENCODING 318
SWIDTH 397 0
DWIDTH 21 0
BBX 29 37 -1 0
BITMAP
00FFE000
00FFE3E0
01FFC7F0
01FFCFF0
01FFCFF8
01FFCFF8
01FFCFF8
03FF8FF0
03FF87F0
03FF83F0
03FF83E0
03FF87C0
07FF07C0
07FF1F00
07FF1E00
07FF0C00
07FE0000
0FFE0000
0FFE0000
0FFE0000
0FFE0000
0FFC0000
1FFC0000
1FFC0000
1FFC0000
1FFC0000
1FF80000
3FF80000
3FF80000
3FF80000
3FF80000
3FF00000
7FF00000
7FF00000
7FF00000
7FF00000
FFE00000
ENDCHAR
STARTCHAR 013F
ENCODING 319
SWIDTH 511 0
DWIDTH 27 0
BBX 27 35 0 0
BITMAP
01FFE000
01FFC000
01FFC000
03FFC000
03FFC000
03FFC000
03FF8000
03FF8000
07FF8000
07FF8000
07FF0000
07FF0000
07FF0000
0FFF0000
0FFF0F80
0FFE3FC0
0FFE7FE0
0FFE7FE0
1FFEFFE0
1FFE7FE0
1FFC7FE0
1FFC7FC0
1FFC1F00
3FFC0000
3FFC0000
3FF80000
3FF80000
3FF80000
7FF80000
7FF80000
7FFFFE00
7FFFFE00
7FFFFE00
FFFFFE00
FFFFFC00
ENDCHAR
STARTCHAR 0140
ENCODING 320
SWIDTH 473 0
DWIDTH 25 0
BBX 27 37 -1 0
BITMAP
00FFE000
00FFE000
01FFC000
01FFC000
01FFC000
01FFC000
01FFC000
03FF8000
03FF8000
03FF8000
03FF8000
03FF8000
07FF0000
07FF0000
07FF0000
07FF0000
07FE0F80
0FFE3FC0
0FFE7FE0
0FFE7FE0
0FFEFFE0
0FFCFFE0
1FFC7FE0
1FFC7FC0
1FFC1F00
1FFC0000
1FF80000
3FF80000
3FF80000
3FF80000
3FF80000
3FF00000
7FF00000
7FF00000
7FF00000
7FF00000
FFE00000
ENDCHAR
STARTCHAR 0141
ENCODING 321
SWIDTH 511 0
DWIDTH 27 0
BBX 25 35 0 0
BITMAP
007FF000
007FF000
00FFF000
00FFF000
00FFE000
00FFE000
00FFE000
01FFE000
01FFE000
01FFC000
01FFC000
01FFC000
03FFCE00
03FFFE00
03FFFC00
0FFFFC00
FFFFFC00
FFFFF800
FFFF8000
FFFF0000
F7FF0000
0FFF0000
0FFF0000
0FFF0000
0FFE0000
0FFE0000
1FFE0000
1FFE0000
1FFC0000
1FFC0000
1FFFFF80
3FFFFF80
3FFFFF00
3FFFFF00
3FFFFF00
ENDCHAR
STARTCHAR 0142
ENCODING 322
SWIDTH 397 0
DWIDTH 21 0
BBX 24 37 0 0
BITMAP
003FF8
003FF8
003FF8
007FF0
007FF0
007FF0
007FF0
007FF0
00FFE0
00FFE0
00FFE1
00FFE7
00FFFF
01FFFF
01FFFE
01FFFE
07FFF8
3FFFC0
7FFF80
7FFF80
7FFF80
7BFF80
C3FF00
07FF00
07FF00
07FF00
07FF00
07FE00
0FFE00
0FFE00
0FFE00
0FFE00
0FFC00
1FFC00
1FFC00
1FFC00
1FFC00
ENDCHAR
STARTCHAR 0143
ENCODING 323
SWIDTH 644 0
DWIDTH 34 0
BBX 36 46 0 0
BITMAP
000000FF80
000000FF00
000001FE00
000003FC00
000003F800
000007F000
000007C000
00000F8000
00001F0000
0000000000
0000000000
01FFF001F0
01FFF003E0
01FFF003E0
03FFF803E0
03FFF803E0
03FFF807C0
03FFF807C0
03FFF807C0
07FFFC07C0
07FFFC07C0
07FFFC0F80
07FFFC0F80
079FFE0F80
0F9FFE0F80
0F9FFE0F80
0F9FFE1F00
0F9FFE1F00
0F0FFF1F00
1F0FFF1F00
1F0FFF1E00
1F0FFF3E00
1F07FF3E00
1E07FFBE00
3E07FFBE00
3E07FFBC00
3E03FFFC00
3E03FFFC00
3C03FFFC00
7C03FFFC00
7C01FFF800
7C01FFF800
7C01FFF800
7801FFF800
F801FFF800
F800FFF000
ENDCHAR
STARTCHAR 0144
ENCODING 324
SWIDTH 587 0
DWIDTH 31 0
BBX 31 35 -1 0
BITMAP
00001FF8
00001FE0
00003FC0
00003F80
00007F00
00007E00
0000FC00
0001F800
0001F000
00000000
00000000
00000080
07FC0FF0
07FC3FF8
07FEFFFC
07FFFFFC
0FFFFFFE
0FFF1FFE
0FFE0FFC
0FFE1FFC
0FFC1FFC
1FFC1FFC
1FFC1FFC
1FFC1FF8
1FFC3FF8
3FF83FF8
3FF83FF8
3FF83FF8
3FF83FF0
3FF07FF0
7FF07FF0
7FF07FF0
7FF07FF0
7FF07FE0
FFE0FFE0
ENDCHAR
STARTCHAR 0145
ENCODING 325
SWIDTH 644 0
DWIDTH 34 0
BBX 36 51 0 -16
BITMAP
01FFF001F0
01FFF003E0
01FFF003E0
03FFF803E0
03FFF803E0
03FFF807C0
03FFF807C0
03FFF807C0
07FFFC07C0
07FFFC07C0
07FFFC0F80
07FFFC0F80
079FFE0F80
0F9FFE0F80
0F9FFE0F80
0F9FFE1F00
0F9FFE1F00
0F0FFF1F00
1F0FFF1F00
1F0FFF1E00
1F0FFF3E00
1F07FF3E00
1E07FFBE00
3E07FFBE00
3E07FFBC00
3E03FFFC00
3E03FFFC00
3C03FFFC00
7C03FFFC00
7C01FFF800
7C01FFF800
7C01FFF800
7801FFF800
F801FFF800
F800FFF000
0000000000
0000000000
0000000000
0002000000
001F800000
003F800000
003FC00000
003FC00000
001FC00000
000F800000
000F800000
000F000000
001E000000
003C000000
0070000000
0020000000
ENDCHAR
STARTCHAR 0146
ENCODING 326
SWIDTH 587 0
DWIDTH 31 0
BBX 31 40 -1 -16
BITMAP
00000080
07FC0FF0
07FC3FF8
07FEFFFC
07FFFFFC
0FFFFFFE
0FFF1FFE
0FFE0FFC
0FFE1FFC
0FFC1FFC
1FFC1FFC
1FFC1FFC
1FFC1FF8
1FFC3FF8
3FF83FF8
3FF83FF8
3FF83FF8
3FF83FF0
3FF07FF0
7FF07FF0
7FF07FF0
7FF07FF0
7FF07FE0
FFE0FFE0
00000000
00000000
00000000
00040000
003F0000
007F0000
007F8000
007F8000
003F8000
001F0000
001F0000
001E0000
003C0000
00780000
00E00000
00400000
ENDCHAR
STARTCHAR 0147
ENCODING 327
SWIDTH 644 0
DWIDTH 34 0
BBX 36 46 0 0
BITMAP
0007800F80
0007C01F00
0003C07E00
0003E0FC00
0001F1F800
0001FFF000
0000FFE000
0000FFC000
00007F8000
0000000000
0000000000
01FFF001F0
01FFF003E0
01FFF003E0
03FFF803E0
03FFF803E0
03FFF807C0
03FFF807C0
03FFF807C0
07FFFC07C0
07FFFC07C0
07FFFC0F80
07FFFC0F80
079FFE0F80
0F9FFE0F80
0F9FFE0F80
0F9FFE1F00
0F9FFE1F00
0F0FFF1F00
1F0FFF1F00
1F0FFF1E00
1F0FFF3E00
1F07FF3E00
1E07FFBE00
3E07FFBE00
3E07FFBC00
3E03FFFC00
3E03FFFC00
3C03FFFC00
7C03FFFC00
7C01FFF800
7C01FFF800
7C01FFF800
7801FFF800
F801FFF800
F800FFF000
ENDCHAR
STARTCHAR 0148
ENCODING 328
SWIDTH 587 0
DWIDTH 31 0
BBX 31 35 -1 0
BITMAP
003C007C
001E01F0
001F03F0
000F87E0
000F8FC0
0007FF80
0007FF00
0003FE00
0003FC00
00000000
00000000
00000080
07FC0FF0
07FC3FF8
07FEFFFC
07FFFFFC
0FFFFFFE
0FFF1FFE
0FFE0FFC
0FFE1FFC
0FFC1FFC
1FFC1FFC
1FFC1FFC
1FFC1FF8
1FFC3FF8
3FF83FF8
3FF83FF8
3FF83FF8
3FF83FF0
3FF07FF0
7FF07FF0
7FF07FF0
7FF07FF0
7FF07FE0
FFE0FFE0
ENDCHAR
STARTCHAR 0149
ENCODING 329
SWIDTH 587 0
DWIDTH 31 0
BBX 31 42 -1 0
BITMAP
00780000
00FE0000
01FE0000
03FE0000
03FE0000
03FE0000
01FE0000
00FE0000
007C0000
00780000
00F80000
01F00000
03C00000
03800000
02000000
00000000
00000000
00000000
00000080
07FC0FF0
07FC3FF8
07FEFFFC
07FFFFFC
0FFFFFFE
0FFF1FFE
0FFE0FFC
0FFE1FFC
0FFC1FFC
1FFC1FFC
1FFC1FFC
1FFC1FF8
1FFC3FF8
3FF83FF8
3FF83FF8
3FF83FF8
3FF83FF0
3FF07FF0
7FF07FF0
7FF07FF0
7FF07FF0
7FF07FE0
FFE0FFE0
ENDCHAR
STARTCHAR 014A
ENCODING 330
SWIDTH 644 0
DWIDTH 34 0
BBX 36 44 0 -9
BITMAP
01FFF001F0
01FFF003E0
01FFF003E0
03FFF803E0
03FFF803E0
03FFF807C0
03FFF807C0
03FFF807C0
07FFFC07C0
07FFFC07C0
07FFFC0F80
07DFFC0F80
07DFFE0F80
0F9FFE0F80
0F9FFE0F80
0F8FFE1F00
0F8FFE1F00
0F0FFF1F00
1F07FF1F00
1F07FF1F00
1F07FF3E00
1F03FF3E00
1E03FFBE00
3E03FFBE00
3E03FFBC00
3E01FFFC00
3E01FFFC00
3C01FFFC00
7C00FFFC00
7C00FFF800
7C00FFF800
7C00FFF800
78007FF800
F8007FF800
F8007FF000
00007FF000
00007FE000
0000FFE000
0001FFC000
01FFFF8000
01FFFF0000
03FFFE0000
03FFF80000
00FFC00000
ENDCHAR
STARTCHAR 014B
ENCODING 331
SWIDTH 587 0
DWIDTH 31 0
BBX 31 33 -1 -9
BITMAP
00000080
07FC0FF0
07FC3FF8
07FEFFFC
07FFFFFC
0FFFFFFE
0FFF1FFE
0FFE0FFC
0FFE1FFC
0FFC1FFC
1FFC1FFC
1FFC1FFC
1FFC1FF8
1FFC3FF8
3FF83FF8
3FF83FF8
3FF83FF8
3FF83FF0
3FF07FF0
7FF07FF0
7FF07FF0
7FF07FF0
7FF07FE0
FFE0FFE0
0000FFE0
0000FFC0
0000FFC0
0001FF80
0003FF80
000FFF00
000FFC00
001FF800
001F8000
ENDCHAR
STARTCHAR 014C
ENCODING 332
SWIDTH 682 0
DWIDTH 36 0
BBX 34 44 2 0
BITMAP
0007FFFF00
000FFFFE00
000FFFFE00
000FFFFE00
0000000000
0000000000
0000000000
0000000000
0000100000
0007FFE000
003FFFF800
00FFFFFC00
01FFE7FE00
03FFC3FF00
07FF83FF00
0FFF03FF80
1FFE03FF80
1FFE03FF80
3FFE03FFC0
3FFC03FFC0
7FFC03FFC0
7FFC03FFC0
7FF803FFC0
7FF803FFC0
FFF803FFC0
FFF807FFC0
FFF007FFC0
FFF007FF80
FFF007FF80
FFF00FFF80
FFF00FFF80
FFF00FFF00
FFE00FFF00
FFE01FFE00
FFE01FFE00
FFE03FFC00
7FE03FFC00
7FF07FF800
7FF07FF000
3FF0FFF000
1FFFFFC000
0FFFFF8000
03FFFE0000
00FFF00000
ENDCHAR
STARTCHAR 014D
ENCODING 333
SWIDTH 568 0
DWIDTH 30 0
BBX 28 33 1 0
BITMAP
00FFFFE0
00FFFFE0
00FFFFC0
01FFFFC0
00000000
00000000
00000000
00000000
00000000
00010000
00FFFE00
03FFFF80
0FFFFFC0
1FFEFFC0
3FF87FE0
3FF87FE0
7FF07FF0
7FF07FF0
FFE07FF0
FFE07FF0
FFE07FF0
FFE07FF0
FFE0FFF0
FFC0FFE0
FFC0FFE0
FFC0FFE0
FFC1FFC0
FFC1FFC0
7FE3FF80
3FFFFF00
1FFFFC00
0FFFF800
01FF8000
ENDCHAR
STARTCHAR 014E
ENCODING 334
SWIDTH 682 0
DWIDTH 36 0
BBX 34 46 2 0
BITMAP
0000000C00
0003801E00
0003803E00
0003E0FC00
0003FFF800
0001FFF000
0000FFE000
00003F0000
0000000000
0000000000
0000100000
0007FFE000
003FFFF800
00FFFFFC00
01FFE7FE00
03FFC3FF00
07FF83FF00
0FFF03FF80
1FFE03FF80
1FFE03FF80
3FFE03FFC0
3FFC03FFC0
7FFC03FFC0
7FFC03FFC0
7FF803FFC0
7FF803FFC0
FFF803FFC0
FFF807FFC0
FFF007FFC0
FFF007FF80
FFF007FF80
FFF00FFF80
FFF00FFF80
FFF00FFF00
FFE00FFF00
FFE01FFE00
FFE01FFE00
FFE03FFC00
7FE03FFC00
7FF07FF800
7FF07FF000
3FF0FFF000
1FFFFFC000
0FFFFF8000
03FFFE0000
00FFF00000
ENDCHAR
STARTCHAR 014F
ENCODING 335
SWIDTH 568 0
DWIDTH 30 0
BBX 28 35 1 0
BITMAP
000000C0
003801E0
003803E0
003E0FC0
003FFF80
001FFF00
000FFE00
0003F000
00000000
00000000
00000000
00010000
00FFFE00
03FFFF80
0FFFFFC0
1FFEFFC0
3FF87FE0
3FF87FE0
7FF07FF0
7FF07FF0
FFE07FF0
FFE07FF0
FFE07FF0
FFE07FF0
FFE0FFF0
FFC0FFE0
FFC0FFE0
FFC0FFE0
FFC1FFC0
FFC1FFC0
7FE3FF80
3FFFFF00
1FFFFC00
0FFFF800
01FF8000
ENDCHAR
STARTCHAR 0150
ENCODING 336
SWIDTH 682 0
DWIDTH 36 0
BBX 40 46 2 0
BITMAP
00003FE3FF
00007F87FC
0000FF07F0
0000FE0FE0
0001F81FC0
0003F03F00
0007E03E00
000F807C00
0000000000
0000000000
0000100000
0007FFE000
003FFFF800
00FFFFFC00
01FFE7FE00
03FFC3FF00
07FF83FF00
0FFF03FF80
1FFE03FF80
1FFE03FF80
3FFE03FFC0
3FFC03FFC0
7FFC03FFC0
7FFC03FFC0
7FF803FFC0
7FF803FFC0
FFF803FFC0
FFF807FFC0
FFF007FFC0
FFF007FF80
FFF007FF80
FFF00FFF80
FFF00FFF80
FFF00FFF00
FFE00FFF00
FFE01FFE00
FFE01FFE00
FFE03FFC00
7FE03FFC00
7FF07FF800
7FF07FF000
3FF0FFF000
1FFFFFC000
0FFFFF8000
03FFFE0000
00FFF00000
ENDCHAR
STARTCHAR 0151
ENCODING 337
SWIDTH 568 0
DWIDTH 30 0
BBX 35 35 1 0
BITMAP
0007FE3FE0
0007F87F80
000FF0FF00
001FC1FE00
003F81F800
003F03F000
007C07E000
00F80F8000
0000000000
0000000000
0000000000
0001000000
00FFFE0000
03FFFF8000
0FFFFFC000
1FFEFFC000
3FF87FE000
3FF87FE000
7FF07FF000
7FF07FF000
FFE07FF000
FFE07FF000
FFE07FF000
FFE07FF000
FFE0FFF000
FFC0FFE000
FFC0FFE000
FFC0FFE000
FFC1FFC000
FFC1FFC000
7FE3FF8000
3FFFFF0000
1FFFFC0000
0FFFF80000
01FF800000
ENDCHAR
STARTCHAR 0152
ENCODING 338
SWIDTH 871 0
DWIDTH 46 0
BBX 47 35 2 0
BITMAP
0001FFFFFFFE
001FFFFFFFFE
007FFFFFFFFE
00FFFFFFFFFC
03FFC7FFE000
07FF83FFE000
0FFF03FFE000
0FFF03FFE000
1FFE03FFE000
1FFE03FFC000
3FFC03FFC000
3FFC03FFC000
7FFC03FFC000
7FF803FFC000
7FF803FF8000
FFF803FFFFC0
FFF807FFFFC0
FFF007FFFFC0
FFF007FFFFC0
FFF007FF0000
FFF00FFF0000
FFF00FFF0000
FFF00FFF0000
FFE00FFE0000
FFE01FFE0000
FFE01FFE0000
FFE03FFE0000
7FE03FFE0000
7FF07FFE0000
7FF07FFC0000
3FF0FFFC0000
1FFFFFFFFF80
0FFFFFFFFF80
07FFFFFFFF00
00FFFFFFFF00
ENDCHAR
STARTCHAR 0153
ENCODING 339
SWIDTH 928 0
DWIDTH 49 0
BBX 47 24 1 0
BITMAP
000100000800
00FFFE07FFE0
03FFFFBFFFF8
0FFFFFFFFFFC
1FFCFFFFEFFC
3FF87FFF87FE
3FF87FFF07FE
7FF07FFF07FE
7FF07FFE07FE
FFE07FFE07FE
FFE07FFFFFFC
FFE07FFFFFFC
FFE07FFFFFF8
FFC0FFFC0000
FFC0FFFC0000
FFC0FFFC0000
FFC1FFFC0FF8
FFC1FFFC1FF0
FFC1FFFC3FF0
7FE3FFFC7FF0
3FFFFFFFFFF0
1FFFFFFFFFE0
0FFFF0FFFF80
01FF801FFC00
ENDCHAR
STARTCHAR 0154
ENCODING 340
SWIDTH 644 0
DWIDTH 34 0
BBX 33 46 0 0
BITMAP
000003FE00
000007FC00
000007F800
00000FF000
00000FC000
00001F8000
00003F0000
00003E0000
00007C0000
0000000000
0000000000
01FFFFE000
01FFFFF800
01FFFFFE00
03FFFFFF00
03FFC3FF00
03FFC1FF80
03FF81FF80
03FF81FF80
07FF81FF80
07FF81FF80
07FF03FF80
07FF03FF80
07FF03FF00
0FFF07FF00
0FFF07FE00
0FFE0FFC00
0FFFFFF800
0FFFFFF000
1FFFFFC000
1FFFFFC000
1FFDFFC000
1FFCFFE000
1FFCFFE000
3FFCFFE000
3FFC7FF000
3FF87FF000
3FF87FF000
3FF83FF800
7FF83FF800
7FF83FFC00
7FF03FFC00
7FF01FFC00
7FF01FFE00
FFF01FFE00
FFF00FFF00
ENDCHAR
STARTCHAR 0155
ENCODING 341
SWIDTH 492 0
DWIDTH 26 0
BBX 28 35 -1 0
BITMAP
00001FF0
00003FE0
00003F80
00007F00
0000FE00
0000FC00
0001F800
0001F000
0003E000
00000000
00000000
00000100
07FC1FE0
07FC7FE0
07FCFFE0
07FFFFE0
0FFFFFC0
0FFFFFC0
0FFE3FC0
0FFE1FC0
0FFC1FC0
1FFC1F80
1FFC1F80
1FFC1F80
1FFC0000
3FF80000
3FF80000
3FF80000
3FF80000
3FF00000
7FF00000
7FF00000
7FF00000
7FF00000
FFE00000
ENDCHAR
STARTCHAR 0156
ENCODING 342
SWIDTH 644 0
DWIDTH 34 0
BBX 33 51 0 -16
BITMAP
01FFFFE000
01FFFFF800
01FFFFFE00
03FFFFFF00
03FFC3FF00
03FFC1FF80
03FF81FF80
03FF81FF80
07FF81FF80
07FF81FF80
07FF03FF80
07FF03FF80
07FF03FF00
0FFF07FF00
0FFF07FE00
0FFE0FFC00
0FFFFFF800
0FFFFFF000
1FFFFFC000
1FFFFFC000
1FFDFFC000
1FFCFFE000
1FFCFFE000
3FFCFFE000
3FFC7FF000
3FF87FF000
3FF87FF000
3FF83FF800
7FF83FF800
7FF83FFC00
7FF03FFC00
7FF01FFC00
7FF01FFE00
FFF01FFE00
FFF00FFF00
0000000000
0000000000
0000000000
0002000000
000F800000
001FC00000
003FC00000
003FC00000
000FC00000
000FC00000
000F800000
000F000000
001E000000
003C000000
0038000000
0020000000
ENDCHAR
STARTCHAR 0157
ENCODING 343
SWIDTH 492 0
DWIDTH 26 0
BBX 27 40 -1 -16
BITMAP
00000100
07FC1FE0
07FC7FE0
07FCFFE0
07FFFFE0
0FFFFFC0
0FFFFFC0
0FFE3FC0
0FFE1FC0
0FFC1FC0
1FFC1F80
1FFC1F80
1FFC1F80
1FFC0000
3FF80000
3FF80000
3FF80000
3FF80000
3FF00000
7FF00000
7FF00000
7FF00000
7FF00000
FFE00000
00000000
00000000
00000000
04000000
3F000000
7F800000
7F800000
7F800000
3F800000
1F000000
1F000000
1E000000
3C000000
78000000
F0000000
40000000
ENDCHAR
STARTCHAR 0158
ENCODING 344
SWIDTH 644 0
DWIDTH 34 0
BBX 33 46 0 0
BITMAP
000F001F00
000F803E00
000780FC00
0007C1F800
0003E3F000
0003FFE000
0001FFC000
0001FF8000
0000FF0000
0000000000
0000000000
01FFFFE000
01FFFFF800
01FFFFFE00
03FFFFFF00
03FFC3FF00
03FFC1FF80
03FF81FF80
03FF81FF80
07FF81FF80
07FF81FF80
07FF03FF80
07FF03FF80
07FF03FF00
0FFF07FF00
0FFF07FE00
0FFE0FFC00
0FFFFFF800
0FFFFFF000
1FFFFFC000
1FFFFFC000
1FFDFFC000
1FFCFFE000
1FFCFFE000
3FFCFFE000
3FFC7FF000
3FF87FF000
3FF87FF000
3FF83FF800
7FF83FF800
7FF83FFC00
7FF03FFC00
7FF01FFC00
7FF01FFE00
FFF01FFE00
FFF00FFF00
ENDCHAR
STARTCHAR 0159
ENCODING 345
SWIDTH 492 0
DWIDTH 26 0
BBX 29 35 -1 0
BITMAP
007801F8
007C03E0
003E07C0
003E1F80
001F3F80
001FFF00
000FFE00
000FFC00
0007F800
00000000
00000000
00000100
07FC1FE0
07FC7FE0
07FCFFE0
07FFFFE0
0FFFFFC0
0FFFFFC0
0FFE3FC0
0FFE1FC0
0FFC1FC0
1FFC1F80
1FFC1F80
1FFC1F80
1FFC0000
3FF80000
3FF80000
3FF80000
3FF80000
3FF00000
7FF00000
7FF00000
7FF00000
7FF00000
FFE00000
ENDCHAR
STARTCHAR 015A
ENCODING 346
SWIDTH 587 0
DWIDTH 31 0
BBX 33 46 0 0
BITMAP
000000FF80
000001FE00
000003FC00
000003F800
000007F000
000007E000
00000F8000
00001F0000
0000000000
0000000000
0000040000
0003FFF000
001FFFFC00
007FFFFF00
00FFFFFE00
01FF0FFE00
03FE07FE00
07FC07FE00
0FFC07FC00
0FFC07FC00
0FFC07FC00
1FFC07FC00
1FFF000000
1FFFC00000
0FFFFC0000
0FFFFF8000
0FFFFFC000
07FFFFF000
07FFFFF000
03FFFFF800
00FFFFF800
003FFFF800
0007FFFC00
0000FFFC00
00007FFC00
00003FF800
7FE03FF800
7FE03FF800
7FE03FF800
FFE03FF000
FFE07FF000
FFF0FFE000
FFFFFFC000
FFFFFF0000
3FFFFC0000
03FFC00000
ENDCHAR
STARTCHAR 015B
ENCODING 347
SWIDTH 492 0
DWIDTH 26 0
BBX 27 35 -1 0
BITMAP
00003FE0
00007FC0
00007F80
0000FF00
0000FE00
0001F800
0001F000
0003E000
0007C000
00000000
00000000
00010000
007FFE00
03FFFF80
07FFFF80
0FFE7F80
1FF87F80
1FF87F00
1FF87F00
1FFC0000
1FFF0000
1FFFF000
1FFFFC00
0FFFFE00
07FFFF00
00FFFF00
001FFF80
0007FF80
7F03FF00
7F03FF00
7F87FF00
FFFFFE00
FFFFFC00
7FFFF000
07FF8000
ENDCHAR
STARTCHAR 015C
ENCODING 348
SWIDTH 587 0
DWIDTH 31 0
BBX 32 46 0 0
BITMAP
00000FF0
00001FF8
00003FF8
00007EFC
0000FC7C
0001F03E
0003E01F
000FC00F
00000000
00000000
00000400
0003FFF0
001FFFFC
007FFFFF
00FFFFFE
01FF0FFE
03FE07FE
07FC07FE
0FFC07FC
0FFC07FC
0FFC07FC
1FFC07FC
1FFF0000
1FFFC000
0FFFFC00
0FFFFF80
0FFFFFC0
07FFFFF0
07FFFFF0
03FFFFF8
00FFFFF8
003FFFF8
0007FFFC
0000FFFC
00007FFC
00003FF8
7FE03FF8
7FE03FF8
7FE03FF8
FFE03FF0
FFE07FF0
FFF0FFE0
FFFFFFC0
FFFFFF00
3FFFFC00
03FFC000
ENDCHAR
STARTCHAR 015D
ENCODING 349
SWIDTH 492 0
DWIDTH 26 0
BBX 26 35 -1 0
BITMAP
0007FC00
000FFC00
001FFE00
003FBE00
003F1F00
007E1F00
00F80F80
01F00780
03E003C0
00000000
00000000
00010000
007FFE00
03FFFF80
07FFFF80
0FFE7F80
1FF87F80
1FF87F00
1FF87F00
1FFC0000
1FFF0000
1FFFF000
1FFFFC00
0FFFFE00
07FFFF00
00FFFF00
001FFF80
0007FF80
7F03FF00
7F03FF00
7F87FF00
FFFFFE00
FFFFFC00
7FFFF000
07FF8000
ENDCHAR
STARTCHAR 015E
ENCODING 350
SWIDTH 587 0
DWIDTH 31 0
BBX 32 47 0 -11
BITMAP
00000400
0003FFF0
001FFFFC
007FFFFF
00FFFFFE
01FF0FFE
03FE07FE
07FC07FE
0FFC07FC
0FFC07FC
0FFC07FC
0FFC07FC
1FFE0000
1FFFC000
0FFFFC00
0FFFFF00
0FFFFFC0
0FFFFFE0
07FFFFF0
03FFFFF8
00FFFFF8
003FFFF8
0007FFFC
0000FFFC
00007FFC
00003FFC
7FE03FF8
7FE03FF8
7FE03FF8
7FE03FF0
FFE07FF0
FFF0FFE0
FFFFFFC0
FFFFFF80
3FFFFE00
07FFF000
007C0000
01F80000
03F00000
07E00000
0FE00000
0FE00000
0FE10000
0FFF0000
0FFF0000
07FE0000
03F00000
ENDCHAR
STARTCHAR 015F
ENCODING 351
SWIDTH 492 0
DWIDTH 26 0
BBX 25 35 -1 -11
BITMAP
00010000
007FFE00
03FFFF80
07FFFF80
0FFE7F80
1FF87F80
1FF87F00
1FF87F00
1FFC0000
1FFF0000
1FFFF000
1FFFFC00
0FFFFE00
07FFFF00
01FFFF00
001FFF80
0007FF80
7F03FF80
7F03FF00
7F87FF00
FFCFFE00
FFFFFC00
7FFFF800
0FFFC000
01F80000
03F00000
07E00000
0FC00000
0FC00000
1FC00000
1FC60000
1FFE0000
1FFE0000
0FFC0000
07E00000
ENDCHAR
STARTCHAR 0160
ENCODING 352
SWIDTH 587 0
DWIDTH 31 0
BBX 32 46 0 0
BITMAP
000F801F
0007C03E
0003E0FC
0003E1F8
0001F3F0
0001FFE0
0000FFC0
0000FF80
00000000
00000000
00000400
0003FFF0
001FFFFC
007FFFFF
00FFFFFE
01FF0FFE
03FE07FE
07FC07FE
0FFC07FC
0FFC07FC
0FFC07FC
1FFC07FC
1FFF0000
1FFFC000
0FFFFC00
0FFFFF80
0FFFFFC0
07FFFFF0
07FFFFF0
03FFFFF8
00FFFFF8
003FFFF8
0007FFFC
0000FFFC
00007FFC
00003FF8
7FE03FF8
7FE03FF8
7FE03FF8
FFE03FF0
FFE07FF0
FFF0FFE0
FFFFFFC0
FFFFFF00
3FFFFC00
03FFC000
ENDCHAR
STARTCHAR 0161
ENCODING 353
SWIDTH 492 0
DWIDTH 26 0
BBX 28 35 -1 0
BITMAP
00F001F0
007807E0
007C0FC0
003E1F80
003F3F00
001FFE00
001FFC00
000FF800
000FF000
00000000
00000000
00010000
007FFE00
03FFFF80
07FFFF80
0FFE7F80
1FF87F80
1FF87F00
1FF87F00
1FFC0000
1FFF0000
1FFFF000
1FFFFC00
0FFFFE00
07FFFF00
00FFFF00
001FFF80
0007FF80
7F03FF00
7F03FF00
7F87FF00
FFFFFE00
FFFFFC00
7FFFF000
07FF8000
ENDCHAR
STARTCHAR 0162
ENCODING 354
SWIDTH 549 0
DWIDTH 29 0
BBX 30 46 3 -11
BITMAP
3FFFFFFC
7FFFFFFC
7FFFFFFC
7FFFFFF8
007FF800
007FF000
007FF000
007FF000
00FFF000
00FFF000
00FFE000
00FFE000
01FFE000
01FFE000
01FFE000
01FFC000
01FFC000
03FFC000
03FFC000
03FFC000
03FF8000
03FF8000
07FF8000
07FF8000
07FF8000
07FF0000
07FF0000
0FFF0000
0FFF0000
0FFF0000
0FFE0000
0FFE0000
1FFE0000
1FFE0000
1FFE0000
07E00000
1F800000
3F000000
7F000000
7E000000
7E000000
FE100000
FFF00000
7FF80000
7FE00000
3F000000
ENDCHAR
STARTCHAR 0163
ENCODING 355
SWIDTH 397 0
DWIDTH 21 0
BBX 21 42 1 -11
BITMAP
000FC0
001FC0
001FC0
003F80
007F80
01FF80
03FF80
1FFF80
7FFFF8
7FFFF0
7FFFF0
7FFFF0
07FF00
0FFE00
0FFE00
0FFE00
0FFE00
0FFC00
1FFC00
1FFC00
1FFC00
1FFC00
1FF800
3FF800
3FF800
3FF800
3FF800
3FFF80
1FFF00
0FFF00
07FF00
0FC000
1F8000
3F0000
7E0000
FE0000
FE0000
FE3000
FFF800
FFF000
7FC000
080000
ENDCHAR
STARTCHAR 0164
ENCODING 356
SWIDTH 549 0
DWIDTH 29 0
BBX 29 46 4 0
BITMAP
00F001F0
00F803E0
00780FC0
007C1F80
003E3F00
003FFE00
001FFC00
001FF800
000FF000
00000000
00000000
7FFFFFF8
FFFFFFF8
FFFFFFF8
FFFFFFF0
00FFF000
00FFE000
00FFE000
00FFE000
01FFE000
01FFE000
01FFC000
01FFC000
03FFC000
03FFC000
03FFC000
03FF8000
03FF8000
07FF8000
07FF8000
07FF8000
07FF0000
07FF0000
0FFF0000
0FFF0000
0FFF0000
0FFE0000
0FFE0000
1FFE0000
1FFE0000
1FFE0000
1FFC0000
1FFC0000
3FFC0000
3FFC0000
3FFC0000
ENDCHAR
STARTCHAR 0165
ENCODING 357
SWIDTH 473 0
DWIDTH 25 0
BBX 30 36 2 0
BITMAP
000000F0
000003F8
000003FC
000007FC
000007FC
001F87FC
003F87FC
003F03F8
007F01F8
00FF00F0
03FF01F0
07FF03E0
3FFE07C0
FFFFFF00
FFFFE600
FFFFE000
FFFFE000
0FFC0000
1FFC0000
1FFC0000
1FFC0000
1FFC0000
1FF80000
3FF80000
3FF80000
3FF80000
3FF80000
7FF00000
7FF00000
7FF00000
7FF00000
7FF00000
7FFF0000
3FFE0000
1FFE0000
0FFE0000
ENDCHAR
STARTCHAR 0166
ENCODING 358
SWIDTH 568 0
DWIDTH 30 0
BBX 29 35 4 0
BITMAP
7FFFFFF8
7FFFFFF8
FFFFFFF8
FFFFFFF0
00FFF000
00FFF000
00FFE000
00FFE000
01FFE000
01FFE000
01FFE000
01FFC000
01FFC000
01FFC000
1FFFFC00
1FFFF800
3FFFF800
3FFFF800
07FF8000
07FF8000
07FF8000
07FF0000
07FF0000
0FFF0000
0FFF0000
0FFE0000
0FFE0000
0FFE0000
1FFE0000
1FFE0000
1FFC0000
1FFC0000
1FFC0000
3FFC0000
3FFC0000
ENDCHAR
STARTCHAR 0167
ENCODING 359
SWIDTH 397 0
DWIDTH 21 0
BBX 22 31 0 0
BITMAP
0007E0
000FE0
000FE0
001FC0
003FC0
00FFC0
01FFC0
0FFFC0
3FFFFC
3FFFF8
3FFFF8
3FFFF8
03FF00
07FF00
07FF00
7FFFF0
7FFFF0
7FFFE0
FFFFE0
0FFE00
0FFE00
0FFE00
1FFC00
1FFC00
1FFC00
1FFC00
1FFC00
1FFFC0
0FFF80
07FF80
03FF80
ENDCHAR
STARTCHAR 0168
ENCODING 360
SWIDTH 625 0
DWIDTH 33 0
BBX 33 46 2 0
BITMAP
0001FE0700
0003FFFF00
0007FFFE00
000FFFFE00
001FFFFC00
001C3FF800
000803F000
0000000000
0000000000
0000000000
0000000000
07FF800F80
0FFF800F80
0FFF000F80
0FFF001F00
0FFF001F00
0FFF001F00
1FFE001F00
1FFE001E00
1FFE003E00
1FFE003E00
1FFE003E00
3FFC003E00
3FFC003C00
3FFC007C00
3FFC007C00
3FFC007C00
7FF8007C00
7FF8007800
7FF800F800
7FF800F800
7FF800F800
FFF000F800
FFF000F000
FFF001F000
FFF001F000
FFF001F000
FFF003E000
FFF003E000
FFF807C000
FFFC1FC000
7FFFFF8000
7FFFFF0000
3FFFFC0000
0FFFF00000
03FF800000
ENDCHAR
STARTCHAR 0169
ENCODING 361
SWIDTH 587 0
DWIDTH 31 0
BBX 30 35 1 0
BITMAP
0007F018
001FFFF8
003FFFF8
007FFFF0
00FFFFE0
00E1FFC0
00401F80
00000000
00000000
00000000
00000000
00000000
1FFC1FFC
1FFC3FF8
1FF83FF8
3FF83FF8
3FF83FF8
3FF83FF0
3FF07FF0
7FF07FF0
7FF07FF0
7FF07FF0
7FF07FE0
7FE0FFE0
FFE0FFE0
FFE0FFE0
FFE0FFE0
FFE1FFC0
FFE1FFC0
FFE3FFC0
FFFFFFC0
FFFFFF80
7FFDFF80
7FF0FF80
1FC0FF80
ENDCHAR
STARTCHAR 016A
ENCODING 362
SWIDTH 625 0
DWIDTH 33 0
BBX 33 44 2 0
BITMAP
0007FFFF00
0007FFFE00
000FFFFE00
000FFFFE00
0000000000
0000000000
0000000000
0000000000
0000000000
07FF800F80
0FFF800F80
0FFF000F80
0FFF001F00
0FFF001F00
0FFF001F00
1FFE001F00
1FFE001E00
1FFE003E00
1FFE003E00
1FFE003E00
3FFC003E00
3FFC003C00
3FFC007C00
3FFC007C00
3FFC007C00
7FF8007C00
7FF8007800
7FF800F800
7FF800F800
7FF800F800
FFF000F800
FFF000F000
FFF001F000
FFF001F000
FFF001F000
FFF003E000
FFF003E000
FFF807C000
FFFC1FC000
7FFFFF8000
7FFFFF0000
3FFFFC0000
0FFFF00000
03FF800000
ENDCHAR
STARTCHAR 016B
ENCODING 363
SWIDTH 587 0
DWIDTH 31 0
BBX 30 33 1 0
BITMAP
007FFFF0
007FFFF0
00FFFFE0
00FFFFE0
00000000
00000000
00000000
00000000
00000000
00000000
1FFC1FFC
1FFC3FF8
1FF83FF8
3FF83FF8
3FF83FF8
3FF83FF0
3FF07FF0
7FF07FF0
7FF07FF0
7FF07FF0
7FF07FE0
7FE0FFE0
FFE0FFE0
FFE0FFE0
FFE0FFE0
FFE1FFC0
FFE1FFC0
FFE3FFC0
FFFFFFC0
FFFFFF80
7FFDFF80
7FF0FF80
1FC0FF80
ENDCHAR
STARTCHAR 016C
ENCODING 364
SWIDTH 625 0
DWIDTH 33 0
BBX 33 46 2 0
BITMAP
0000000C00
0003001E00
0007803C00
0003C0F800
0003FFF800
0001FFF000
0000FFC000
00007F0000
0000000000
0000000000
0000000000
07FF800F80
0FFF800F80
0FFF000F80
0FFF001F00
0FFF001F00
0FFF001F00
1FFE001F00
1FFE001E00
1FFE003E00
1FFE003E00
1FFE003E00
3FFC003E00
3FFC003C00
3FFC007C00
3FFC007C00
3FFC007C00
7FF8007C00
7FF8007800
7FF800F800
7FF800F800
7FF800F800
FFF000F800
FFF000F000
FFF001F000
FFF001F000
FFF001F000
FFF003E000
FFF003E000
FFF807C000
FFFC1FC000
7FFFFF8000
7FFFFF0000
3FFFFC0000
0FFFF00000
03FF800000
ENDCHAR
STARTCHAR 016D
ENCODING 365
SWIDTH 587 0
DWIDTH 31 0
BBX 30 35 1 0
BITMAP
00000040
003800E0
003C03E0
003E0FC0
001FFF80
001FFF00
000FFE00
0003F800
00000000
00000000
00000000
00000000
1FFC1FFC
1FFC3FF8
1FF83FF8
3FF83FF8
3FF83FF8
3FF83FF0
3FF07FF0
7FF07FF0
7FF07FF0
7FF07FF0
7FF07FE0
7FE0FFE0
FFE0FFE0
FFE0FFE0
FFE0FFE0
FFE1FFC0
FFE1FFC0
FFE3FFC0
FFFFFFC0
FFFFFF80
7FFDFF80
7FF0FF80
1FC0FF80
ENDCHAR
STARTCHAR 016E
ENCODING 366
SWIDTH 625 0
DWIDTH 33 0
BBX 33 47 2 0
BITMAP
0000078000
00001FC000
00003FE000
000038E000
000038E000
000038E000
000039E000
00003FC000
00001FC000
00000F0000
0000000000
0000000000
07FF800F80
0FFF800F80
0FFF000F80
0FFF001F00
0FFF001F00
0FFF001F00
1FFE001F00
1FFE001E00
1FFE003E00
1FFE003E00
1FFE003E00
3FFC003E00
3FFC003C00
3FFC007C00
3FFC007C00
3FFC007C00
7FF8007C00
7FF8007800
7FF800F800
7FF800F800
7FF800F800
FFF000F800
FFF000F000
FFF001F000
FFF001F000
FFF001F000
FFF003E000
FFF003E000
FFF807C000
FFFC1FC000
7FFFFF8000
7FFFFF0000
3FFFFC0000
0FFFF00000
03FF800000
ENDCHAR
STARTCHAR 016F
ENCODING 367
SWIDTH 587 0
DWIDTH 31 0
BBX 30 36 1 0
BITMAP
0000F000
0001FC00
0003FC00
00079E00
00070E00
00070E00
00079C00
0003FC00
0003F800
0000F000
00000000
00000000
00000000
1FFC1FFC
1FFC3FF8
1FF83FF8
3FF83FF8
3FF83FF8
3FF83FF0
3FF07FF0
7FF07FF0
7FF07FF0
7FF07FF0
7FF07FE0
7FE0FFE0
FFE0FFE0
FFE0FFE0
FFE0FFE0
FFE1FFC0
FFE1FFC0
FFE3FFC0
FFFFFFC0
FFFFFF80
7FFDFF80
7FF0FF80
1FC0FF80
ENDCHAR
STARTCHAR 0170
ENCODING 368
SWIDTH 625 0
DWIDTH 33 0
BBX 39 46 2 0
BITMAP
00007FC7FE
0000FF87F8
0001FE0FF0
0001FC1FC0
0003F83F80
0007E03F00
000FC07C00
001F80F800
0000000000
0000000000
0000000000
07FF800F80
0FFF800F80
0FFF000F80
0FFF001F00
0FFF001F00
0FFF001F00
1FFE001F00
1FFE001E00
1FFE003E00
1FFE003E00
1FFE003E00
3FFC003E00
3FFC003C00
3FFC007C00
3FFC007C00
3FFC007C00
7FF8007C00
7FF8007800
7FF800F800
7FF800F800
7FF800F800
FFF000F800
FFF000F000
FFF001F000
FFF001F000
FFF001F000
FFF003E000
FFF003E000
FFF807C000
FFFC1FC000
7FFFFF8000
7FFFFF0000
3FFFFC0000
0FFFF00000
03FF800000
ENDCHAR
STARTCHAR 0171
ENCODING 369
SWIDTH 587 0
DWIDTH 31 0
BBX 35 35 1 0
BITMAP
0007FE7FE0
000FF87F80
000FE0FF00
001FC1FC00
003F83F800
007E03F000
007C07C000
01F80F8000
0000000000
0000000000
0000000000
0000000000
1FFC1FFC00
1FFC3FF800
1FF83FF800
3FF83FF800
3FF83FF800
3FF83FF000
3FF07FF000
7FF07FF000
7FF07FF000
7FF07FF000
7FF07FE000
7FE0FFE000
FFE0FFE000
FFE0FFE000
FFE0FFE000
FFE1FFC000
FFE1FFC000
FFE3FFC000
FFFFFFC000
FFFFFF8000
7FFDFF8000
7FF0FF8000
1FC0FF8000
ENDCHAR
STARTCHAR 0172
ENCODING 370
SWIDTH 625 0
DWIDTH 33 0
BBX 33 46 2 -11
BITMAP
07FF800F80
0FFF800F80
0FFF000F80
0FFF001F00
0FFF001F00
0FFF001F00
1FFE001F00
1FFE001F00
1FFE003E00
1FFE003E00
1FFE003E00
3FFC003E00
3FFC003C00
3FFC007C00
3FFC007C00
3FFC007C00
7FF8007C00
7FF8007800
7FF800F800
7FF800F800
7FF800F800
FFF000F800
FFF000F000
FFF001F000
FFF001F000
FFF001F000
FFF001E000
FFF003E000
FFF007C000
FFF80FC000
FFFFFF8000
7FFFFF0000
3FFFFE0000
1FFFF80000
07FFC00000
00FC000000
01F0000000
03F0000000
07E0000000
0FE0000000
0FC0000000
0FE2000000
0FFF000000
0FFF000000
0FFC000000
03F0000000
ENDCHAR
STARTCHAR 0173
ENCODING 371
SWIDTH 587 0
DWIDTH 31 0
BBX 30 34 1 -11
BITMAP
1FFC1FFC
1FFC3FF8
1FF83FF8
3FF83FF8
3FF83FF8
3FF83FF0
3FF07FF0
7FF07FF0
7FF07FF0
7FF07FF0
7FF0FFE0
7FE0FFE0
FFE0FFE0
FFE0FFE0
FFE0FFE0
FFE1FFC0
FFE1FFC0
FFE3FFC0
FFFFFFC0
FFFFFF80
7FF9FF80
7FF0FF80
1FC0FF80
00007E00
0000F800
0001F000
0003F000
0007E000
0007E000
0007F100
0007FF80
0007FF80
0007FE00
0003F800
ENDCHAR
STARTCHAR 0174
ENCODING 372
SWIDTH 947 0
DWIDTH 50 0
BBX 49 46 4 0
BITMAP
0000001FE00000
0000003FE00000
0000007FF00000
000000FFF00000
000001F8F80000
000003F0F80000
000007C07C0000
00000F803E0000
00001F001E0000
00000000000000
00000000000000
FFF801FF801F80
FFF803FF801F80
FFF803FF801F00
FFF803FFC03F00
FFF807FFC03E00
FFF807FFC03E00
7FF80FFFC07E00
7FF80FFFC07C00
7FF80FFFC0FC00
7FF81FFFC0FC00
7FF81FFFC0F800
7FF81FFFC1F800
7FFC3FFFC1F000
7FFC3FFFC1F000
7FFC7FFFC3F000
7FFC7FFFC3E000
7FFC7FFFC7E000
7FFCFDFFC7E000
7FFCFDFFC7C000
7FFCF9FFCFC000
7FFDF9FFCFC000
3FFDF9FFEF8000
3FFDF1FFFF8000
3FFFF1FFFF0000
3FFFE0FFFF0000
3FFFE0FFFF0000
3FFFE0FFFE0000
3FFFC0FFFE0000
3FFFC0FFFE0000
3FFF80FFFC0000
3FFF80FFFC0000
3FFF80FFF80000
3FFF00FFF80000
3FFF00FFF80000
3FFE00FFF00000
ENDCHAR
STARTCHAR 0175
ENCODING 373
SWIDTH 833 0
DWIDTH 44 0
BBX 43 35 2 0
BITMAP
000007FC0000
00000FFE0000
00000FFE0000
00001FBF0000
00003F1F0000
00007E0F8000
0000F80F8000
0001F007C000
0003E003C000
000000000000
000000000000
000000000000
FFE01FF807E0
FFE01FFC07E0
FFE03FFC07C0
FFE03FFC0FC0
FFF07FFC0F80
7FF07FFC1F80
7FF07FFC1F00
7FF0FFFC1F00
7FF0FFFC3E00
7FF1FFFE3E00
7FF1FFFE7C00
3FF1FFFE7C00
3FFBEFFE7C00
3FFBEFFEF800
3FFFCFFEF800
3FFFCFFFF000
3FFF87FFF000
3FFF87FFE000
1FFF07FFE000
1FFF07FFC000
1FFF07FFC000
1FFE07FF8000
1FFE03FF8000
ENDCHAR
STARTCHAR 0176
ENCODING 374
SWIDTH 568 0
DWIDTH 30 0
BBX 30 46 4 0
BITMAP
0000FF00
0001FF00
0003FF80
0007FF80
000FC7C0
001F83E0
003E03E0
007C01F0
00F800F0
00000000
00000000
FFF800FC
7FF800F8
7FF801F8
7FFC03F0
7FFC03E0
3FFC07E0
3FFE07C0
3FFE0F80
3FFE0F80
3FFE1F00
1FFF3F00
1FFF3E00
1FFF7C00
1FFF7C00
0FFFF800
0FFFF800
0FFFF000
0FFFE000
07FFE000
07FFC000
07FF8000
07FF8000
07FF0000
07FF0000
07FF0000
0FFF0000
0FFF0000
0FFE0000
0FFE0000
0FFE0000
1FFE0000
1FFE0000
1FFC0000
1FFC0000
3FFC0000
ENDCHAR
STARTCHAR 0177
ENCODING 375
SWIDTH 511 0
DWIDTH 27 0
BBX 32 44 -3 -9
BITMAP
00001FF0
00003FF0
00007FF8
0000FEF8
0000FC7C
0001F07C
0003E03E
0007C01E
000F800F
00000000
00000000
00000000
07FF003F
07FF007E
07FF807E
03FF80FC
03FF80F8
03FF81F8
03FF81F0
03FF83F0
03FF83E0
03FF87E0
01FF87C0
01FF8FC0
01FFCF80
01FFDF00
01FFDF00
01FFFE00
01FFFE00
00FFFC00
00FFFC00
00FFF800
00FFF800
00FFF000
00FFF000
00FFE000
00FFC000
00FFC000
00FF8000
01FF0000
FFFE0000
FFFC0000
FFF00000
FFC00000
ENDCHAR
STARTCHAR 0178
ENCODING 376
SWIDTH 568 0
DWIDTH 30 0
BBX 30 45 4 0
BITMAP
001F01E0
003F87F0
007F87F0
007F8FF0
007F8FF0
007F8FF0
003F07E0
001E03C0
00000000
00000000
FFF800FC
7FF800F8
7FF801F8
7FFC03F0
7FFC03E0
3FFC07E0
3FFE07C0
3FFE0F80
3FFE0F80
3FFE1F00
1FFF3F00
1FFF3E00
1FFF7C00
1FFF7C00
0FFFF800
0FFFF800
0FFFF000
0FFFE000
07FFE000
07FFC000
07FF8000
07FF8000
07FF0000
07FF0000
07FF0000
0FFF0000
0FFF0000
0FFE0000
0FFE0000
0FFE0000
1FFE0000
1FFE0000
1FFC0000
1FFC0000
3FFC0000
ENDCHAR
STARTCHAR 0179
ENCODING 377
SWIDTH 549 0
DWIDTH 29 0
BBX 32 46 -1 0
BITMAP
000003FE
000007FC
000007F8
00000FE0
00001FC0
00001F80
00003F00
00003E00
00007C00
00000000
00000000
03FFFFFF
07FFFFFF
07FFFFFF
07FFFFFF
00003FFE
00007FFE
0000FFFC
0000FFFC
0001FFF8
0003FFF0
0003FFF0
0007FFE0
000FFFC0
000FFFC0
001FFF80
003FFF00
003FFF00
007FFE00
00FFFC00
00FFFC00
01FFF800
03FFF800
03FFF000
07FFE000
0FFFE000
0FFFC000
1FFF8000
3FFF8000
3FFF0000
7FFE0000
7FFE0000
7FFFFFF0
FFFFFFF0
FFFFFFF0
FFFFFFE0
ENDCHAR
STARTCHAR 017A
ENCODING 378
SWIDTH 473 0
DWIDTH 25 0
BBX 28 35 -2 0
BITMAP
00001FF0
00003FE0
00003F80
00007F00
0000FE00
0000FC00
0001F800
0001F000
0003E000
00000000
00000000
00000000
07FFFFE0
07FFFFE0
07FFFFE0
0FFFFFE0
0003FFC0
0003FF80
0007FF00
000FFE00
001FFC00
003FFC00
007FF800
00FFF000
01FFE000
03FFC000
07FF8000
0FFF0000
1FFE0000
3FFC0000
7FFC0000
7FFFFF80
7FFFFF00
7FFFFF00
FFFFFF00
ENDCHAR
STARTCHAR 017B
ENCODING 379
SWIDTH 549 0
DWIDTH 29 0
BBX 32 46 -1 0
BITMAP
00001F00
00007FC0
0000FFC0
0000FFE0
0000FFE0
0000FFC0
0000FFC0
00007F80
00003E00
00000000
00000000
03FFFFFF
07FFFFFF
07FFFFFF
07FFFFFF
00003FFE
00007FFE
0000FFFC
0000FFFC
0001FFF8
0003FFF0
0003FFF0
0007FFE0
000FFFC0
000FFFC0
001FFF80
003FFF00
003FFF00
007FFE00
00FFFC00
00FFFC00
01FFF800
03FFF800
03FFF000
07FFE000
0FFFE000
0FFFC000
1FFF8000
3FFF8000
3FFF0000
7FFE0000
7FFE0000
7FFFFFF0
FFFFFFF0
FFFFFFF0
FFFFFFE0
ENDCHAR
STARTCHAR 017C
ENCODING 380
SWIDTH 473 0
DWIDTH 25 0
BBX 27 35 -2 0
BITMAP
0000F800
0003FE00
0003FF00
0007FF00
0007FF00
0007FF00
0007FE00
0003FC00
0001F800
00000000
00000000
00000000
07FFFFE0
07FFFFE0
07FFFFE0
0FFFFFE0
0003FFC0
0003FF80
0007FF00
000FFE00
001FFC00
003FFC00
007FF800
00FFF000
01FFE000
03FFC000
07FF8000
0FFF0000
1FFE0000
3FFC0000
7FFC0000
7FFFFF80
7FFFFF00
7FFFFF00
FFFFFF00
ENDCHAR
STARTCHAR 017D
ENCODING 381
SWIDTH 549 0
DWIDTH 29 0
BBX 33 46 -1 0
BITMAP
0007800F80
0007C01F00
0003E03E00
0003F0FC00
0001F1F800
0000FFF000
0000FFE000
00007FC000
00007F8000
0000000000
0000000000
03FFFFFF00
07FFFFFF00
07FFFFFF00
07FFFFFF00
00003FFE00
00007FFE00
0000FFFC00
0000FFFC00
0001FFF800
0003FFF000
0003FFF000
0007FFE000
000FFFC000
000FFFC000
001FFF8000
003FFF0000
003FFF0000
007FFE0000
00FFFC0000
00FFFC0000
01FFF80000
03FFF80000
03FFF00000
07FFE00000
0FFFE00000
0FFFC00000
1FFF800000
3FFF800000
3FFF000000
7FFE000000
7FFE000000
7FFFFFF000
FFFFFFF000
FFFFFFF000
FFFFFFE000
ENDCHAR
STARTCHAR 017E
ENCODING 382
SWIDTH 473 0
DWIDTH 25 0
BBX 30 35 -2 0
BITMAP
007C00FC
003E01F0
001F03E0
001F0FC0
000F9F80
000FFF80
0007FF00
0007FE00
0003FC00
00000000
00000000
00000000
07FFFFE0
07FFFFE0
07FFFFE0
0FFFFFE0
0003FFC0
0003FF80
0007FF00
000FFE00
001FFC00
003FFC00
007FF800
00FFF000
01FFE000
03FFC000
07FF8000
0FFF0000
1FFE0000
3FFC0000
7FFC0000
7FFFFF80
7FFFFF00
7FFFFF00
FFFFFF00
ENDCHAR
STARTCHAR 018F
ENCODING 399
SWIDTH 644 0
DWIDTH 34 0
BBX 33 36 1 0
BITMAP
0000200000
001FFFC000
00FFFFF000
03FFFFF800
07FFCFFC00
07FF87FE00
07FF07FE00
07FE07FF00
0FFC07FF00
0FFC07FF00
0FF807FF00
0FF807FF80
1FF807FF80
000007FF80
000007FF80
000007FF80
000007FF80
3FFFFFFF80
7FFFFFFF00
7FFFFFFF00
FFFFFFFF00
FFE00FFF00
FFE01FFF00
FFE01FFE00
FFE01FFE00
FFE01FFE00
FFE03FFC00
FFE03FFC00
FFE07FF800
FFE07FF000
7FE0FFE000
7FF1FFC000
3FFFFF8000
1FFFFE0000
0FFFF80000
00FFC00000
ENDCHAR
STARTCHAR 0192
ENCODING 402
SWIDTH 511 0
DWIDTH 27 0
BBX 36 47 -5 -9
BITMAP
000000FFC0
000007FFF0
00000FFFE0
00001FFFE0
00003FFFE0
00007FF000
0000FFE000
0000FFC000
0001FFC000
0001FF8000
0001FF8000
0003FF8000
0003FF8000
0003FF8000
0003FF0000
007FFFFC00
007FFFFC00
007FFFFC00
007FFFF800
0007FF0000
000FFE0000
000FFE0000
000FFE0000
000FFE0000
000FFC0000
001FFC0000
001FFC0000
001FFC0000
001FFC0000
001FF80000
003FF80000
003FF80000
003FF80000
003FF80000
007FF00000
007FF00000
007FF00000
007FF00000
007FE00000
00FFE00000
00FFC00000
01FFC00000
03FF800000
FFFE000000
FFFC000000
FFF0000000
FF00000000
ENDCHAR
STARTCHAR 01C4
ENCODING 452
SWIDTH 1193 0
DWIDTH 63 0
BBX 65 46 0 0
BITMAP
00000000001E003E00
00000000001F007C00
00000000000F80F800
00000000000FC3F000
000000000007C7E000
000000000003FFC000
000000000003FF8000
000000000001FF0000
000000000001FE0000
000000000000000000
000000000000000000
01FFFFC003FFFFFF80
01FFFFF803FFFFFF00
01FFFFFE03FFFFFF00
03FFFFFF03FFFFFF00
03FFC1FF00003FFF00
03FFC1FF80003FFF00
03FF81FF80007FFE00
03FF81FFC000FFFC00
07FF81FFC000FFFC00
07FF81FFC001FFF800
07FF81FFC003FFF000
07FF01FFC003FFF000
07FF01FFC007FFE000
0FFF01FFE00FFFC000
0FFF01FFC00FFFC000
0FFF01FFC01FFF8000
0FFE03FFC03FFF0000
0FFE03FFC03FFF0000
1FFE03FFC07FFE0000
1FFE03FFC0FFFC0000
1FFC03FFC0FFFC0000
1FFC07FF81FFF80000
1FFC07FF83FFF80000
3FFC07FF83FFF00000
3FFC0FFF07FFE00000
3FF80FFF0FFFE00000
3FF80FFE0FFFC00000
3FF81FFE1FFF800000
7FF81FFC3FFF800000
7FF83FF83FFF000000
7FF07FF07FFE000000
7FFFFFE07FFFFFF800
7FFFFF807FFFFFF800
FFFFFF007FFFFFF000
FFFFF0007FFFFFF000
ENDCHAR
STARTCHAR 01C5
ENCODING 453
SWIDTH 1136 0
DWIDTH 60 0
BBX 60 35 0 0
BITMAP
01FFFFC000F001F0
01FFFFF8007807E0
01FFFFFE007C0FC0
03FFFFFF003E1F80
03FFC1FF003F7F00
03FFC1FF801FFE00
03FF81FF801FFC00
03FF81FFC00FF800
07FF81FFC0000000
07FF81FFC0000000
07FF81FFC0000000
07FF01FFC0000000
07FF01FFC3FFFFF0
0FFF01FFE7FFFFF0
0FFF01FFC7FFFFF0
0FFF01FFC7FFFFE0
0FFE03FFC001FFE0
0FFE03FFC003FFC0
1FFE03FFC007FF80
1FFE03FFC00FFF00
1FFC03FFC01FFE00
1FFC07FF803FFC00
1FFC07FF807FF800
3FFC07FF807FF000
3FFC0FFF00FFE000
3FF80FFF01FFE000
3FF80FFE03FFC000
3FF81FFE07FF8000
7FF81FFC0FFF0000
7FF83FF81FFE0000
7FF07FF03FFC0000
7FFFFFE03FFFFF80
7FFFFF807FFFFF80
FFFFFF007FFFFF80
FFFFF0007FFFFF80
ENDCHAR
STARTCHAR 01C6
ENCODING 454
SWIDTH 1061 0
DWIDTH 56 0
BBX 56 37 0 0
BITMAP
000003FF800000
000003FF800000
000003FF0F801F
000007FF07C03E
000007FF03C07C
000007FF03E1F8
000007FF01F3F0
000007FE01FFE0
00000FFE00FFE0
00000FFE00FFC0
00000FFE007F80
00000FFE000000
00000FFC000000
00081FFC000000
01FF1FFC3FFFFF
03FF9FFC3FFFFF
07FFDFFC3FFFFF
0FFFDFF87FFFFF
1FFFFFF8001FFE
1FFC7FF8001FFC
3FF83FF8003FF8
3FF83FF8007FF0
7FF03FF000FFE0
7FF07FF001FFE0
7FF07FF003FFC0
7FF07FF007FF80
7FE07FE00FFF00
FFE0FFE01FFE00
FFE0FFE03FFC00
FFE0FFE07FF800
FFE0FFE0FFF000
FFE1FFC1FFE000
7FFFFFC3FFE000
7FFEFFC3FFFFFC
3FFCFFC3FFFFF8
3FF8FFC3FFFFF8
0FE07F87FFFFF8
ENDCHAR
STARTCHAR 01C7
ENCODING 455
SWIDTH 1080 0
DWIDTH 57 0
BBX 58 35 0 0
BITMAP
01FFE0000001FFC0
01FFC0000003FFC0
01FFC0000003FFC0
03FFC0000003FFC0
03FFC0000003FF80
03FFC0000003FF80
03FF80000007FF80
03FF80000007FF80
07FF80000007FF00
07FF80000007FF00
07FF00000007FF00
07FF0000000FFF00
07FF0000000FFF00
0FFF0000000FFE00
0FFF0000000FFE00
0FFE0000000FFE00
0FFE0000001FFE00
0FFE0000001FFE00
1FFE0000001FFC00
1FFE0000001FFC00
1FFC0000003FFC00
1FFC0000003FFC00
1FFC003FF03FFC00
3FFC003FF03FF800
3FFC003FF03FF800
3FF8007FE07FF800
3FF8007FE07FF800
3FF8007FE07FF000
7FF8007FE07FF000
7FF800FFE0FFE000
7FFFFE7FF0FFC000
7FFFFE3FFFFF8000
7FFFFE1FFFFF0000
FFFFFE07FFFC0000
FFFFFC00FFE00000
ENDCHAR
STARTCHAR 01C8
ENCODING 456
SWIDTH 757 0
DWIDTH 40 0
BBX 41 44 0 -9
BITMAP
01FFE0003E00
01FFC000FF00
01FFC001FF80
03FFC001FF80
03FFC003FF80
03FFC001FF80
03FF8001FF80
03FF8001FF00
07FF80007C00
07FF80000000
07FF00000000
07FF00000000
07FF0007FF00
0FFF0007FF00
0FFF0007FF00
0FFE000FFE00
0FFE000FFE00
0FFE000FFE00
1FFE000FFE00
1FFE000FFC00
1FFC001FFC00
1FFC001FFC00
1FFC001FFC00
3FFC001FFC00
3FFC001FF800
3FF8003FF800
3FF8003FF800
3FF8003FF800
7FF8003FF800
7FF8003FF000
7FFFFE7FF000
7FFFFE7FF000
7FFFFE7FF000
FFFFFE7FF000
FFFFFCFFE000
000000FFE000
000000FFE000
000000FFC000
000001FF8000
000003FF8000
00000FFF0000
00000FFC0000
00000FF80000
00001F800000
ENDCHAR
STARTCHAR 01C9
ENCODING 457
SWIDTH 587 0
DWIDTH 31 0
BBX 33 46 -1 -9
BITMAP
00FFE00000
00FFE00000
01FFC07C00
01FFC1FF00
01FFC3FF00
01FFC3FF80
01FFC3FF80
03FF83FF00
03FF83FF00
03FF81FE00
03FF80F800
03FF800000
07FF000000
07FF000000
07FF0FFE00
07FF0FFE00
07FE0FFE00
0FFE0FFE00
0FFE1FFC00
0FFE1FFC00
0FFE1FFC00
0FFC1FFC00
1FFC1FFC00
1FFC3FF800
1FFC3FF800
1FFC3FF800
1FF83FF800
3FF83FF000
3FF87FF000
3FF87FF000
3FF87FF000
3FF07FF000
7FF07FE000
7FF0FFE000
7FF0FFE000
7FF0FFE000
FFE0FFC000
0001FFC000
0001FFC000
0001FF8000
0003FF8000
0003FF0000
001FFE0000
001FFC0000
001FF00000
001F800000
ENDCHAR
STARTCHAR 01CA
ENCODING 458
SWIDTH 1231 0
DWIDTH 65 0
BBX 67 35 0 0
BITMAP
01FFF001F00001FFE0
01FFF003E00001FFC0
01FFF003E00001FFC0
03FFF803E00003FFC0
03FFF803E00003FFC0
03FFF807C00003FFC0
03FFF807C00003FF80
03FFF807C00003FF80
07FFFC07C00007FF80
07FFFC07C00007FF80
07FFFC0F800007FF80
07FFFC0F800007FF00
079FFE0F800007FF00
0F9FFE0F80000FFF00
0F9FFE0F80000FFF00
0F9FFE1F00000FFF00
0F8FFE1F00000FFE00
0F0FFF1F00000FFE00
1F0FFF1F00001FFE00
1F0FFF1E00001FFE00
1F0FFF3E00001FFC00
1F07FFBE00081FFC00
1E07FFBE3FF01FFC00
3E07FFBE3FF03FFC00
3E07FFBC3FF03FFC00
3E03FFFC3FF03FF800
3E03FFFC3FF03FF800
3C03FFFC7FF07FF800
7C03FFFC7FF07FF000
7C01FFF87FF07FF000
7C01FFF87FF0FFE000
7C01FFF81FFFFFC000
7801FFF80FFFFF0000
F800FFF803FFFE0000
F800FFF0007FE00000
ENDCHAR
STARTCHAR 01CB
ENCODING 459
SWIDTH 928 0
DWIDTH 49 0
BBX 50 44 0 -9
BITMAP
01FFF001F03E00
01FFF003E0FF80
01FFF003E0FFC0
03FFF803E1FFC0
03FFF803E1FFC0
03FFF803C1FFC0
03FFF807C1FF80
03FFF807C0FF00
07FFFC07C07E00
07FFFC07C00000
07FFFC07800000
07FFFC0F800000
079FFE0F83FF80
0F9FFE0F87FF00
0F9FFE0F87FF00
0F9FFE0F07FF00
0F8FFE1F07FF00
0F0FFF1F07FE00
1F0FFF1F0FFE00
1F0FFF1E0FFE00
1F0FFF3E0FFE00
1F07FF3E0FFE00
1E07FFBE1FFC00
3E07FFBE1FFC00
3E07FFBC1FFC00
3E03FFFC1FFC00
3E03FFFC1FF800
3C03FFFC3FF800
7C03FFFC3FF800
7C01FFF83FF800
7C01FFF83FF800
7C01FFF83FF000
7801FFF87FF000
F800FFF87FF000
F800FFF07FF000
000000007FE000
00000000FFE000
00000000FFE000
00000000FFC000
00000001FF8000
0000000FFF0000
0000000FFE0000
0000000FF80000
0000000FC00000
ENDCHAR
STARTCHAR 01CC
ENCODING 460
SWIDTH 871 0
DWIDTH 46 0
BBX 48 44 -1 -9
BITMAP
00000000007C
0000000001FE
0000000003FF
0000000003FF
0000000007FF
0000000007FF
0000000003FF
0000000003FE
0000000000F8
000000000000
000000000000
000000800000
07FC0FF00FFE
07FC3FF80FFE
07FEFFFC0FFC
07FFFFFC1FFC
0FFFFFFE1FFC
0FFF1FFE1FFC
0FFE0FFC1FFC
0FFE1FFC1FF8
0FFC1FFC3FF8
1FFC1FFC3FF8
1FFC1FFC3FF8
1FFC1FF83FF8
1FFC3FF83FF0
3FF83FF87FF0
3FF83FF87FF0
3FF83FF87FF0
3FF83FF07FF0
3FF07FF0FFE0
7FF07FF0FFE0
7FF07FF0FFE0
7FF07FF0FFE0
7FF07FE0FFC0
FFE0FFE1FFC0
00000001FFC0
00000001FF80
00000001FF80
00000003FF00
00000007FF00
0000001FFE00
0000001FF800
0000003FF000
0000003F0000
ENDCHAR
STARTCHAR 01EA
ENCODING 490
SWIDTH 682 0
DWIDTH 36 0
BBX 34 47 2 -11
BITMAP
0000100000
0007FFE000
003FFFF800
00FFFFFC00
01FFE7FE00
03FFC3FF00
07FF83FF00
0FFF03FF80
1FFE03FF80
1FFE03FF80
3FFE03FFC0
3FFC03FFC0
7FFC03FFC0
7FFC03FFC0
7FF803FFC0
7FF803FFC0
FFF803FFC0
FFF807FFC0
FFF007FFC0
FFF007FF80
FFF007FF80
FFF00FFF80
FFF00FFF80
FFF00FFF00
FFE00FFF00
FFE01FFE00
FFE01FFE00
FFE03FFC00
7FE03FFC00
7FF07FF800
7FF07FF000
3FF0FFF000
1FFFFFE000
0FFFFF8000
07FFFE0000
007FF00000
007C000000
01F8000000
03F0000000
07F0000000
07E0000000
07E0000000
07F3000000
07FF800000
07FF000000
03FC000000
0040000000
ENDCHAR
STARTCHAR 01EB
ENCODING 491
SWIDTH 568 0
DWIDTH 30 0
BBX 28 35 1 -11
BITMAP
00010000
00FFFE00
03FFFF80
07FFFFC0
1FFEFFC0
3FF87FE0
3FF87FE0
7FF07FF0
7FF07FF0
FFE07FF0
FFE07FF0
FFE07FF0
FFE07FF0
FFE0FFF0
FFC0FFE0
FFC0FFE0
FFC0FFE0
FFC1FFC0
FFC1FFC0
7FE3FF80
3FFFFF00
3FFFFE00
0FFFF800
03FFC000
01F80000
03F00000
07E00000
0FC00000
1FC00000
1FC00000
1FC40000
1FFE0000
1FFE0000
0FFC0000
07E00000
ENDCHAR
STARTCHAR 01F1
ENCODING 497
SWIDTH 1193 0
DWIDTH 63 0
BBX 65 35 0 0
BITMAP
01FFFFC001FFFFFF80
01FFFFF803FFFFFF80
01FFFFFE03FFFFFF80
03FFFFFF03FFFFFF80
03FFC1FF00001FFF00
03FFC1FF80003FFF00
03FF81FF80007FFE00
03FF81FFC0007FFE00
07FF81FFC000FFFC00
07FF81FFC001FFF800
07FF81FFC001FFF800
07FF01FFC003FFF000
07FF01FFC007FFE000
0FFF01FFE007FFE000
0FFF01FFC00FFFC000
0FFF01FFC01FFF8000
0FFE03FFC01FFF8000
0FFE03FFC03FFF0000
1FFE03FFC07FFE0000
1FFE03FFC07FFE0000
1FFC03FFC0FFFC0000
1FFC07FF81FFFC0000
1FFC07FF81FFF80000
3FFC07FF83FFF00000
3FFC0FFF07FFF00000
3FF80FFF07FFE00000
3FF80FFE0FFFC00000
3FF81FFE1FFFC00000
7FF81FFC1FFF800000
7FF83FF83FFF000000
7FF07FF03FFF000000
7FFFFFE07FFFFFF800
7FFFFF807FFFFFF800
FFFFFF007FFFFFF800
FFFFF0007FFFFFF000
ENDCHAR
STARTCHAR 01F2
ENCODING 498
SWIDTH 1136 0
DWIDTH 60 0
BBX 60 35 0 0
BITMAP
01FFFFC000000000
01FFFFF800000000
01FFFFFE00000000
03FFFFFF00000000
03FFC1FF00000000
03FFC1FF80000000
03FF81FF80000000
03FF81FFC0000000
07FF81FFC0000000
07FF81FFC0000000
07FF81FFC0000000
07FF01FFC0000000
07FF01FFC3FFFFF0
0FFF01FFE7FFFFF0
0FFF01FFC7FFFFF0
0FFF01FFC7FFFFE0
0FFE03FFC001FFE0
0FFE03FFC003FFC0
1FFE03FFC007FF80
1FFE03FFC00FFF00
1FFC03FFC01FFE00
1FFC07FF803FFC00
1FFC07FF807FF800
3FFC07FF807FF000
3FFC0FFF00FFE000
3FF80FFF01FFE000
3FF80FFE03FFC000
3FF81FFE07FF8000
7FF81FFC0FFF0000
7FF83FF81FFE0000
7FF07FF03FFC0000
7FFFFFE03FFFFF80
7FFFFF807FFFFF80
FFFFFF007FFFFF80
FFFFF0007FFFFF80
ENDCHAR
STARTCHAR 01F3
ENCODING 499
SWIDTH 1061 0
DWIDTH 56 0
BBX 56 37 0 0
BITMAP
000003FF800000
000003FF800000
000003FF000000
000007FF000000
000007FF000000
000007FF000000
000007FF000000
000007FE000000
00000FFE000000
00000FFE000000
00000FFE000000
00000FFE000000
00000FFC000000
00081FFC000000
01FF1FFC3FFFFF
03FF9FFC3FFFFF
07FFDFFC3FFFFF
0FFFDFF87FFFFF
1FFFFFF8001FFE
1FFC7FF8001FFC
3FF83FF8003FF8
3FF83FF8007FF0
7FF03FF000FFE0
7FF07FF001FFE0
7FF07FF003FFC0
7FF07FF007FF80
7FE07FE00FFF00
FFE0FFE01FFE00
FFE0FFE03FFC00
FFE0FFE07FF800
FFE0FFE0FFF000
FFE1FFC1FFE000
7FFFFFC3FFE000
7FFEFFC3FFFFFC
3FFCFFC3FFFFF8
3FF8FFC3FFFFF8
0FE07F87FFFFF8
ENDCHAR
STARTCHAR 01FA
ENCODING 506
SWIDTH 606 0
DWIDTH 32 0
BBX 32 53 -2 0
BITMAP
0000003F
0000007E
0000007C
000000F8
000001F0
000001F0
000003E0
000007C0
00000000
00000F80
00001FC0
00003FE0
000038E0
000070E0
000079E0
00003FC0
00003FC0
00000F00
00000000
0001FFF0
0003FFF0
0003FFF0
0007FFF0
0007FFF0
0007FFF0
000FFFF0
000F7FF0
001F7FF8
001F7FF8
003E7FF8
003E7FF8
007C7FF8
007C7FF8
00F87FF8
00F87FF8
00F07FF8
01F07FFC
01F03FFC
03E03FFC
03E03FFC
07FFFFFC
07FFFFFC
0FFFFFFC
0FFFFFFC
1F003FFC
1F003FFE
3E003FFE
3E003FFE
3E001FFE
7C001FFE
7C001FFE
F8001FFE
F8001FFE
ENDCHAR
STARTCHAR 01FB
ENCODING 507
SWIDTH 549 0
DWIDTH 29 0
BBX 31 46 -1 0
BITMAP
000007FE
000007F8
00000FF0
00000FE0
00001FC0
00003F00
00003E00
00007C00
00000000
00000000
0000F000
0001FC00
0003FC00
00079E00
00070E00
00070E00
00079C00
0003FC00
0003F800
0000F000
00000000
00000000
00008000
007FFF00
03FFFFC0
07FFFFE0
0FFC7FE0
0FF03FF0
0FF03FF0
0FF03FF0
00003FF0
00003FF0
03FFFFF0
0FFFFFF0
3FF87FF0
3FF07FF0
7FE0FFE0
7FE0FFE0
FFC0FFE0
FFC0FFE0
FFE1FFE0
7FFFFFC0
7FFFFFC0
7FFCFFC0
3FF8FFC0
0FC07F80
ENDCHAR
STARTCHAR 01FC
ENCODING 508
SWIDTH 814 0
DWIDTH 43 0
BBX 49 46 -3 0
BITMAP
0000000003FE00
0000000003FC00
0000000007F800
000000000FF000
000000000FE000
000000001FC000
000000001F0000
000000003E0000
000000007C0000
00000000000000
00000000000000
0000007FFFFF80
000000FFFFFF80
000001FFFFFF00
000003FFFFFF00
000003FFF80000
000007FFF80000
00000FFFF80000
00000F7FF80000
00001E7FF00000
00003E7FF00000
00007CFFF00000
000078FFF00000
0000F8FFF00000
0001F0FFE00000
0001E0FFE00000
0003E1FFFFF000
0007C1FFFFF000
000F81FFFFF000
000F81FFFFE000
001F01FFC00000
003FFFFFC00000
007FFFFFC00000
007FFFFF800000
00FFFFFF800000
01F003FF800000
01E007FF800000
03E007FF800000
07C007FF800000
0F8007FF000000
0F8007FF000000
1F000FFF000000
3E000FFFFFE000
3E000FFFFFC000
7C000FFFFFC000
F8001FFFFFC000
ENDCHAR
STARTCHAR 01FD
ENCODING 509
SWIDTH 833 0
DWIDTH 44 0
BBX 44 35 -1 0
BITMAP
0000001FF000
0000003FC000
0000003F8000
0000007F0000
000000FE0000
000000FC0000
000001F80000
000001F00000
000003E00000
000000000000
000000000000
000100004000
00FFFE3FFF00
07FFFFFFFFC0
07FFFFFFFFE0
07FC7FFF3FF0
0FF87FFC3FF0
0FF03FFC1FF0
0FF07FF81FF0
00007FF83FF0
00007FF03FF0
03FFFFFFFFF0
0FFFFFFFFFE0
3FF0FFFFFFE0
3FE0FFE00000
7FE0FFE00000
7FC0FFE00000
FFC0FFE07FC0
FFE1FFE07FC0
FFE3FFE0FF80
7FFFFFF1FF80
7FFFDFFFFF80
3FFF0FFFFF80
3FFC07FFFE00
0FE000FFE000
ENDCHAR
STARTCHAR 01FE
ENCODING 510
SWIDTH 682 0
DWIDTH 36 0
BBX 34 47 2 -1
BITMAP
000001FF00
000003FC00
000007F800
000007F000
00000FE000
00001F8000
00001F0000
00003E0000
0000000000
0000000000
0000100200
0007FFE700
003FFFFF80
00FFFFFF00
01FFE7FE00
03FFC3FF00
07FF83FF00
0FFF03FF80
1FFE03FF80
1FFE03FF80
3FFE07FFC0
3FFC0FFFC0
7FFC1FFFC0
7FFC1FFFC0
7FF83FFFC0
7FF87BFFC0
FFF8FBFFC0
FFF1F7FFC0
FFF3E7FFC0
FFF7C7FF80
FFF787FF80
FFFF0FFF80
FFFF0FFF80
FFFE0FFF00
FFFC0FFF00
FFF81FFE00
FFF01FFE00
FFE03FFC00
7FE03FFC00
7FF07FF800
7FF07FF000
3FF0FFF000
3FFFFFC000
7FFFFF8000
FFFFFE0000
787FF00000
1000000000
ENDCHAR
STARTCHAR 01FF
ENCODING 511
SWIDTH 568 0
DWIDTH 30 0
BBX 28 37 1 -2
BITMAP
00003FE0
00007F80
0000FF00
0000FE00
0001FC00
0001F800
0003F000
0003E000
0007C000
00000000
00000100
000103C0
007FFF80
03FFFF00
07FFFFC0
1FFCFFC0
3FF87FE0
3FF87FE0
7FF0FFF0
7FF1FFF0
FFE1FFF0
FFE3FFF0
FFE77FF0
FFEF7FF0
FFFEFFF0
FFFCFFE0
FFF8FFE0
FFF0FFE0
FFE1FFC0
FFC1FFC0
7FE3FF80
3FFFFF00
1FFFFC00
0FFFF800
1DFF8000
38000000
08000000
ENDCHAR
STARTCHAR 0218
ENCODING 536
SWIDTH 587 0
DWIDTH 31 0
BBX 32 51 0 -15
BITMAP
00000400
0003FFF0
001FFFFC
007FFFFF
00FFFFFE
01FF0FFE
03FE07FE
07FC07FE
0FFC07FC
0FFC07FC
0FFC07FC
1FFC07FC
1FFF0000
1FFFC000
0FFFFC00
0FFFFF80
0FFFFFC0
07FFFFF0
07FFFFF0
03FFFFF8
00FFFFF8
003FFFF8
0007FFFC
0000FFFC
00007FFC
00003FF8
7FE03FF8
7FE03FF8
7FE03FF8
FFE03FF0
FFE07FF0
FFF0FFE0
FFFFFFC0
FFFFFF00
3FFFFC00
03FFC000
00000000
00000000
00000000
001E0000
003F0000
007F8000
007F8000
003F8000
001F0000
001F0000
001E0000
003C0000
00780000
00F00000
00600000
ENDCHAR
STARTCHAR 0219
ENCODING 537
SWIDTH 492 0
DWIDTH 26 0
BBX 25 39 -1 -15
BITMAP
00010000
007FFE00
03FFFF80
07FFFF80
0FFE7F80
1FF87F80
1FF87F00
1FF87F00
1FFC0000
1FFF0000
1FFFF000
1FFFFC00
0FFFFE00
07FFFF00
00FFFF00
001FFF80
0007FF80
7F03FF00
7F03FF00
7F87FF00
FFFFFE00
FFFFFC00
7FFFF000
07FF8000
00000000
00000000
00000000
00780000
01FC0000
01FC0000
03FC0000
01FC0000
00FC0000
00780000
00F80000
00F00000
01E00000
03C00000
01000000
ENDCHAR
STARTCHAR 021A
ENCODING 538
SWIDTH 549 0
DWIDTH 29 0
BBX 29 51 4 -16
BITMAP
7FFFFFF8
FFFFFFF8
FFFFFFF8
FFFFFFF0
00FFF000
00FFE000
00FFE000
00FFE000
01FFE000
01FFE000
01FFC000
01FFC000
03FFC000
03FFC000
03FFC000
03FF8000
03FF8000
07FF8000
07FF8000
07FF8000
07FF0000
07FF0000
0FFF0000
0FFF0000
0FFF0000
0FFE0000
0FFE0000
1FFE0000
1FFE0000
1FFE0000
1FFC0000
1FFC0000
3FFC0000
3FFC0000
3FFC0000
00000000
00000000
00000000
01000000
0FC00000
1FC00000
1FE00000
1FE00000
0FC00000
07C00000
07800000
07800000
0F000000
1E000000
38000000
10000000
ENDCHAR
STARTCHAR 021B
ENCODING 539
SWIDTH 397 0
DWIDTH 21 0
BBX 20 46 2 -15
BITMAP
001F80
003F80
003F00
007F00
00FF00
03FF00
0FFF00
3FFF00
FFFFF0
FFFFE0
FFFFE0
FFFFE0
0FFC00
1FFC00
1FFC00
1FFC00
1FFC00
1FF800
3FF800
3FF800
3FF800
3FF800
7FF000
7FF000
7FF000
7FF000
7FF000
7FFF00
3FFE00
1FFE00
0FFE00
000000
000000
000000
0F0000
3F8000
3F8000
3F8000
3F8000
1F8000
0F8000
0F0000
1E0000
3C0000
780000
200000
ENDCHAR
STARTCHAR 0237
ENCODING 567
SWIDTH 303 0
DWIDTH 16 0
BBX 21 32 -6 -9
BITMAP
003FF8
003FF8
003FF8
003FF0
007FF0
007FF0
007FF0
007FF0
007FE0
00FFE0
00FFE0
00FFE0
00FFE0
01FFC0
01FFC0
01FFC0
01FFC0
01FF80
03FF80
03FF80
03FF80
03FF80
03FF00
07FF00
07FF00
07FE00
0FFE00
0FFC00
7FF800
7FF000
7FC000
FE0000
ENDCHAR
STARTCHAR 0259
ENCODING 601
SWIDTH 549 0
DWIDTH 29 0
BBX 27 24 0 0
BITMAP
00020000
01FFFC00
0FFFFF00
1FFFFF80
1FFCFFC0
1FF87FC0
3FF07FE0
3FE07FE0
00007FE0
00007FE0
00007FE0
7FFFFFE0
7FFFFFE0
FFFFFFE0
FFC0FFE0
FFC1FFE0
FF81FFC0
FF81FFC0
FF83FF80
FFC7FF00
7FFFFE00
7FFFFC00
1FFFF000
07FF0000
ENDCHAR
STARTCHAR 02BC
ENCODING 700
SWIDTH 322 0
DWIDTH 17 0
BBX 10 15 7 21
BITMAP
1F00
3F80
7F80
7FC0
7FC0
7FC0
7F80
3F80
1F80
1F00
1E00
3C00
7800
F000
4000
ENDCHAR
STARTCHAR 02C6
ENCODING 710
SWIDTH 435 0
DWIDTH 23 0
BBX 20 8 1 27
BITMAP
00FF00
01FF80
03FF80
07EFC0
0FC7C0
1F03E0
3E01F0
FC00F0
ENDCHAR
STARTCHAR 02C7
ENCODING 711
SWIDTH 435 0
DWIDTH 23 0
BBX 20 8 1 27
BITMAP
F801F0
7C03E0
3E0FC0
3F1F80
1F3F00
1FFE00
0FFC00
0FF800
ENDCHAR
STARTCHAR 02D8
ENCODING 728
SWIDTH 378 0
DWIDTH 20 0
BBX 18 8 1 27
BITMAP
000180
E003C0
700780
7C1F80
7FFF00
3FFE00
1FF800
07E000
ENDCHAR
STARTCHAR 02D9
ENCODING 729
SWIDTH 265 0
DWIDTH 14 0
BBX 11 9 1 26
BITMAP
0F80
3FC0
7FE0
7FE0
FFE0
FFE0
7FE0
7FC0
1F00
ENDCHAR
STARTCHAR 02DA
ENCODING 730
SWIDTH 265 0
DWIDTH 14 0
BBX 10 9 2 27
BITMAP
1E00
7F80
7F80
F3C0
E1C0
E380
FF80
7F00
3E00
ENDCHAR
STARTCHAR 02DB
ENCODING 731
SWIDTH 246 0
DWIDTH 13 0
BBX 12 12 1 -11
BITMAP
03F0
0FC0
1F80
3F00
7E00
FE00
FE00
FE20
FFF0
FFF0
FFC0
3F00
ENDCHAR
STARTCHAR 02DC
ENCODING 732
SWIDTH 454 0
DWIDTH 24 0
BBX 22 7 1 28
BITMAP
07F018
1FFFFC
3FFFF8
3FFFF8
7FFFF0
F0FFE0
200F80
ENDCHAR
STARTCHAR 02DD
ENCODING 733
SWIDTH 587 0
DWIDTH 31 0
BBX 27 8 2 27
BITMAP
03FE3FE0
07F87F80
0FF0FF00
1FC0FE00
1F81FC00
3F03F000
7E07E000
F80FC000
ENDCHAR
STARTCHAR 03BC
ENCODING 956
SWIDTH 587 0
DWIDTH 31 0
BBX 33 32 -2 -9
BITMAP
03FF83FF80
03FF83FF00
03FF87FF00
03FF07FF00
07FF07FF00
07FF07FF00
07FF07FE00
07FE0FFE00
0FFE0FFE00
0FFE0FFE00
0FFE0FFE00
0FFE0FFC00
0FFC1FFC00
1FFC1FFC00
1FFC1FFC00
1FFC1FFC00
1FFC3FF800
1FFC3FF800
3FFFFFF800
3FFFFFF800
3FFF9FF000
3FFF9FF000
3FDE1FF000
7FC0000000
7FC0000000
7FC0000000
7FC0000000
FFC0000000
FFC0000000
FFC0000000
FFC0000000
FFC0000000
ENDCHAR
STARTCHAR 1E0C
ENCODING 7692
SWIDTH 663 0
DWIDTH 35 0
BBX 35 47 0 -12
BITMAP
01FFFFC000
01FFFFF800
01FFFFFE00
03FFFFFF00
03FFC1FF00
03FFC1FF80
03FF81FF80
03FF81FFC0
07FF81FFC0
07FF81FFC0
07FF81FFC0
07FF01FFC0
07FF01FFC0
0FFF01FFE0
0FFF01FFC0
0FFF01FFC0
0FFE03FFC0
0FFE03FFC0
1FFE03FFC0
1FFE03FFC0
1FFC03FFC0
1FFC07FF80
1FFC07FF80
3FFC07FF80
3FFC0FFF00
3FF80FFF00
3FF80FFE00
3FF81FFE00
7FF81FFC00
7FF83FF800
7FF07FF000
7FFFFFE000
7FFFFF8000
FFFFFF0000
FFFFF00000
0000000000
0000000000
0000000000
0000000000
0000000000
007C000000
00FE000000
01FF000000
01FF000000
01FE000000
01FE000000
0078000000
ENDCHAR
STARTCHAR 1E0D
ENCODING 7693
SWIDTH 587 0
DWIDTH 31 0
BBX 33 48 0 -11
BITMAP
000003FF80
000003FF80
000003FF00
000007FF00
000007FF00
000007FF00
000007FF00
000007FE00
00000FFE00
00000FFE00
00000FFE00
00000FFE00
00000FFC00
00081FFC00
01FF1FFC00
03FF9FFC00
07FFDFFC00
0FFFDFF800
1FFFFFF800
1FFC7FF800
3FF83FF800
3FF83FF800
7FF03FF000
7FF07FF000
7FF07FF000
7FF07FF000
7FE07FE000
FFE0FFE000
FFE0FFE000
FFE0FFE000
FFE0FFE000
FFE1FFC000
7FFFFFC000
7FFFFFC000
3FFEFFC000
3FF8FFC000
0FE07F8000
0000000000
0000000000
0000000000
0000000000
003E000000
007F000000
00FF800000
00FF800000
00FF800000
00FF000000
003C000000
ENDCHAR
STARTCHAR 1E24
ENCODING 7716
SWIDTH 663 0
DWIDTH 35 0
BBX 37 47 0 -12
BITMAP
01FFE07FF8
01FFC07FF0
01FFC07FF0
03FFC0FFF0
03FFC0FFF0
03FFC0FFF0
03FF80FFE0
03FF80FFE0
07FF81FFE0
07FF81FFE0
07FF81FFE0
07FF01FFC0
07FF01FFC0
0FFF01FFC0
0FFF03FFC0
0FFF03FF80
0FFFFFFF80
0FFFFFFF80
1FFFFFFF80
1FFFFFFF80
1FFE07FF00
1FFC07FF00
1FFC07FF00
3FFC0FFF00
3FFC0FFF00
3FF80FFE00
3FF80FFE00
3FF80FFE00
7FF81FFE00
7FF81FFE00
7FF01FFC00
7FF01FFC00
7FF03FFC00
FFF03FFC00
FFF03FFC00
0000000000
0000000000
0000000000
0000000000
0000000000
001F000000
007F800000
007F800000
00FF800000
00FF800000
007F000000
003E000000
ENDCHAR
STARTCHAR 1E25
ENCODING 7717
SWIDTH 587 0
DWIDTH 31 0
BBX 31 49 -1 -12
BITMAP
00FFE000
00FFE000
01FFC000
01FFC000
01FFC000
01FFC000
01FFC000
03FF8000
03FF8000
03FF8000
03FF8000
03FF8000
07FF0000
07FF0080
07FF0FF0
07FF3FF8
07FFFFFC
0FFFFFFC
0FFF1FFE
0FFE0FFE
0FFE1FFC
0FFC1FFC
1FFC1FFC
1FFC1FFC
1FFC1FFC
1FFC1FF8
1FF83FF8
3FF83FF8
3FF83FF8
3FF83FF8
3FF83FF0
3FF07FF0
7FF07FF0
7FF07FF0
7FF07FF0
7FF0FFE0
FFE0FFE0
00000000
00000000
00000000
00000000
00000000
003E0000
007F0000
00FF8000
00FF8000
00FF8000
00FF0000
003C0000
ENDCHAR
STARTCHAR 1E44
ENCODING 7748
SWIDTH 644 0
DWIDTH 34 0
BBX 36 46 0 0
BITMAP
000007C000
00001FF000
00003FF000
00003FF800
00003FF800
00003FF000
00003FF000
00001FE000
00000F8000
0000000000
0000000000
01FFF001F0
01FFF003E0
01FFF003E0
03FFF803E0
03FFF803E0
03FFF807C0
03FFF807C0
03FFF807C0
07FFFC07C0
07FFFC07C0
07FFFC0F80
07FFFC0F80
079FFE0F80
0F9FFE0F80
0F9FFE0F80
0F9FFE1F00
0F9FFE1F00
0F0FFF1F00
1F0FFF1F00
1F0FFF1E00
1F0FFF3E00
1F07FF3E00
1E07FFBE00
3E07FFBE00
3E07FFBC00
3E03FFFC00
3E03FFFC00
3C03FFFC00
7C03FFFC00
7C01FFF800
7C01FFF800
7C01FFF800
7801FFF800
F801FFF800
F800FFF000
ENDCHAR
STARTCHAR 1E45
ENCODING 7749
SWIDTH 587 0
DWIDTH 31 0
BBX 31 35 -1 0
BITMAP
00007E00
0001FF00
0001FF80
0003FF80
0003FF80
0003FF80
0003FF00
0001FE00
0000FC00
00000000
00000000
00000080
07FC0FF0
07FC3FF8
07FEFFFC
07FFFFFC
0FFFFFFE
0FFF1FFE
0FFE0FFC
0FFE1FFC
0FFC1FFC
1FFC1FFC
1FFC1FFC
1FFC1FF8
1FFC3FF8
3FF83FF8
3FF83FF8
3FF83FF8
3FF83FF0
3FF07FF0
7FF07FF0
7FF07FF0
7FF07FF0
7FF07FE0
FFE0FFE0
ENDCHAR
STARTCHAR 1E5A
ENCODING 7770
SWIDTH 644 0
DWIDTH 34 0
BBX 33 47 0 -12
BITMAP
01FFFFE000
01FFFFF800
01FFFFFE00
03FFFFFF00
03FFC3FF00
03FFC1FF80
03FF81FF80
03FF81FF80
07FF81FF80
07FF81FF80
07FF03FF80
07FF03FF80
07FF03FF00
0FFF07FF00
0FFF07FE00
0FFE0FFC00
0FFFFFF800
0FFFFFF000
1FFFFFC000
1FFFFFC000
1FFDFFC000
1FFCFFE000
1FFCFFE000
3FFCFFE000
3FFC7FF000
3FF87FF000
3FF87FF000
3FF83FF800
7FF83FF800
7FF83FFC00
7FF03FFC00
7FF01FFC00
7FF01FFE00
FFF01FFE00
FFF00FFF00
0000000000
0000000000
0000000000
0000000000
0000000000
000F800000
001FC00000
003FE00000
003FE00000
003FC00000
003FC00000
001F000000
ENDCHAR
STARTCHAR 1E5B
ENCODING 7771
SWIDTH 492 0
DWIDTH 26 0
BBX 27 36 -1 -12
BITMAP
00000100
07FC1FE0
07FC7FE0
07FCFFE0
07FFFFE0
0FFFFFC0
0FFFFFC0
0FFE3FC0
0FFE1FC0
0FFC1FC0
1FFC1F80
1FFC1F80
1FFC1F80
1FFC0000
3FF80000
3FF80000
3FF80000
3FF80000
3FF00000
7FF00000
7FF00000
7FF00000
7FF00000
FFE00000
00000000
00000000
00000000
00000000
00000000
1F000000
7F800000
7F800000
FF800000
7F800000
7F000000
3E000000
ENDCHAR
STARTCHAR 1E62
ENCODING 7778
SWIDTH 587 0
DWIDTH 31 0
BBX 32 47 0 -11
BITMAP
00000400
0003FFF0
001FFFFC
007FFFFF
00FFFFFE
01FF0FFE
03FE07FE
07FC07FE
0FFC07FC
0FFC07FC
0FFC07FC
1FFC07FC
1FFF0000
1FFFC000
0FFFFC00
0FFFFF80
0FFFFFC0
07FFFFF0
07FFFFF0
03FFFFF8
00FFFFF8
003FFFF8
0007FFFC
0000FFFC
00007FFC
00003FF8
7FE03FF8
7FE03FF8
7FE03FF8
FFE03FF0
FFE07FF0
FFF0FFE0
FFFFFFC0
FFFFFF00
3FFFFC00
03FFC000
00000000
00000000
00000000
00000000
007C0000
01FE0000
01FE0000
01FE0000
01FE0000
01FE0000
00F80000
ENDCHAR
STARTCHAR 1E63
ENCODING 7779
SWIDTH 492 0
DWIDTH 26 0
BBX 25 35 -1 -11
BITMAP
00010000
007FFE00
03FFFF80
07FFFF80
0FFE7F80
1FF87F80
1FF87F00
1FF87F00
1FFC0000
1FFF0000
1FFFF000
1FFFFC00
0FFFFE00
07FFFF00
00FFFF00
001FFF80
0007FF80
7F03FF00
7F03FF00
7F87FF00
FFFFFE00
FFFFFC00
7FFFF000
07FF8000
00000000
00000000
00000000
00000000
01F00000
07F80000
07F80000
07F80000
07F80000
07F80000
03E00000
ENDCHAR
STARTCHAR 1E6C
ENCODING 7788
SWIDTH 549 0
DWIDTH 29 0
BBX 29 47 4 -12
BITMAP
7FFFFFF8
FFFFFFF8
FFFFFFF8
FFFFFFF0
00FFF000
00FFE000
00FFE000
00FFE000
01FFE000
01FFE000
01FFC000
01FFC000
03FFC000
03FFC000
03FFC000
03FF8000
03FF8000
07FF8000
07FF8000
07FF8000
07FF0000
07FF0000
0FFF0000
0FFF0000
0FFF0000
0FFE0000
0FFE0000
1FFE0000
1FFE0000
1FFE0000
1FFC0000
1FFC0000
3FFC0000
3FFC0000
3FFC0000
00000000
00000000
00000000
00000000
00000000
0F800000
1FC00000
3FE00000
3FE00000
3FC00000
3FC00000
1F000000
ENDCHAR
STARTCHAR 1E6D
ENCODING 7789
SWIDTH 397 0
DWIDTH 21 0
BBX 20 42 2 -11
BITMAP
001F80
003F80
003F00
007F00
00FF00
03FF00
0FFF00
3FFF00
FFFFF0
FFFFE0
FFFFE0
FFFFE0
0FFC00
1FFC00
1FFC00
1FFC00
1FFC00
1FF800
3FF800
3FF800
3FF800
3FF800
7FF000
7FF000
7FF000
7FF000
7FF000
7FFF00
3FFE00
1FFE00
0FFE00
000000
000000
000000
000000
0F8000
1FC000
3FE000
3FE000
3FE000
1FC000
0F8000
ENDCHAR
STARTCHAR 1E80
ENCODING 7808
SWIDTH 947 0
DWIDTH 50 0
BBX 49 46 4 0
BITMAP
00007FC0000000
00003FE0000000
00001FE0000000
00000FF0000000
000003F8000000
000001F8000000
000000FC000000
0000007E000000
0000001F000000
00000000000000
00000000000000
FFF801FF801F80
FFF803FF801F80
FFF803FF801F00
FFF803FFC03F00
FFF807FFC03E00
FFF807FFC03E00
7FF80FFFC07E00
7FF80FFFC07C00
7FF80FFFC0FC00
7FF81FFFC0FC00
7FF81FFFC0F800
7FF81FFFC1F800
7FFC3FFFC1F000
7FFC3FFFC1F000
7FFC7FFFC3F000
7FFC7FFFC3E000
7FFC7FFFC7E000
7FFCFDFFC7E000
7FFCFDFFC7C000
7FFCF9FFCFC000
7FFDF9FFCFC000
3FFDF9FFEF8000
3FFDF1FFFF8000
3FFFF1FFFF0000
3FFFE0FFFF0000
3FFFE0FFFF0000
3FFFE0FFFE0000
3FFFC0FFFE0000
3FFFC0FFFE0000
3FFF80FFFC0000
3FFF80FFFC0000
3FFF80FFF80000
3FFF00FFF80000
3FFF00FFF80000
3FFE00FFF00000
ENDCHAR
STARTCHAR 1E81
ENCODING 7809
SWIDTH 833 0
DWIDTH 44 0
BBX 43 35 2 0
BITMAP
0007FC000000
0003FE000000
0001FE000000
00007F000000
00003F800000
00001F800000
00000FC00000
000007E00000
000003E00000
000000000000
000000000000
000000000000
FFE01FF807E0
FFE01FFC07E0
FFE03FFC07C0
FFE03FFC0FC0
FFF07FFC0F80
7FF07FFC1F80
7FF07FFC1F00
7FF0FFFC1F00
7FF0FFFC3E00
7FF1FFFE3E00
7FF1FFFE7C00
3FF1FFFE7C00
3FFBEFFE7C00
3FFBEFFEF800
3FFFCFFEF800
3FFFCFFFF000
3FFF87FFF000
3FFF87FFE000
1FFF07FFE000
1FFF07FFC000
1FFF07FFC000
1FFE07FF8000
1FFE03FF8000
ENDCHAR
STARTCHAR 1E82
ENCODING 7810
SWIDTH 947 0
DWIDTH 50 0
BBX 49 46 4 0
BITMAP
00000001FF0000
00000003FE0000
00000003FC0000
00000007F00000
0000000FE00000
0000000FC00000
0000001F800000
0000003F000000
0000003C000000
00000000000000
00000000000000
FFF801FF801F80
FFF803FF801F80
FFF803FF801F00
FFF803FFC03F00
FFF807FFC03E00
FFF807FFC03E00
7FF80FFFC07E00
7FF80FFFC07C00
7FF80FFFC0FC00
7FF81FFFC0FC00
7FF81FFFC0F800
7FF81FFFC1F800
7FFC3FFFC1F000
7FFC3FFFC1F000
7FFC7FFFC3F000
7FFC7FFFC3E000
7FFC7FFFC7E000
7FFCFDFFC7E000
7FFCFDFFC7C000
7FFCF9FFCFC000
7FFDF9FFCFC000
3FFDF9FFEF8000
3FFDF1FFFF8000
3FFFF1FFFF0000
3FFFE0FFFF0000
3FFFE0FFFF0000
3FFFE0FFFE0000
3FFFC0FFFE0000
3FFFC0FFFE0000
3FFF80FFFC0000
3FFF80FFFC0000
3FFF80FFF80000
3FFF00FFF80000
3FFF00FFF80000
3FFE00FFF00000
ENDCHAR
STARTCHAR 1E83
ENCODING 7811
SWIDTH 833 0
DWIDTH 44 0
BBX 43 35 2 0
BITMAP
0000003FF000
0000003FC000
0000007F8000
0000007F0000
000000FE0000
000001FC0000
000001F80000
000003E00000
000003C00000
000000000000
000000000000
000000000000
FFE01FF807E0
FFE01FFC07E0
FFE03FFC07C0
FFE03FFC0FC0
FFF07FFC0F80
7FF07FFC1F80
7FF07FFC1F00
7FF0FFFC1F00
7FF0FFFC3E00
7FF1FFFE3E00
7FF1FFFE7C00
3FF1FFFE7C00
3FFBEFFE7C00
3FFBEFFEF800
3FFFCFFEF800
3FFFCFFFF000
3FFF87FFF000
3FFF87FFE000
1FFF07FFE000
1FFF07FFC000
1FFF07FFC000
1FFE07FF8000
1FFE03FF8000
ENDCHAR
STARTCHAR 1E84
ENCODING 7812
SWIDTH 947 0
DWIDTH 50 0
BBX 49 45 4 0
BITMAP
000003C07C0000
000007E0FE0000
00000FF0FE0000
00000FF1FE0000
00000FF1FE0000
00000FF1FE0000
000007E0FC0000
000003C0780000
00000000000000
00000000000000
FFF801FF801F80
FFF803FF801F80
FFF803FF801F00
FFF803FFC03F00
FFF807FFC03E00
FFF807FFC03E00
7FF80FFFC07E00
7FF80FFFC07C00
7FF80FFFC0FC00
7FF81FFFC0FC00
7FF81FFFC0F800
7FF81FFFC1F800
7FFC3FFFC1F000
7FFC3FFFC1F000
7FFC7FFFC3F000
7FFC7FFFC3E000
7FFC7FFFC7E000
7FFCFDFFC7E000
7FFCFDFFC7C000
7FFCF9FFCFC000
7FFDF9FFCFC000
3FFDF9FFEF8000
3FFDF1FFFF8000
3FFFF1FFFF0000
3FFFE0FFFF0000
3FFFE0FFFF0000
3FFFE0FFFE0000
3FFFC0FFFE0000
3FFFC0FFFE0000
3FFF80FFFC0000
3FFF80FFFC0000
3FFF80FFF80000
3FFF00FFF80000
3FFF00FFF80000
3FFE00FFF00000
ENDCHAR
STARTCHAR 1E85
ENCODING 7813
SWIDTH 833 0
DWIDTH 44 0
BBX 43 35 2 0
BITMAP
00003C07C000
00007E0FE000
0000FF1FE000
0000FF1FE000
0000FF1FE000
0000FF1FE000
0000FE0FC000
00007C078000
000000000000
000000000000
000000000000
000000000000
FFE01FF807E0
FFE01FFC07E0
FFE03FFC07C0
FFE03FFC0FC0
FFF07FFC0F80
7FF07FFC1F80
7FF07FFC1F00
7FF0FFFC1F00
7FF0FFFC3E00
7FF1FFFE3E00
7FF1FFFE7C00
3FF1FFFE7C00
3FFBEFFE7C00
3FFBEFFEF800
3FFFCFFEF800
3FFFCFFFF000
3FFF87FFF000
3FFF87FFE000
1FFF07FFE000
1FFF07FFC000
1FFF07FFC000
1FFE07FF8000
1FFE03FF8000
ENDCHAR
STARTCHAR 1E92
ENCODING 7826
SWIDTH 549 0
DWIDTH 29 0
BBX 32 47 -1 -12
BITMAP
03FFFFFF
07FFFFFF
07FFFFFF
07FFFFFF
00003FFE
00007FFE
0000FFFC
0000FFFC
0001FFF8
0003FFF0
0003FFF0
0007FFE0
000FFFC0
000FFFC0
001FFF80
003FFF00
003FFF00
007FFE00
00FFFC00
00FFFC00
01FFF800
03FFF800
03FFF000
07FFE000
0FFFE000
0FFFC000
1FFF8000
3FFF8000
3FFF0000
7FFE0000
7FFE0000
7FFFFFF0
FFFFFFF0
FFFFFFF0
FFFFFFE0
00000000
00000000
00000000
00000000
00000000
001E0000
007F8000
00FF8000
00FF8000
00FF8000
007F0000
003E0000
ENDCHAR
STARTCHAR 1E93
ENCODING 7827
SWIDTH 473 0
DWIDTH 25 0
BBX 27 35 -2 -12
BITMAP
07FFFFE0
07FFFFE0
07FFFFE0
0FFFFFE0
0003FFC0
0003FF80
0007FF00
000FFE00
001FFC00
003FFC00
007FF800
00FFF000
01FFE000
03FFC000
07FF8000
0FFF0000
1FFE0000
3FFC0000
7FFC0000
7FFFFF80
7FFFFF00
7FFFFF00
FFFFFF00
00000000
00000000
00000000
00000000
00000000
007C0000
01FE0000
01FE0000
03FE0000
01FE0000
01FC0000
00F80000
ENDCHAR
STARTCHAR 1EB8
ENCODING 7864
SWIDTH 511 0
DWIDTH 27 0
BBX 29 47 0 -12
BITMAP
01FFFFF8
01FFFFF8
01FFFFF8
03FFFFF8
03FFC000
03FF8000
03FF8000
03FF8000
07FF8000
07FF8000
07FF8000
07FF0000
07FF0000
0FFF0000
0FFF0000
0FFFFF80
0FFFFF00
0FFFFF00
1FFFFF00
1FFE0000
1FFC0000
1FFC0000
1FFC0000
3FFC0000
3FFC0000
3FF80000
3FF80000
3FF80000
7FF80000
7FF80000
7FF00000
7FFFFE00
7FFFFE00
FFFFFE00
FFFFFC00
00000000
00000000
00000000
00000000
00000000
00F80000
03FC0000
03FC0000
03FC0000
03FC0000
03F80000
01F00000
ENDCHAR
STARTCHAR 1EB9
ENCODING 7865
SWIDTH 549 0
DWIDTH 29 0
BBX 27 35 1 -11
BITMAP
00008000
007FFE00
03FFFF80
07FFFFC0
1FFE7FE0
3FF87FE0
3FF83FE0
7FF03FE0
7FF07FE0
FFE07FE0
FFFFFFE0
FFFFFFC0
FFFFFFC0
FFC00000
FFC00000
FFC00000
FFC0FF80
FFC0FF80
FFC1FF00
7FE3FF00
3FFFFF00
1FFFFF00
0FFFFC00
01FFC000
00000000
00000000
00000000
00000000
00F80000
01FC0000
03FE0000
03FE0000
03FE0000
03FC0000
00F80000
ENDCHAR
STARTCHAR 1EBC
ENCODING 7868
SWIDTH 511 0
DWIDTH 27 0
BBX 30 46 0 0
BITMAP
0007E008
000FFC3C
001FFFFC
003FFFF8
007FFFF0
00F0FFF0
00603FE0
00200780
00000000
00000000
00000000
01FFFFF8
01FFFFF8
01FFFFF8
03FFFFF8
03FFC000
03FF8000
03FF8000
03FF8000
07FF8000
07FF8000
07FF8000
07FF0000
07FF0000
0FFF0000
0FFF0000
0FFFFF80
0FFFFF00
0FFFFF00
1FFFFF00
1FFE0000
1FFC0000
1FFC0000
1FFC0000
3FFC0000
3FFC0000
3FF80000
3FF80000
3FF80000
7FF80000
7FF80000
7FF00000
7FFFFE00
7FFFFE00
FFFFFE00
FFFFFC00
ENDCHAR
STARTCHAR 1EBD
ENCODING 7869
SWIDTH 549 0
DWIDTH 29 0
BBX 28 35 1 0
BITMAP
001FC070
003FFFF0
007FFFE0
00FFFFE0
01FFFFC0
01C3FF80
00803F00
00000000
00000000
00000000
00000000
00008000
007FFE00
03FFFF80
07FFFFC0
1FFE7FE0
3FF87FE0
3FF83FE0
7FF03FE0
7FF07FE0
FFE07FE0
FFFFFFE0
FFFFFFC0
FFFFFFC0
FFC00000
FFC00000
FFC00000
FFC0FF80
FFC0FF80
FFC1FF00
7FE3FF00
3FFFFF00
1FFFFF00
0FFFFC00
01FFC000
ENDCHAR
STARTCHAR 1ECA
ENCODING 7882
SWIDTH 322 0
DWIDTH 17 0
BBX 19 47 0 -12
BITMAP
01FFE0
01FFC0
01FFC0
03FFC0
03FFC0
03FFC0
03FF80
03FF80
07FF80
07FF80
07FF80
07FF00
07FF00
0FFF00
0FFF00
0FFE00
0FFE00
0FFE00
1FFE00
1FFE00
1FFC00
1FFC00
1FFC00
3FFC00
3FFC00
3FF800
3FF800
3FF800
7FF800
7FF800
7FF000
7FF000
7FF000
FFF000
FFF000
000000
000000
000000
000000
000000
3E0000
7F0000
FF8000
FF8000
FF0000
FF0000
7C0000
ENDCHAR
STARTCHAR 1ECB
ENCODING 7883
SWIDTH 303 0
DWIDTH 16 0
BBX 18 47 -1 -12
BITMAP
003E00
00FF80
01FF80
01FF80
01FFC0
01FF80
01FF80
00FF00
007C00
000000
000000
000000
07FF00
07FF00
07FF00
07FE00
0FFE00
0FFE00
0FFE00
0FFE00
0FFC00
1FFC00
1FFC00
1FFC00
1FF800
3FF800
3FF800
3FF800
3FF800
3FF000
7FF000
7FF000
7FF000
7FF000
FFE000
000000
000000
000000
000000
000000
3E0000
7F0000
FF8000
FF8000
FF8000
FF0000
3C0000
ENDCHAR
STARTCHAR 1ECC
ENCODING 7884
SWIDTH 682 0
DWIDTH 36 0
BBX 34 47 2 -11
BITMAP
0000100000
0007FFE000
003FFFF800
00FFFFFC00
01FFE7FE00
03FFC3FF00
07FF83FF00
0FFF03FF80
1FFE03FF80
1FFE03FF80
3FFE03FFC0
3FFC03FFC0
7FFC03FFC0
7FFC03FFC0
7FF803FFC0
7FF803FFC0
FFF803FFC0
FFF807FFC0
FFF007FFC0
FFF007FF80
FFF007FF80
FFF00FFF80
FFF00FFF80
FFF00FFF00
FFE00FFF00
FFE01FFE00
FFE01FFE00
FFE03FFC00
7FE03FFC00
7FF07FF800
7FF07FF000
3FF0FFF000
1FFFFFC000
0FFFFF8000
03FFFE0000
00FFF00000
0000000000
0000000000
0000000000
0000000000
007C000000
00FF000000
01FF000000
01FF000000
01FF000000
00FE000000
007C000000
ENDCHAR
STARTCHAR 1ECD
ENCODING 7885
SWIDTH 568 0
DWIDTH 30 0
BBX 28 35 1 -11
BITMAP
00010000
00FFFE00
03FFFF80
0FFFFFC0
1FFEFFC0
3FF87FE0
3FF87FE0
7FF07FF0
7FF07FF0
FFE07FF0
FFE07FF0
FFE07FF0
FFE07FF0
FFE0FFF0
FFC0FFE0
FFC0FFE0
FFC0FFE0
FFC1FFC0
FFC1FFC0
7FE3FF80
3FFFFF00
1FFFFC00
0FFFF800
01FF8000
00000000
00000000
00000000
00000000
00F00000
03FC0000
07FC0000
07FC0000
07FC0000
03F80000
01F00000
ENDCHAR
STARTCHAR 1EE4
ENCODING 7908
SWIDTH 625 0
DWIDTH 33 0
BBX 33 46 2 -11
BITMAP
07FF800F80
0FFF800F80
0FFF000F80
0FFF001F00
0FFF001F00
0FFF001F00
1FFE001F00
1FFE001E00
1FFE003E00
1FFE003E00
1FFE003E00
3FFC003E00
3FFC003C00
3FFC007C00
3FFC007C00
3FFC007C00
7FF8007C00
7FF8007800
7FF800F800
7FF800F800
7FF800F800
FFF000F800
FFF000F000
FFF001F000
FFF001F000
FFF001F000
FFF003E000
FFF003E000
FFF807C000
FFFC1FC000
7FFFFF8000
7FFFFF0000
3FFFFC0000
0FFFF00000
03FF800000
0000000000
0000000000
0000000000
0000000000
007C000000
01FE000000
01FE000000
01FF000000
01FE000000
01FE000000
00F8000000
ENDCHAR
STARTCHAR 1EE5
ENCODING 7909
SWIDTH 587 0
DWIDTH 31 0
BBX 30 34 1 -11
BITMAP
1FFC1FFC
1FFC3FF8
1FF83FF8
3FF83FF8
3FF83FF8
3FF83FF0
3FF07FF0
7FF07FF0
7FF07FF0
7FF07FF0
7FF07FE0
7FE0FFE0
FFE0FFE0
FFE0FFE0
FFE0FFE0
FFE1FFC0
FFE1FFC0
FFE3FFC0
FFFFFFC0
FFFFFF80
7FFDFF80
7FF0FF80
1FC0FF80
00000000
00000000
00000000
00000000
007C0000
01FE0000
01FE0000
01FE0000
01FE0000
01FE0000
00F80000
ENDCHAR
STARTCHAR 1EF2
ENCODING 7922
SWIDTH 568 0
DWIDTH 30 0
BBX 30 46 4 0
BITMAP
03FE0000
01FF0000
00FF0000
003F8000
001FC000
000FE000
0007E000
0003F000
0000F800
00000000
00000000
FFF800FC
7FF800F8
7FF801F8
7FFC03F0
7FFC03E0
3FFC07E0
3FFE07C0
3FFE0F80
3FFE0F80
3FFE1F00
1FFF3F00
1FFF3E00
1FFF7C00
1FFF7C00
0FFFF800
0FFFF800
0FFFF000
0FFFE000
07FFE000
07FFC000
07FF8000
07FF8000
07FF0000
07FF0000
07FF0000
0FFF0000
0FFF0000
0FFE0000
0FFE0000
0FFE0000
1FFE0000
1FFE0000
1FFC0000
1FFC0000
3FFC0000
ENDCHAR
STARTCHAR 1EF3
ENCODING 7923
SWIDTH 511 0
DWIDTH 27 0
BBX 32 44 -3 -9
BITMAP
003FE000
001FF000
000FF000
0003F800
0001FC00
0000FC00
00007E00
00003F00
00001F00
00000000
00000000
00000000
07FF003F
07FF007E
07FF807E
03FF80FC
03FF80F8
03FF81F8
03FF81F0
03FF83F0
03FF83E0
03FF87E0
01FF87C0
01FF8FC0
01FFCF80
01FFDF00
01FFDF00
01FFFE00
01FFFE00
00FFFC00
00FFFC00
00FFF800
00FFF800
00FFF000
00FFF000
00FFE000
00FFC000
00FFC000
00FF8000
01FF0000
FFFE0000
FFFC0000
FFF00000
FFC00000
ENDCHAR
STARTCHAR 1EF8
ENCODING 7928
SWIDTH 568 0
DWIDTH 30 0
BBX 30 46 4 0
BITMAP
0007E008
000FFC1C
001FFFFC
003FFFF8
007FFFF8
0070FFF0
00603FE0
00200780
00000000
00000000
00000000
FFF800FC
7FF800F8
7FF801F8
7FFC03F0
7FFC03E0
3FFC07E0
3FFE07C0
3FFE0F80
3FFE0F80
3FFE1F00
1FFF3F00
1FFF3E00
1FFF7C00
1FFF7C00
0FFFF800
0FFFF800
0FFFF000
0FFFE000
07FFE000
07FFC000
07FF8000
07FF8000
07FF0000
07FF0000
07FF0000
0FFF0000
0FFF0000
0FFE0000
0FFE0000
0FFE0000
1FFE0000
1FFE0000
1FFC0000
1FFC0000
3FFC0000
ENDCHAR
STARTCHAR 1EF9
ENCODING 7929
SWIDTH 511 0
DWIDTH 27 0
BBX 32 44 -3 -9
BITMAP
0001F002
0007FF0F
000FFFFE
001FFFFE
001FFFFC
003C7FF8
00180FF8
001003E0
00000000
00000000
00000000
00000000
07FF003F
07FF007E
07FF807E
03FF80FC
03FF80F8
03FF81F8
03FF81F0
03FF83F0
03FF83E0
03FF87E0
01FF87C0
01FF8FC0
01FFCF80
01FFDF00
01FFDF00
01FFFE00
01FFFE00
00FFFC00
00FFFC00
00FFF800
00FFF800
00FFF000
00FFF000
00FFE000
00FFC000
00FFC000
00FF8000
01FF0000
FFFE0000
FFFC0000
FFF00000
FFC00000
ENDCHAR
STARTCHAR 2013
ENCODING 8211
SWIDTH 606 0
DWIDTH 32 0
BBX 27 5 2 9
BITMAP
7FFFFFE0
FFFFFFE0
FFFFFFE0
FFFFFFC0
FFFFFFC0
ENDCHAR
STARTCHAR 2014
ENCODING 8212
SWIDTH 871 0
DWIDTH 46 0
BBX 42 5 2 9
BITMAP
7FFFFFFFFFC0
FFFFFFFFFF80
FFFFFFFFFF80
FFFFFFFFFF80
FFFFFFFFFF80
ENDCHAR
STARTCHAR 2018
ENCODING 8216
SWIDTH 265 0
DWIDTH 14 0
BBX 12 17 4 20
BITMAP
0060
01E0
03F0
07C0
0F80
1F80
3F00
7F00
7F00
7F80
FFC0
FFE0
FFE0
FFE0
7FC0
7F80
1F00
ENDCHAR
STARTCHAR 2019
ENCODING 8217
SWIDTH 265 0
DWIDTH 14 0
BBX 12 17 4 20
BITMAP
07C0
1FE0
3FF0
3FF0
7FF0
7FF0
3FF0
1FF0
0FE0
0FE0
0FC0
0F80
1F80
3E00
FC00
7800
6000
ENDCHAR
STARTCHAR 201A
ENCODING 8218
SWIDTH 284 0
DWIDTH 15 0
BBX 12 17 -1 -8
BITMAP
0F80
1FE0
3FE0
7FF0
7FF0
7FF0
3FE0
1FE0
0FE0
0FC0
0FC0
1F80
3F00
7E00
FC00
F000
6000
ENDCHAR
STARTCHAR 201C
ENCODING 8220
SWIDTH 530 0
DWIDTH 28 0
BBX 26 17 4 20
BITMAP
00600180
01E00780
03F00FC0
07C01F00
0F803E00
1F807E00
3F00FC00
7F01FC00
7F01FC00
7F81FE00
FFC3FF00
FFE3FF80
FFE3FF80
FFE3FF80
7FC1FF00
7F81FE00
1F007C00
ENDCHAR
STARTCHAR 201D
ENCODING 8221
SWIDTH 530 0
DWIDTH 28 0
BBX 26 17 4 20
BITMAP
07C01F00
1FE07F80
3FF0FFC0
3FF0FFC0
7FF1FFC0
7FF1FFC0
3FF0FFC0
1FF07FC0
0FE03F80
0FE03F80
0FC03F00
0F803E00
1F807E00
3E00FC00
FC03F000
7801E000
60018000
ENDCHAR
STARTCHAR 201E
ENCODING 8222
SWIDTH 549 0
DWIDTH 29 0
BBX 26 17 -1 -8
BITMAP
0F803E00
1FE07F80
3FE0FF80
7FF1FFC0
7FF1FFC0
7FF1FFC0
3FE0FF80
1FE07F80
1FE03F80
0FC03F00
0FC03F00
1F807E00
3F00FC00
7E01F800
FC03F000
F003C000
60018000
ENDCHAR
STARTCHAR 2020
ENCODING 8224
SWIDTH 360 0
DWIDTH 19 0
BBX 18 46 2 -9
BITMAP
003E00
003E00
007E00
007C00
007C00
007C00
007C00
00FC00
00F800
00F800
00F800
00F800
01F800
7FFFC0
7FFFC0
7FFFC0
7FFF80
03E000
03E000
03E000
03E000
03E000
07C000
07C000
07C000
07C000
0FC000
0F8000
0F8000
0F8000
0F8000
1F8000
1F0000
1F0000
1F0000
1F0000
3E0000
3E0000
3E0000
3E0000
3E0000
7C0000
7C0000
7C0000
7C0000
FC0000
ENDCHAR
STARTCHAR 2021
ENCODING 8225
SWIDTH 378 0
DWIDTH 20 0
BBX 21 46 -1 -9
BITMAP
0007C0
0007C0
0007C0
000FC0
000F80
000F80
000F80
000F80
001F80
001F00
001F00
001F00
001F00
07FFF8
0FFFF8
0FFFF8
0FFFF8
003E00
007C00
007C00
007C00
007C00
007C00
00F800
00F800
00F800
00F800
00F800
01F000
7FFFC0
7FFFC0
7FFF80
FFFF80
03E000
03E000
03E000
03E000
07C000
07C000
07C000
07C000
07C000
0F8000
0F8000
0F8000
0F8000
ENDCHAR
STARTCHAR 2022
ENCODING 8226
SWIDTH 341 0
DWIDTH 18 0
BBX 13 13 4 13
BITMAP
0F80
3FC0
7FE0
7FF0
FFF0
FFF8
FFF8
FFF8
FFF0
7FF0
7FE0
3FC0
0F80
ENDCHAR
STARTCHAR 2026
ENCODING 8230
SWIDTH 909 0
DWIDTH 48 0
BBX 44 10 0 0
BITMAP
1F000F8007C0
3FC03FE01FE0
7FC03FE03FF0
FFE07FF03FF0
FFE07FF03FF0
FFE07FF03FF0
FFC07FE03FF0
FFC07FE03FF0
7F803FC01FE0
3E001F000F80
ENDCHAR
STARTCHAR 2030
ENCODING 8240
SWIDTH 1061 0
DWIDTH 56 0
BBX 49 36 4 0
BITMAP
00800000000000
0FF800F8000000
1FFC01F0000000
3E7C03F0000000
7E7E03E0000000
7E7E07C0000000
FC7E0FC0000000
FC7E0F80000000
FC7E1F80000000
FC7E1F00000000
FCFC3E00000000
FCFC7E00000000
7DF87C00000000
7FF0FC00000000
3FC1F800000000
0001F000000000
0003F000000000
0003E000000000
0007E000000000
000FC000000000
000F8000000000
001F8000000000
001F07F803FE00
003F1FFC07FF00
007E3F3E0FDF00
007C3F3E1F8F80
00FC7E3E1F8F80
01F87E3E1F1F80
01F07C3E3F1F80
03F07C7E3F1F80
03E07C7E3F1F80
07E07C7E3F3F00
0FC07CFC3F3F00
0F807CF81F7E00
1F803FF01FFC00
3F001FC007F000
ENDCHAR
STARTCHAR 2039
ENCODING 8249
SWIDTH 322 0
DWIDTH 17 0
BBX 16 23 1 0
BITMAP
003F
007E
00FC
01FC
03F8
07F0
0FE0
1FC0
3FC0
7F80
7F00
FE00
FE00
7F00
7F00
3F80
3F80
1FC0
1FC0
0FE0
0FE0
07F0
03F0
ENDCHAR
STARTCHAR 203A
ENCODING 8250
SWIDTH 322 0
DWIDTH 17 0
BBX 17 23 -1 0
BITMAP
0FE000
07E000
07F000
07F000
03F800
03F800
01FC00
01FC00
00FE00
00FE00
007F00
007F80
00FF00
00FE00
01FC00
03F800
07F000
0FE000
1FC000
1F8000
3F0000
7F0000
FE0000
ENDCHAR
STARTCHAR 2044
ENCODING 8260
SWIDTH 94 0
DWIDTH 5 0
BBX 27 35 -10 0
BITMAP
000007E0
000007C0
00000F80
00001F80
00001F00
00003F00
00003E00
00007C00
0000FC00
0000F800
0001F800
0003F000
0003E000
0007E000
0007C000
000F8000
001F8000
001F0000
003F0000
007E0000
007C0000
00FC0000
00F80000
01F80000
03F00000
03E00000
07E00000
0FC00000
0FC00000
1F800000
1F000000
3F000000
7E000000
7E000000
FC000000
ENDCHAR
STARTCHAR 2070
ENCODING 8304
SWIDTH 303 0
DWIDTH 16 0
BBX 14 15 4 21
BITMAP
0080
0FF0
3FF8
7E7C
7C7C
FC7C
FC7C
FC7C
F8FC
F8FC
F8FC
F9F8
F9F8
7FF0
3FC0
ENDCHAR
STARTCHAR 2074
ENCODING 8308
SWIDTH 265 0
DWIDTH 14 0
BBX 13 14 3 21
BITMAP
03F8
07F8
0FF0
0DF0
1DF0
3BF0
73F0
E3E0
FFF8
FFF8
FFE0
07E0
07C0
07C0
ENDCHAR
STARTCHAR 2075
ENCODING 8309
SWIDTH 265 0
DWIDTH 14 0
BBX 13 14 3 21
BITMAP
1FF8
3FF8
3FF0
3C00
3BC0
3FF0
7FF0
01F8
01F8
F9F8
F9F0
F9F0
FFE0
3F80
ENDCHAR
STARTCHAR 2076
ENCODING 8310
SWIDTH 284 0
DWIDTH 15 0
BBX 13 15 4 21
BITMAP
0080
0FF8
3FF8
7CF8
7CF0
F800
FBE0
FFF0
FDF0
F9F8
F9F0
F1F0
FBF0
7FE0
3F80
ENDCHAR
STARTCHAR 2077
ENCODING 8311
SWIDTH 227 0
DWIDTH 12 0
BBX 12 14 4 21
BITMAP
FFF0
FFF0
FFF0
FFC0
0780
0F00
1F00
1E00
3E00
3E00
7C00
7C00
7C00
7C00
ENDCHAR
STARTCHAR 2078
ENCODING 8312
SWIDTH 284 0
DWIDTH 15 0
BBX 13 15 3 21
BITMAP
0080
0FF0
3FF8
3C78
7C78
3CF8
3FF0
1FE0
7FF8
FCF8
F8F8
F8F8
FDF8
7FF0
1F80
ENDCHAR
STARTCHAR 2079
ENCODING 8313
SWIDTH 284 0
DWIDTH 15 0
BBX 13 15 4 21
BITMAP
0100
1FE0
7FF0
7CF8
FCF8
F8F8
F9F8
FFF8
7FF8
3DF0
01F0
F1F0
FBE0
FFC0
FF00
ENDCHAR
STARTCHAR 2080
ENCODING 8320
SWIDTH 303 0
DWIDTH 16 0
BBX 15 14 -1 0
BITMAP
07F0
1FFC
3F7C
3E3E
7E3E
7C3E
FC7E
FC7E
FC7E
FC7C
7CFC
7DF8
3FF0
1FC0
ENDCHAR
STARTCHAR 2081
ENCODING 8321
SWIDTH 189 0
DWIDTH 10 0
BBX 9 14 -1 0
BITMAP
0780
1F80
7F80
7F00
FF00
1F00
3F00
3F00
3E00
3E00
3E00
7E00
7E00
7C00
ENDCHAR
STARTCHAR 2082
ENCODING 8322
SWIDTH 284 0
DWIDTH 15 0
BBX 15 14 -2 0
BITMAP
07F0
1FFC
3F7E
3E7E
3C7E
007E
007C
00F8
01F0
03C0
1FFC
7FFC
7FFC
FFFC
ENDCHAR
STARTCHAR 2083
ENCODING 8323
SWIDTH 284 0
DWIDTH 15 0
BBX 14 14 -1 0
BITMAP
0FF0
3FF8
3EFC
7C7C
00F8
01F8
03E0
03F0
01F8
F9F8
F9F8
FBF0
FFE0
3F80
ENDCHAR
STARTCHAR 2084
ENCODING 8324
SWIDTH 265 0
DWIDTH 14 0
BBX 14 14 -2 0
BITMAP
01FC
03F8
07F8
0FF8
1DF8
19F0
39F0
71F0
7FFC
7FFC
FFE0
03E0
03E0
07E0
ENDCHAR
STARTCHAR 2085
ENCODING 8325
SWIDTH 265 0
DWIDTH 14 0
BBX 13 14 -1 0
BITMAP
3FF8
3FF0
3FF0
3800
7B80
7FE0
7FF0
01F0
01F0
F1F0
F1F0
FBE0
FFC0
3F00
ENDCHAR
STARTCHAR 2086
ENCODING 8326
SWIDTH 284 0
DWIDTH 15 0
BBX 14 14 -1 0
BITMAP
07F8
1FFC
3E78
3E78
7C00
7DF0
FFF8
FFF8
FCF8
F8F8
F8F8
79F8
7FF0
1FC0
ENDCHAR
STARTCHAR 2087
ENCODING 8327
SWIDTH 227 0
DWIDTH 12 0
BBX 12 14 0 0
BITMAP
FFF0
FFF0
FFE0
FFC0
0780
0F00
1E00
3E00
3E00
7C00
7C00
7C00
7C00
FC00
ENDCHAR
STARTCHAR 2088
ENCODING 8328
SWIDTH 284 0
DWIDTH 15 0
BBX 13 14 -1 0
BITMAP
0FE0
3FF8
3CF8
7CF8
7CF8
3FF0
3FE0
7FF0
FCF8
F8F8
F9F8
F9F0
7FE0
3F80
ENDCHAR
STARTCHAR 2089
ENCODING 8329
SWIDTH 284 0
DWIDTH 15 0
BBX 14 14 -1 0
BITMAP
0FE0
3FF8
7E78
7C7C
7C7C
7CFC
7FFC
7FFC
3EF8
00F8
79F0
7BF0
FFC0
7F00
ENDCHAR
STARTCHAR 20AC
ENCODING 8364
SWIDTH 587 0
DWIDTH 31 0
BBX 31 36 1 0
BITMAP
00000080
00003FFE
0000FFFE
0003FFFC
0007FF0C
000FFE00
001FFC00
003FF800
007FF000
007FF000
00FFF000
00FFE000
01FFE000
1FFFFF80
1FFFFF80
3FFFFF80
3FFFFF00
03FF8000
07FF8000
07FF8000
07FF8000
7FFFFE00
7FFFFE00
FFFFFE00
FFFFFE00
07FF8000
03FF8000
03FF8000
03FF8000
03FF8000
01FF8000
01FFC080
00FFFF80
007FFFC0
001FFFC0
0003FE00
ENDCHAR
STARTCHAR 2122
ENCODING 8482
SWIDTH 701 0
DWIDTH 37 0
BBX 33 13 6 21
BITMAP
7FFBF87F80
FFFBF87F00
FFF7F8FF00
1F87F8FF00
1F87F9FF00
1F07F9FF00
1F07FFBE00
3F0EFFBE00
3F0EFF3E00
3F0E7F7E00
3E0E7E7E00
3E0C7E7C00
7E1C7C7C00
ENDCHAR
STARTCHAR 2153
ENCODING 8531
SWIDTH 663 0
DWIDTH 35 0
BBX 29 35 3 0
BITMAP
03C007E0
0FC007C0
3FC00FC0
3FC00F80
3F801F00
0F803F00
1F803E00
1F807C00
1F80FC00
1F00F800
1F01F800
3F01F000
3F03E000
3F07E000
0007C000
000FC000
001F8000
001F0000
003F0000
003E0000
007E0000
00FC1FE0
00F87FF0
01F87CF8
03F078F8
03F080F8
07E001F0
07C007C0
0FC007E0
1F8001F0
1F81F1F0
3F01F3F0
7E01F3F0
7E01FFE0
FC007F00
ENDCHAR
STARTCHAR 2154
ENCODING 8532
SWIDTH 738 0
DWIDTH 39 0
BBX 33 36 3 0
BITMAP
0080000000
0FF8003E00
1FFC007E00
3E7E007C00
3E7E00F800
3C7E01F800
007E01F000
00FC03F000
00F803E000
01F007C000
07C00FC000
1FFC0F8000
7FFC1F0000
7FFC3F0000
FFFC3E0000
00007E0000
00007C0000
0000F80000
0001F80000
0001F00000
0003F00000
0007E00000
0007C0FF00
000FC7FF80
000F87CF80
001F87CF80
003F000F80
003E001F00
007E003E00
00FC003F00
00FC001F80
01F80F1F80
01F00F1F80
03F01F3F00
07E00FFE00
0FE007F800
ENDCHAR
STARTCHAR 215B
ENCODING 8539
SWIDTH 663 0
DWIDTH 35 0
BBX 29 35 3 0
BITMAP
03C007E0
0FC007C0
3FC00FC0
3FC00F80
3F801F00
0F803F00
0F803E00
1F807E00
1F80FC00
1F00F800
1F01F800
3F01F000
3F03E000
3F07E000
0007C000
000FC000
001F8000
001F0000
003F0000
003E0000
007E0000
00FC0FE0
00F83FF0
01F87CF8
01F07CF8
03F07CF8
07E03FF0
07C03FE0
0FC07FF0
1F80F9F0
1F80F9F8
3F00F9F0
3E00F9F0
7E00FFE0
FC003F80
ENDCHAR
STARTCHAR 215C
ENCODING 8540
SWIDTH 720 0
DWIDTH 38 0
BBX 32 36 3 0
BITMAP
00400000
0FF8007C
1FFC00F8
3E7E00F8
3E3E01F0
007C03F0
01F803E0
01E007C0
01F80FC0
00FC0F80
7CFC1F80
78FC1F00
7DF83E00
FFF07E00
1FC07C00
0000FC00
0001F800
0001F000
0003F000
0003E000
0007E000
000FC000
000F81FC
001F87FE
003F0F9F
003E0F9F
007E0F9F
007C07FE
00FC07FC
01F80FFE
01F01FBF
03F01F1F
07E01F3F
07E01F3E
0FC00FFC
1F8007F0
ENDCHAR
STARTCHAR 215D
ENCODING 8541
SWIDTH 720 0
DWIDTH 38 0
BBX 31 35 3 0
BITMAP
1FFC00FC
1FF800F8
1FF801F0
1C0003F0
3DC003E0
3FF007C0
3FF80FC0
00F80F80
00F81F80
78F81F00
78F83E00
79F07E00
FFE07C00
1F80FC00
0001F800
0001F000
0003F000
0003E000
0007C000
000FC000
000F8000
001F83F8
003F07FE
003E0F9E
007E0F1E
007C0F3E
00FC0FFE
01F807F8
01F01FFE
03F01F3E
07E03E3E
07E03E3E
0FC03F7E
0F801FFC
1F8007F0
ENDCHAR
STARTCHAR 215E
ENCODING 8542
SWIDTH 682 0
DWIDTH 36 0
BBX 29 35 4 0
BITMAP
7FF803E0
7FF807C0
7FF80FC0
7FE00F80
03C01F80
07801F00
0F803E00
0F007E00
1F007C00
1F00F800
3E01F800
3E01F000
3E03F000
3E03E000
0007C000
000FC000
000F8000
001F8000
003F0000
003E0000
007E0000
007C0FE0
00FC3FF0
01F87CF8
01F07CF8
03F07CF8
07E03FF0
07E03FE0
0FC07FF0
0F80F9F8
1F80F9F8
3F00F9F8
3F00F9F0
7E007FE0
FC003F80
ENDCHAR
STARTCHAR 2212
ENCODING 8722
SWIDTH 511 0
DWIDTH 27 0
BBX 22 5 3 14
BITMAP
7FFFFC
FFFFFC
FFFFFC
FFFFF8
FFFFF8
ENDCHAR
STARTCHAR 2215
ENCODING 8725
SWIDTH 378 0
DWIDTH 20 0
BBX 27 34 -3 0
BITMAP
000003E0
000007C0
00000FC0
00000F80
00001F00
00003F00
00003E00
00007E00
0000FC00
0000F800
0001F800
0001F000
0003E000
0007E000
0007C000
000F8000
001F8000
001F0000
003F0000
007E0000
007C0000
00FC0000
01F80000
01F00000
03F00000
07E00000
07E00000
0FC00000
1F800000
1F800000
3F000000
3E000000
7E000000
FC000000
ENDCHAR
STARTCHAR 2219
ENCODING 8729
SWIDTH 265 0
DWIDTH 14 0
BBX 11 9 2 12
BITMAP
1FC0
3FE0
7FE0
7FE0
FFE0
FFE0
7FE0
7FC0
1F00
ENDCHAR
STARTCHAR F6C3
ENCODING 63171
SWIDTH 227 0
DWIDTH 12 0
BBX 8 12 2 -15
BITMAP
1C
7F
7F
FF
7F
3F
3E
3E
3C
78
F0
40
ENDCHAR
STARTCHAR FB00
ENCODING 64256
SWIDTH 738 0
DWIDTH 39 0
BBX 44 37 2 0
BITMAP
00000000FFE0
0001FF87FFF0
000FFFFFFFF0
003FFFFFFFF0
007FFFFFFFF0
00FFFFFFF000
01FFC0FFE000
01FF80FFC000
03FF81FFC000
03FF01FFC000
07FF01FFC000
07FF01FF8000
07FF03FF8000
07FE03FF8000
FFFFFFFFFC00
FFFFFFFFFC00
FFFFFFFFFC00
FFFFFFFFFC00
0FFC07FF0000
1FFC07FF0000
1FFC07FF0000
1FFC0FFE0000
1FFC0FFE0000
1FF80FFE0000
3FF80FFE0000
3FF80FFC0000
3FF81FFC0000
3FF81FFC0000
3FF01FFC0000
7FF01FFC0000
7FF01FF80000
7FF03FF80000
7FE03FF80000
FFE03FF80000
FFE03FF80000
FFE03FF00000
FFE07FF00000
ENDCHAR
STARTCHAR FB01
ENCODING 64257
SWIDTH 663 0
DWIDTH 35 0
BBX 33 38 2 0
BITMAP
0000FFC000
0007FFF800
001FFFFE00
003FFFFE00
007FFFFC00
00FFFFFC00
01FFE03C00
01FFC00400
03FF800000
03FF800000
03FF000000
07FF000000
07FF000000
07FF000000
07FE000000
FFFFFFFF80
FFFFFFFF80
FFFFFFFF00
FFFFFFFF00
0FFC07FF00
1FFC07FF00
1FFC07FF00
1FFC0FFE00
1FFC0FFE00
1FF80FFE00
3FF80FFE00
3FF80FFC00
3FF81FFC00
3FF81FFC00
3FF01FFC00
7FF01FFC00
7FF01FF800
7FF03FF800
7FE03FF800
FFE03FF800
FFE03FF800
FFE07FF000
FFE07FF000
ENDCHAR
STARTCHAR FB02
ENCODING 64258
SWIDTH 663 0
DWIDTH 35 0
BBX 36 37 2 0
BITMAP
0000FFC000
0007FFFFF0
001FFFFFE0
007FFFFFE0
00FFFFFFE0
00FFC1FFE0
01FF80FFE0
03FF81FFC0
03FF81FFC0
03FF01FFC0
07FF01FFC0
07FF01FF80
07FF03FF80
07FF03FF80
FFFFF3FF80
FFFFF3FF80
FFFFE3FF00
FFFFE7FF00
0FFC07FF00
1FFC07FF00
1FFC07FF00
1FFC0FFE00
1FFC0FFE00
1FF80FFE00
3FF80FFE00
3FF80FFE00
3FF81FFC00
3FF81FFC00
3FF01FFC00
7FF01FFC00
7FF01FF800
7FF03FF800
7FE03FF800
FFE03FF800
FFE03FF800
FFE03FF000
FFE07FF000
ENDCHAR
STARTCHAR FB03
ENCODING 64259
SWIDTH 1004 0
DWIDTH 53 0
BBX 50 38 2 0
BITMAP
000000003FE000
00000001FFFC00
0001FF87FFFF00
000FFFFFFFFF80
003FFFFFFFFF00
007FFFFFFFFF00
00FFFFFFF81F00
01FFC0FFE00200
01FF80FFE00000
03FF80FFC00000
03FF01FFC00000
07FF01FFC00000
07FF01FF800000
07FF03FF800000
07FE03FF800000
FFFFFFFFFFFFC0
FFFFFFFFFFFFC0
FFFFFFFFFFFFC0
FFFFFFFFFFFFC0
0FFC07FF01FF80
1FFC07FF03FF80
1FFC07FF03FF80
1FFC0FFE03FF80
1FFC0FFE03FF80
1FF80FFE03FF00
3FF80FFE07FF00
3FF80FFE07FF00
3FF81FFC07FF00
3FF81FFC07FF00
3FF01FFC07FE00
7FF01FFC0FFE00
7FF01FF80FFE00
7FF03FF80FFE00
7FE03FF80FFE00
FFE03FF81FFC00
FFE03FF81FFC00
FFE03FF01FFC00
FFE07FF01FFC00
ENDCHAR
STARTCHAR FB04
ENCODING 64260
SWIDTH 1004 0
DWIDTH 53 0
BBX 53 37 2 0
BITMAP
000000007FF000
0001FF03FFFFF8
000FFFFFFFFFF8
003FFFFFFFFFF8
007FFFFFFFFFF0
00FFFFFFF07FF0
01FFC0FFE07FF0
01FF80FFC07FF0
03FF81FFC07FF0
03FF01FFC07FE0
07FF01FFC0FFE0
07FF01FF80FFE0
07FF03FF80FFE0
07FE03FF80FFE0
FFFFFFFFF9FFC0
FFFFFFFFF9FFC0
FFFFFFFFF9FFC0
FFFFFFFFF9FFC0
0FFC07FF01FF80
1FFC07FF03FF80
1FFC07FF03FF80
1FFC0FFE03FF80
1FFC0FFE03FF80
1FF80FFE03FF00
3FF80FFE07FF00
3FF80FFC07FF00
3FF81FFC07FF00
3FF81FFC07FF00
3FF01FFC07FE00
7FF01FFC0FFE00
7FF01FF80FFE00
7FF03FF80FFE00
7FE03FF80FFE00
FFE03FF80FFC00
FFE03FF81FFC00
FFE03FF01FFC00
FFE07FF01FFC00
ENDCHAR
STARTCHAR FB06
ENCODING 64262
SWIDTH 871 0
DWIDTH 46 0
BBX 47 38 -1 0
BITMAP
0000000FFC00
0000007FFF80
000001FFFFC0
000007FFFFE0
00000FFFFFF0
00001FF01FF0
00003F800FF0
00003E0007F8
00007C0007F0
00007C0007F0
00007C000FF0
00007C000FF0
00007C001FF0
00003C007FF0
00009E03FFE0
007FFF0FFFFE
03FFFF8FFFFE
07FFFF8FFFFE
0FFE7F8FFFFE
1FF87F80FFC0
1FF87F01FFC0
1FF87F01FFC0
1FFC0001FFC0
1FFF0001FFC0
1FFFF003FF80
1FFFFC03FF80
0FFFFE03FF80
07FFFF03FF80
00FFFF03FF80
001FFF87FF00
0007FF87FF00
7F03FF07FF00
7F03FF07FF00
7F87FF07FF00
FFFFFE07FFE0
FFFFFC03FFE0
7FFFF003FFE0
07FF8000FFE0
ENDCHAR
ENDFONT
